<svg xmlns="http://www.w3.org/2000/svg" viewBox="0 0 1404.64 847.91"><defs><style>.cls-1,.cls-2,.cls-23,.cls-24,.cls-25,.cls-26,.cls-7,.cls-8{fill:none;}.cls-1,.cls-2{stroke:#fff;}.cls-1,.cls-2,.cls-22,.cls-23,.cls-24,.cls-25,.cls-26,.cls-7,.cls-8{stroke-miterlimit:10;}.cls-1,.cls-2,.cls-23,.cls-25{stroke-width:1.3px;}.cls-2{stroke-dasharray:15.71 15.71;}.cls-3{fill:#575756;opacity:0.25;}.cls-4{fill:#f09538;}.cls-10,.cls-5{fill:#c9a990;}.cls-6{fill:#e2c5a7;}.cls-7,.cls-8{stroke:#dd8022;}.cls-24,.cls-25,.cls-26,.cls-7,.cls-8{stroke-linecap:round;}.cls-7{stroke-width:0.36px;}.cls-8{stroke-width:0.31px;}.cls-9{fill:#dd8022;}.cls-10{opacity:0.61;}.cls-11{fill:#3baa72;}.cls-12{fill:#865e3d;}.cls-13{fill:#221e20;}.cls-14,.cls-22{fill:#ff9931;}.cls-15{fill:#e2e3e3;}.cls-16{opacity:0.24;}.cls-17{fill:#e13b45;}.cls-18{fill:#e86d12;}.cls-19{fill:#26a66a;}.cls-20{fill:#209b5f;}.cls-21{fill:#55b37f;}.cls-22{stroke:#ed5a24;stroke-width:0.94px;}.cls-23,.cls-25{stroke:#e86d12;}.cls-24{stroke:#209b5f;stroke-width:3.89px;}.cls-26{stroke:#e4832e;stroke-width:0.65px;}.cls-27{fill:#fff;}.cls-28{fill:#020102;}</style></defs><g id="Capa_2" data-name="Capa 2"><g id="Capa_1-2" data-name="Capa 1"><line class="cls-1" x1="28.08" y1="110.62" x2="35.86" y2="110.62"/><line class="cls-2" x1="51.56" y1="110.62" x2="1143.07" y2="110.62"/><line class="cls-1" x1="1150.93" y1="110.62" x2="1158.71" y2="110.62"/><ellipse class="cls-3" cx="139.05" cy="786.42" rx="128.35" ry="31.97"/><ellipse class="cls-3" cx="421.88" cy="794.31" rx="128.35" ry="31.97"/><ellipse class="cls-3" cx="727.17" cy="786.04" rx="76.43" ry="50.85"/><ellipse class="cls-3" cx="1023.7" cy="784.95" rx="128.35" ry="31.97"/><line class="cls-1" x1="28.08" y1="186.88" x2="35.86" y2="186.88"/><line class="cls-2" x1="51.56" y1="186.88" x2="1143.07" y2="186.88"/><line class="cls-1" x1="1150.93" y1="186.88" x2="1158.71" y2="186.88"/><line class="cls-1" x1="28.08" y1="198.2" x2="35.86" y2="198.2"/><line class="cls-2" x1="51.56" y1="198.2" x2="1143.07" y2="198.2"/><line class="cls-1" x1="1150.93" y1="198.2" x2="1158.71" y2="198.2"/><line class="cls-1" x1="22.03" y1="794.31" x2="29.81" y2="794.31"/><line class="cls-2" x1="45.51" y1="794.31" x2="1137.02" y2="794.31"/><line class="cls-1" x1="1144.87" y1="794.31" x2="1152.65" y2="794.31"/><line class="cls-1" x1="29.37" y1="749.41" x2="37.15" y2="749.41"/><line class="cls-2" x1="52.86" y1="749.41" x2="1144.37" y2="749.41"/><line class="cls-1" x1="1152.22" y1="749.41" x2="1160" y2="749.41"/><line class="cls-1" x1="28.08" y1="334.91" x2="35.86" y2="334.91"/><line class="cls-2" x1="51.56" y1="334.91" x2="1143.07" y2="334.91"/><line class="cls-1" x1="1150.93" y1="334.91" x2="1158.71" y2="334.91"/><path class="cls-4" d="M185,314.18s18.42,2.59,20,5.76,1.43,1.09,1.07,5.07c-.28,3.05,1.34,7.07-.48,10.35a7.76,7.76,0,0,1-2.8,2.78c-7,4.56-24.26-3.64-25-4-1.3-10.24.44-18.2,4.58-19.75A5,5,0,0,1,185,314.18Z"/><path class="cls-4" d="M207.92,318.64s-7.66.64-9.89,2.26a3.78,3.78,0,0,0-1.75,3.74s15.57-.22,24.74-5.65c0,0,5.53-3-.5-2.83a12,12,0,0,0-3.93.82A31.66,31.66,0,0,1,207.92,318.64Z"/><path class="cls-4" d="M204.82,336.41s-7-.94-9.09,0a2.76,2.76,0,0,0-1.81,2.85s14.11,2.85,22.74,0c0,0,6.11-1.79-1.94-2.76a4.34,4.34,0,0,0-1.39.08C212.3,336.79,209.8,337.09,204.82,336.41Z"/><path class="cls-4" d="M209,324.05s-8.35-.46-10.92,1.24a5,5,0,0,0-2.26,4.48s16.86,2.31,27.31-3.1c0,0,6.07-2.86,0-3.66a11.86,11.86,0,0,0-4.74.38A29.26,29.26,0,0,1,209,324.05Z"/><path class="cls-4" d="M206.14,330.52s-7.77-.81-10,.77a4.59,4.59,0,0,0-1.74,4.36s15.8,3,25.05-1.94c0,0,4.93-2.37.44-3.49a10.24,10.24,0,0,0-5.1,0A25,25,0,0,1,206.14,330.52Z"/><path class="cls-4" d="M187.53,316.64s3.3,2.32,4.32,1.21,6.43-3.69,9.3-4.49a3.32,3.32,0,0,0,2.26-2,1.67,1.67,0,0,0-1.3-2.47c-3.23-.93-9.52,1.47-9.52,1.47q-10.14,4-9.79,5.45C183,316.44,184.53,316.72,187.53,316.64Z"/><circle class="cls-4" cx="182.86" cy="324.9" r="10.52"/><path class="cls-4" d="M92,267.58l89.55,45.73s11.44,13.34-1.9,21c0,0-104.8-41.92-108.61-53.35C71.07,280.92,71.07,260,92,267.58Z"/><path class="cls-5" d="M139.58,213.93l-30.26,55.83,69.94,36.17s-3.51,25.74-10.46,25L77.32,289.08s-17.74-13,.7-29.5l32.68-47.31S128.45,191.45,139.58,213.93Z"/><path class="cls-6" d="M138.17,214.71l-31.08,56.8,71.82,36.79s-3.6,26.18-10.73,25.42L74.7,289.25s-13-13.94.24-28.1L108.5,213S126.74,191.84,138.17,214.71Z"/><path class="cls-5" d="M104.06,270.77l-12-.17a.88.88,0,0,0,0,1.75l12,.17a.88.88,0,0,0,0-1.75Z"/><path class="cls-5" d="M86.62,245.44a121.18,121.18,0,0,1,27-34c.85-.74-.39-2-1.23-1.24a122.49,122.49,0,0,0-27.3,34.35c-.53,1,1,1.88,1.51.89Z"/><path class="cls-5" d="M94.37,300.29c22.71,10.18,45.44,20.36,67.56,31.78l4.51,2.36a8.25,8.25,0,0,0,3.43,1.23,2.9,2.9,0,0,0,3.1-3.56.88.88,0,0,0-1.46-.38l-1.85,1.56c-.86.73.38,2,1.24,1.24l1.84-1.57-1.46-.38c.61,2.08-2.44,1.1-3.14.77s-1.55-.81-2.32-1.21q-2.4-1.26-4.82-2.5-4.53-2.33-9.09-4.58-9.27-4.59-18.65-9c-12.6-5.91-25.31-11.6-38-17.29-1-.45-1.91,1.05-.88,1.51Z"/><path class="cls-7" d="M216.23,317.69a4,4,0,0,1,.87,1.4,3.8,3.8,0,0,1,.22,1.3"/><path class="cls-7" d="M208.69,319a3.83,3.83,0,0,1,.88,1.4,3.75,3.75,0,0,1,.21,1.3"/><path class="cls-7" d="M196.36,311a3.78,3.78,0,0,1,2.53,1.46"/><path class="cls-7" d="M217.79,324.28a3.91,3.91,0,0,1,.4,1.6,4,4,0,0,1-.19,1.31"/><path class="cls-7" d="M209.78,325.73a3.73,3.73,0,0,1,.21,2.91"/><path class="cls-7" d="M215,331.67a3.78,3.78,0,0,1,.41,1.59,3.91,3.91,0,0,1-.2,1.31"/><path class="cls-8" d="M213.52,337a3.35,3.35,0,0,1,.35,1.37,3.42,3.42,0,0,1-.17,1.12"/><path class="cls-8" d="M206.91,337.45a3.37,3.37,0,0,1,.34,1.37,3.2,3.2,0,0,1-.16,1.12"/><path class="cls-7" d="M207.61,332.25a3.72,3.72,0,0,1-.14,1.64,3.9,3.9,0,0,1-.61,1.17"/><path class="cls-9" d="M117.14,264a2.9,2.9,0,0,0,.94.22,3.28,3.28,0,0,0,1-.08,1.12,1.12,0,0,1-1,.44A1.11,1.11,0,0,1,117.14,264Z"/><path class="cls-7" d="M204,321.52a34.36,34.36,0,0,1-.61,7.76,34,34,0,0,1-2,6.61"/><path class="cls-7" d="M196.45,319.62a17.82,17.82,0,0,1-4.57,6.41,18,18,0,0,1-9.68,4.31"/><path class="cls-7" d="M197.63,327.07a21.11,21.11,0,0,1-4.32,2.22,21.87,21.87,0,0,1-11.11,1"/><path class="cls-10" d="M167.59,299.62c.73,0,2.3,9.89,2,20.13-.22,7.45-1.46,16.41-2.18,16.38-.16,0-.27-.44-.34-.84C166.52,306.38,167,299.65,167.59,299.62Z"/><circle class="cls-4" cx="230.93" cy="732.61" r="10.23"/><path class="cls-4" d="M39.8,330.37v32.95s76.62-.26,80.64,20.1c0,0,15.81,3.21,19-.27,0,0,8.57-22.77,24.65-23,0,0,8.26-20.93-6.19-29.22C157.93,330.89,109.46,371.63,39.8,330.37Z"/><path class="cls-4" d="M40.61,353.83s72.42,5.38,79.81,26.89l-16.35,216.2S74.62,602,68.29,594C68.29,594,37.23,408.39,40.61,353.83Z"/><path class="cls-11" d="M38.27,325.49h95.17l-7.83,245.25L43.09,572S23.8,334.23,38.27,325.49Z"/><path class="cls-4" d="M165,362.12s-13.78-3.88-26.24,21.39l51,192.82s29.5,7.43,33.09-10.19C222.9,566.14,204.64,381.84,165,362.12Z"/><circle class="cls-4" cx="85.84" cy="596.36" r="18.21"/><circle class="cls-4" cx="70.89" cy="780.12" r="12.14"/><circle class="cls-4" cx="189.51" cy="750.01" r="12.14"/><circle class="cls-4" cx="205.3" cy="567" r="17.47"/><path class="cls-12" d="M68.65,596.18s24.49-6.9,35.35,1.66L82.74,783.35s-16.34,4.76-24.39-2Z"/><path class="cls-13" d="M59.1,775.76s-.94,11.49-2.75,12.49,4.68,6.17,8.11,6.45,25.09,10.14,28.24,13.87,29.08,3.53,29.27,1.23S81.34,779.67,83.59,776C83.59,776,68.15,770.72,59.1,775.76Z"/><path class="cls-13" d="M178.59,743.76s-1.16,14.18-3.06,15.46,4.78,7.53,8.35,7.82,26,12.12,29.2,16.66,30.24,3.91,30.47,1.07-48-34.31-45.58-38.91C198,745.86,188.1,737.4,178.59,743.76Z"/><path class="cls-12" d="M187.66,563.51s24.49-6.89,35.35,1.67L201.76,750.69s-16.35,4.76-24.4-2Z"/><polygon class="cls-11" points="125.61 570.74 128.83 757.75 16.83 759.36 43.09 572.03 125.61 570.74"/><path class="cls-14" d="M107,200.6c.67.37,4.27,2.3,6.38,1.23,2.28-1.16,2.68-5.75-.7-11l-3-20.9a19,19,0,0,0,11.51,3.58c5.63-.15,10.86-2.84,13.29-6.59a15.41,15.41,0,0,0,2.12-8.3c0-.31,0-.63,0-.94-.09-10.4-1.68-10.41-2.37-16.75a116.5,116.5,0,0,1-.32-18.89c.14-2.26-1.73-4.32-4.63-5.1-10.18-2.76-18.84-2.66-27.61.3C94,119.83,89.92,126,91.63,132c2.53,8.9,5.14,21.76,3.8,34.35a75.43,75.43,0,0,1-2.66,13.1,69.43,69.43,0,0,1-9.26,18.86Z"/><path class="cls-15" d="M97.24,131.77c2.41,7.94,2.9,13.47,2.82,17.28a12.19,12.19,0,0,0,2.54,8.16,8.78,8.78,0,0,0,5.08,3.57c2,.45,3.66.1,6.48-.48,5.21-1.08,5.22-2.23,8-2.2,3,0,3.76,1.41,7.52,1.31a9.22,9.22,0,0,0,3.76-.69,5.34,5.34,0,0,0,3-5,15.76,15.76,0,0,0,3,7.55c1.67,2.1,5.15,1.31,6.06,3.41a17.26,17.26,0,0,1,1.3,6c.51,6.82.77,10.23.42,10.93-3.45,6.88-33.25,13.65-45.59,6.7-7.09-4-12-12.86-11.56-18.21A44.79,44.79,0,0,1,92.5,162c.82-2.22,1.38-4.56.67-6-1.41-2.86.6-5.22.45-5.89C93,147.17,93.17,142,97.24,131.77Z"/><path class="cls-13" d="M115.36,134.12a1.6,1.6,0,0,1-.53,1.6,1.85,1.85,0,0,1-1.7.29s-7.51-1.66-11.24,2.88a1,1,0,0,1-.44.31l-.29.12c-.52.2-1.16,0-1.22-.47a1.15,1.15,0,0,1,.26-1.07S105.67,132.23,115.36,134.12Z"/><path class="cls-13" d="M127,134.28s-.36.92.19,1.43a1.32,1.32,0,0,0,1.37.11s6.52-2.16,8.9,1.69a.62.62,0,0,0,.32.25l.23.08a.93.93,0,0,0,1.09-.54,1,1,0,0,0-.05-1S135.34,131.72,127,134.28Z"/><g class="cls-16"><ellipse class="cls-17" cx="109.91" cy="150.79" rx="3.67" ry="5.31" transform="translate(-42.35 258.67) rotate(-89.23)"/></g><g class="cls-16"><ellipse class="cls-17" cx="129.21" cy="149.1" rx="3.15" ry="4.55" transform="translate(-21.61 276.3) rotate(-89.23)"/></g><path class="cls-4" d="M121.31,139.92a17,17,0,0,0,4.77,7.61c3.44,3.22,7.47,4.67,6.86,5.92-.26.52-1,.39-6.26,1.38-3.56.67-4.8,1-6.21.51-.11,0-2-.75-2-1.93,0-.95,1.25-1.9,3.09-2.18"/><path class="cls-18" d="M121.08,140a17.86,17.86,0,0,0,5.06,7.93,33.65,33.65,0,0,0,4,3c.58.39,3.15,1.73,2.39,2.57-.35.39-1.82.38-2.27.45-1.82.3-3.62.64-5.43,1-1.34.26-2.84.67-4.18.22a3.21,3.21,0,0,1-1.42-.89c-1.37-1.65,1.18-2.56,2.43-2.81.3-.06.18-.52-.13-.46-1.19.24-3.3.89-3.25,2.47,0,1.07,1.23,1.79,2.11,2.11,1.47.53,3.09.1,4.57-.18,2.25-.43,4.52-.77,6.77-1.21,1.79-.35,1.81-1.35.35-2.5-2.09-1.64-4.42-2.88-6.31-4.79a17.07,17.07,0,0,1-4.24-7.05c-.09-.29-.55-.16-.46.13Z"/><path class="cls-14" d="M95.72,133.28c-.26-.09-10.37-2.54-10,6s10.62,6.5,10.63,6.25S95.72,133.28,95.72,133.28Z"/><path class="cls-13" d="M92.94,142.15h-.06a.32.32,0,0,1-.26-.37A4,4,0,0,0,91.17,138a6.6,6.6,0,0,0-2.31-1.22.32.32,0,0,1,.19-.61,7.27,7.27,0,0,1,2.53,1.34,4.67,4.67,0,0,1,1.67,4.42A.31.31,0,0,1,92.94,142.15Z"/><path class="cls-13" d="M93,141.18a.34.34,0,0,1-.17-.05,6,6,0,0,0-2-.81,7.1,7.1,0,0,0-1.14-.14.31.31,0,0,1-.31-.33.33.33,0,0,1,.33-.31,7.24,7.24,0,0,1,1.25.16,6.59,6.59,0,0,1,2.22.89.33.33,0,0,1,.09.45A.32.32,0,0,1,93,141.18Z"/><path class="cls-13" d="M113.77,142.76a.31.31,0,0,1-.2-.07,6,6,0,0,0-3.42-1.2,6.37,6.37,0,0,0-3.55.82.32.32,0,0,1-.44-.12.31.31,0,0,1,.11-.43,7.15,7.15,0,0,1,3.91-.91,6.59,6.59,0,0,1,3.79,1.34.32.32,0,0,1-.2.57Z"/><path class="cls-13" d="M126.11,142.5a.34.34,0,0,1-.21-.08.32.32,0,0,1,0-.45,4.27,4.27,0,0,1,2-1.25,6,6,0,0,1,3-.11.32.32,0,0,1-.15.63,5.23,5.23,0,0,0-2.68.09,3.66,3.66,0,0,0-1.68,1A.33.33,0,0,1,126.11,142.5Z"/><path class="cls-18" d="M121.36,168.66c-2.56,0-5-1.25-7.39-3.72a.63.63,0,0,1,0-.9.64.64,0,0,1,.9,0c2.24,2.35,4.57,3.46,6.93,3.3,4-.27,6.84-4.14,6.87-4.18a.64.64,0,1,1,1,.75c-.13.18-3.22,4.39-7.83,4.71Z"/><path class="cls-4" d="M112.92,196.4s69.42,41.27,42.62,67c0,0,31.08,64.3-17.15,81.45S27.47,343.23,27.47,303.58c0,0-34.59-106.71,57.73-106.41Z"/><circle class="cls-4" cx="59.26" cy="221.66" r="19.77"/><circle class="cls-4" cx="48.58" cy="235.77" r="11.17"/><circle class="cls-4" cx="121.36" cy="225.7" r="19.77"/><path class="cls-6" d="M85.08,191.22s12.5-1.69,16.61,1.34,14.2-.26,14.2-.26,1.79,6.16,1.61,6.78c0,0,64.12,28,40.9,65.2,0,0,20.86,50.37,2.57,66.8,0,0-.82,3,0,3.58s3.09,2.9,1.3,3.92-60.59,33.54-124.86-.17c0,0,.07-4.29,1.14-5s-5.31-6.25-6.08-7.32C32.47,326.08-28.26,200.5,85.08,191.22Z"/><circle class="cls-4" cx="13.24" cy="286.24" r="11.17"/><path class="cls-4" d="M46.94,225.29s-12-1.78-43.27,54.77c0,0,8.53,10.36,18.84,12.14,0,0,41.54-52.84,41.61-66.7A48.1,48.1,0,0,0,46.94,225.29Z"/><path class="cls-11" d="M95.6,327.41l70.87-1S247.25,493,231.71,561.63l-73.41,3.22Z"/><path class="cls-4" d="M23,276.74l89.55,45.73s11.43,13.33-1.91,21c0,0-104.79-41.92-108.6-53.35C2.07,290.08,2.07,269.12,23,276.74Z"/><path class="cls-14" d="M114.77,321.71s21,2.84,22.87,6.05,1.63,1.12,1.27,5.13,3,9.75-3.58,13.2-28.5-3.94-28.5-3.94S103.86,319.82,114.77,321.71Z"/><path class="cls-14" d="M141.18,325.26s-7.66.64-9.89,2.26a3.78,3.78,0,0,0-1.75,3.74s15.57-.22,24.74-5.65c0,0,5.53-3-.5-2.83a12,12,0,0,0-3.93.82A31.66,31.66,0,0,1,141.18,325.26Z"/><path class="cls-14" d="M136.76,343s-7-.95-9.1,0a2.76,2.76,0,0,0-1.8,2.85s14.11,2.85,22.73,0c0,0,6.11-1.79-1.93-2.76a4.33,4.33,0,0,0-1.39.08C144.24,343.41,141.74,343.71,136.76,343Z"/><path class="cls-11" d="M231.71,561.63l8.58,179.76-103.43,2.43,21.44-179S202.78,542.87,231.71,561.63Z"/><path class="cls-14" d="M139.61,330.67s-8.35-.46-10.93,1.24a5,5,0,0,0-2.25,4.47s16.85,2.32,27.31-3.09c0,0,6.07-2.86,0-3.66A11.93,11.93,0,0,0,149,330,29.45,29.45,0,0,1,139.61,330.67Z"/><path class="cls-14" d="M138.08,337.13s-7.77-.8-10,.78a4.59,4.59,0,0,0-1.74,4.36s15.8,3,25-1.94c0,0,4.94-2.37.45-3.49a10.24,10.24,0,0,0-5.1.05A24.8,24.8,0,0,1,138.08,337.13Z"/><path class="cls-14" d="M115.73,324.1s3.3,2.31,4.31,1.2c.88-.95,6.44-3.69,9.31-4.48a3.34,3.34,0,0,0,2.26-2,1.68,1.68,0,0,0-1.3-2.48c-3.24-.92-9.52,1.47-9.52,1.47q-10.16,4-9.8,5.46C111.15,323.9,112.72,324.17,115.73,324.1Z"/><path class="cls-11" d="M91.34,132.64s53.49-8,42.59-16.79c0,0-24.83-10.18-36.26-5.72,0,0,1.56-2.37-2.46-.71s.5,1.83.5,1.83S70.37,130.49,91.34,132.64Z"/><path class="cls-19" d="M118.91,126.94s19-5.2,23.15-4.57C142.06,122.37,138.8,111.69,118.91,126.94Z"/><circle class="cls-14" cx="111.06" cy="332.35" r="10.52"/><path class="cls-5" d="M70.58,223.08,40.32,278.92l69.93,36.17s-3.51,25.73-10.45,25L8.31,298.23s-17.74-13,.7-29.5l32.68-47.31S59.45,200.61,70.58,223.08Z"/><path class="cls-6" d="M69.17,223.86l-31.08,56.8,71.82,36.8s-3.6,26.18-10.73,25.41L5.7,298.41s-13-14,.24-28.11L39.5,222.18S57.74,201,69.17,223.86Z"/><path class="cls-5" d="M157.82,229.52a116.25,116.25,0,0,0-26-22.17c-1-.6-1.83.91-.88,1.51a114.18,114.18,0,0,1,25.66,21.9c.74.85,2-.39,1.24-1.24Z"/><path class="cls-5" d="M155.86,264.07a126.4,126.4,0,0,0-45.48.42c-1.1.21-.64,1.9.47,1.68a123.93,123.93,0,0,1,44.54-.41c1.1.19,1.58-1.49.47-1.69Z"/><path class="cls-5" d="M35.05,279.92l-12-.17a.88.88,0,0,0,0,1.75l12,.17a.88.88,0,0,0,0-1.75Z"/><path class="cls-5" d="M33.62,282.89a38.49,38.49,0,0,0-10.4,1.43.87.87,0,0,0,.46,1.68,36.73,36.73,0,0,1,9.94-1.36.88.88,0,0,0,0-1.75Z"/><path class="cls-5" d="M17.62,254.59a121.15,121.15,0,0,1,27-34c.85-.74-.4-2-1.24-1.24a122.68,122.68,0,0,0-27.29,34.36c-.53,1,1,1.87,1.51.88Z"/><path class="cls-5" d="M40.54,219.72a24.91,24.91,0,0,1,15.3-8.33c1.11-.17.63-1.85-.47-1.69a26.49,26.49,0,0,0-16.07,8.78c-.74.85.49,2.09,1.24,1.24Z"/><path class="cls-5" d="M25.37,309.45c22.71,10.17,45.44,20.35,67.55,31.78l4.52,2.35a8.3,8.3,0,0,0,3.43,1.24,2.9,2.9,0,0,0,3.09-3.56.88.88,0,0,0-1.46-.39l-1.85,1.57c-.86.72.39,2,1.24,1.23l1.85-1.56-1.46-.39c.6,2.08-2.45,1.11-3.15.78s-1.54-.81-2.31-1.22c-1.61-.84-3.21-1.67-4.83-2.49-3-1.55-6-3.08-9.09-4.59q-9.27-4.59-18.65-9c-12.6-5.91-25.3-11.6-38-17.28-1-.46-1.91,1.05-.88,1.51Z"/><path class="cls-20" d="M65.48,359.32a43.84,43.84,0,0,1-20.55,32.73c-1,.59-.08,2.1.89,1.51a45.72,45.72,0,0,0,21.41-34.24c.11-1.12-1.64-1.12-1.75,0Z"/><path class="cls-20" d="M160.26,347.38a59.21,59.21,0,0,0,24.55,29.79.87.87,0,0,0,.88-1.51A57.22,57.22,0,0,1,162,346.91c-.39-1-2.09-.59-1.69.47Z"/><path class="cls-20" d="M47,569.11l11.43-.71c1.12-.07,1.13-1.82,0-1.75L47,567.36c-1.12.07-1.13,1.82,0,1.75Z"/><path class="cls-20" d="M49.88,577l11.43-.71c1.12-.07,1.12-1.82,0-1.75l-11.43.71c-1.12.07-1.13,1.82,0,1.75Z"/><path class="cls-20" d="M160.85,563.37l9.29-2.86c1.07-.33.62-2-.46-1.69l-9.29,2.86c-1.07.33-.62,2,.46,1.69Z"/><path class="cls-20" d="M167.28,566.22l8.58-1.42c1.11-.19.64-1.88-.47-1.69l-8.57,1.43c-1.11.18-.64,1.87.46,1.68Z"/><path class="cls-20" d="M129.74,457.51a191.6,191.6,0,0,1,6.79-54.32.87.87,0,0,0-1.68-.46A193.31,193.31,0,0,0,128,457.51a.88.88,0,0,0,1.75,0Z"/><path class="cls-7" d="M185.75,314.78a12.73,12.73,0,0,0,3.27.92,13.24,13.24,0,0,0,4.18-.09"/><path class="cls-4" d="M733.05,135.41c-.26-.1-10.38-2.71-10,6.41s10.63,7,10.64,6.68S733.05,135.41,733.05,135.41Z"/><path class="cls-21" d="M696,323.7h95.17L783.39,569l-82.52,1.3S681.58,332.44,696,323.7Z"/><polygon class="cls-21" points="783.39 568.95 786.6 755.96 674.61 757.57 700.87 570.25 783.39 568.95"/><path class="cls-4" d="M671.93,352s72.41,5.39,79.81,26.9l-16.35,216.2s-29.45,5.12-35.78-2.93C699.61,592.2,668.55,406.6,671.93,352Z"/><path class="cls-11" d="M669.59,323.69h95.16L756.93,569l-82.52,1.29S655.12,332.44,669.59,323.69Z"/><circle class="cls-4" cx="717.16" cy="594.57" r="18.21"/><circle class="cls-4" cx="702.21" cy="778.33" r="12.14"/><path class="cls-12" d="M700,594.38s24.49-6.89,35.35,1.67L714.06,781.56s-16.35,4.76-24.4-2Z"/><path class="cls-13" d="M690.42,774s-.94,11.48-2.75,12.49,4.68,6.16,8.11,6.45,25.09,10.14,28.24,13.86,29.08,3.54,29.27,1.24-40.63-30.13-38.38-33.83C714.91,774.18,699.47,768.93,690.42,774Z"/><path class="cls-13" d="M721.83,755.1s-.94,11.49-2.75,12.5,4.68,6.16,8.11,6.44,25.09,10.14,28.24,13.87,29.08,3.53,29.27,1.23S744.07,759,746.32,755.31C746.32,755.31,730.88,750.07,721.83,755.1Z"/><polygon class="cls-11" points="756.93 568.95 760.14 755.96 648.15 757.57 674.41 570.24 756.93 568.95"/><path class="cls-14" d="M737.36,199.25c.66.37,4.26,2.3,6.38,1.23,2.28-1.16,2.67-5.75-.71-11q-1.49-10.44-3-20.9a18.93,18.93,0,0,0,11.5,3.58c5.64-.15,10.87-2.83,13.29-6.59a15.44,15.44,0,0,0,2.13-8.29c0-.31,0-.64-.05-.95,0-2.21.19-4.94-.44-7.08-.53-1.79-1.66-3.27-2.23-5.19-.85-2.84-3.18-5.13-3.67-8-.22-1.32-.05-2.67-.16-4a18.55,18.55,0,0,0-1.19-4.6c-1.47-4.22-2.68-8.49-5.5-12-2-2.52-7.18-1.85-10.2-1.7A43.15,43.15,0,0,0,732,115.9c-7.65,2.58-11.73,8.74-10,14.76,2.53,8.9,5.15,21.77,3.8,34.35a76.41,76.41,0,0,1-2.65,13.11A69.77,69.77,0,0,1,713.85,197Z"/><path class="cls-15" d="M733.82,138.51c.92.81,1,2.17,1.28,3.37a19.84,19.84,0,0,0,2.28,5.69,54.75,54.75,0,0,0,3.6,5.71,12.73,12.73,0,0,0,3.47,3.58c2.84,1.75,4.92-.08,7.83-.11,1.81,0,3.23,1.05,5,1.24a29.41,29.41,0,0,0,7.84-.29c1.28-.22,2.85-.42,3.66.6a11.6,11.6,0,0,1,.68,1.25c1.4,2.24,5.37,1.42,6.39,3.78a16.81,16.81,0,0,1,1.3,6c.52,6.82.77,10.24.42,10.93a5,5,0,0,1-.63.94c-4.55,5.63-15.28,7.19-21.9,8.08a55.82,55.82,0,0,1-14.32.26c-4.1-.51-9.89-2-11-6.63a29.32,29.32,0,0,1-.37-3.11,26.43,26.43,0,0,0-1.31-5.07l-2.53-7.61c-.65-2-1.31-4.05-.88-6.07.6-2.89,3.25-4.93,4.24-7.71a10.33,10.33,0,0,1,.75-2,23.23,23.23,0,0,1,1.53-1.76,8.16,8.16,0,0,0,1.23-3.49Z"/><path class="cls-13" d="M755,131.09a1.63,1.63,0,0,1-.53,1.6,1.87,1.87,0,0,1-1.7.28s-7.51-1.66-11.24,2.89a1.2,1.2,0,0,1-.44.31l-.3.11c-.52.2-1.15,0-1.22-.47a1.16,1.16,0,0,1,.27-1.07S745.32,129.2,755,131.09Z"/><g class="cls-16"><ellipse class="cls-17" cx="751.07" cy="148.25" rx="3.67" ry="5.31" transform="translate(592.75 897.25) rotate(-89.23)"/></g><path class="cls-22" d="M761.38,140.4a16.92,16.92,0,0,0,4.77,7.62c3.44,3.22,7.47,4.67,6.86,5.91-.26.52-1,.39-6.26,1.38-3.57.68-4.8,1-6.21.52-.11,0-2-.75-1.95-1.94,0-.95,1.25-1.89,3.09-2.17"/><path class="cls-22" d="M761.15,140.47a17.83,17.83,0,0,0,5.06,7.92,33.73,33.73,0,0,0,4,3c.58.39,3.15,1.73,2.39,2.57-.35.38-1.82.38-2.27.45-1.82.3-3.62.64-5.43,1-1.34.25-2.84.67-4.18.21a3.1,3.1,0,0,1-1.42-.88c-1.37-1.65,1.18-2.56,2.43-2.81.3-.06.18-.52-.13-.46-1.19.23-3.3.88-3.25,2.47,0,1.06,1.23,1.78,2.11,2.1,1.47.53,3.09.11,4.57-.17,2.25-.43,4.52-.77,6.77-1.21,1.79-.35,1.81-1.36.35-2.5-2.09-1.64-4.42-2.88-6.31-4.79a17.14,17.14,0,0,1-4.24-7,.24.24,0,0,0-.46.13Z"/><path class="cls-13" d="M731.56,144.89h-.06a.35.35,0,0,1-.26-.4,4.42,4.42,0,0,0-1.45-4.09,6.55,6.55,0,0,0-2.31-1.29.35.35,0,0,1-.21-.43.32.32,0,0,1,.4-.23,7.24,7.24,0,0,1,2.53,1.43,5.22,5.22,0,0,1,1.67,4.73A.32.32,0,0,1,731.56,144.89Z"/><path class="cls-13" d="M731.61,143.85a.26.26,0,0,1-.17,0,5.75,5.75,0,0,0-2-.87,6.34,6.34,0,0,0-1.15-.14.34.34,0,0,1-.31-.36.33.33,0,0,1,.33-.33,7.49,7.49,0,0,1,1.26.16,6.46,6.46,0,0,1,2.21,1,.36.36,0,0,1,.09.48A.31.31,0,0,1,731.61,143.85Z"/><path class="cls-13" d="M753.42,139.73a.37.37,0,0,1-.2-.07,6,6,0,0,0-3.43-1.21,6.52,6.52,0,0,0-3.55.82.31.31,0,0,1-.43-.11.32.32,0,0,1,.11-.44,7.2,7.2,0,0,1,3.9-.91,6.62,6.62,0,0,1,3.8,1.35.33.33,0,0,1,0,.45A.33.33,0,0,1,753.42,139.73Z"/><circle class="cls-4" cx="690.58" cy="219.87" r="19.77"/><circle class="cls-4" cx="679.9" cy="233.98" r="11.17"/><circle class="cls-4" cx="752.68" cy="223.91" r="19.77"/><path class="cls-6" d="M712.51,189.43s12.5-1.69,16.61,1.34,14.2-.27,14.2-.27,1.78,6.17,1.6,6.79c0,0,64.13,28.05,40.91,65.2,0,0,20.86,50.37,2.57,66.8,0,0-.83,3,0,3.57s3.08,2.91,1.3,3.93-60.6,33.53-124.87-.18c0,0,.07-4.28,1.15-5s-5.31-6.25-6.08-7.32c-2.46-3.44-3.75-8.66-5.2-12.57-3.26-8.79-7.68-19.33-8.36-28.65-.76-10.41,2.94-23,5.85-32.94a120.49,120.49,0,0,1,13.5-30.4c3.26-5.16,6.94-10,10.62-14.9a28.82,28.82,0,0,1,4.65-5.2c2.63-2.1,5.9-3.19,9.1-4.24C697.55,192.93,704.63,190.07,712.51,189.43Z"/><circle class="cls-4" cx="644.56" cy="284.45" r="11.17"/><path class="cls-4" d="M678.25,223.5s-12-1.78-43.27,54.77c0,0,8.54,10.36,18.85,12.13,0,0,41.54-52.83,41.61-66.69A48.15,48.15,0,0,0,678.25,223.5Z"/><path class="cls-4" d="M654.34,275l89.56,45.73S755.33,334,742,341.63c0,0-104.79-41.91-108.61-53.35C633.38,288.28,633.38,267.32,654.34,275Z"/><path class="cls-14" d="M746.09,319.92s21,2.83,22.87,6.05,1.63,1.11,1.27,5.13,3,9.74-3.58,13.2-28.5-3.94-28.5-3.94S735.18,318,746.09,319.92Z"/><path class="cls-14" d="M772.5,323.47s-7.66.64-9.89,2.26a3.78,3.78,0,0,0-1.75,3.74s15.56-.22,24.74-5.65c0,0,5.53-3-.5-2.83a11.74,11.74,0,0,0-3.93.82A32.06,32.06,0,0,1,772.5,323.47Z"/><path class="cls-14" d="M768.07,341.24s-7-.95-9.09,0a2.76,2.76,0,0,0-1.8,2.85s14.11,2.84,22.73,0c0,0,6.11-1.79-1.93-2.76a4,4,0,0,0-1.39.08C775.56,341.62,773.06,341.91,768.07,341.24Z"/><path class="cls-14" d="M770.93,328.88s-8.35-.47-10.93,1.23a5,5,0,0,0-2.26,4.48s16.86,2.32,27.31-3.09c0,0,6.08-2.86.06-3.66a11.73,11.73,0,0,0-4.75.38A29.49,29.49,0,0,1,770.93,328.88Z"/><path class="cls-14" d="M769.39,335.34s-7.77-.8-10,.78a4.59,4.59,0,0,0-1.74,4.36s15.79,3,25-2c0,0,4.93-2.36.45-3.48a10.24,10.24,0,0,0-5.1.05A24.84,24.84,0,0,1,769.39,335.34Z"/><path class="cls-14" d="M747.05,322.31s3.3,2.31,4.31,1.2c.88-.95,6.43-3.69,9.31-4.48a3.36,3.36,0,0,0,2.26-2,1.68,1.68,0,0,0-1.3-2.47c-3.24-.93-9.52,1.47-9.52,1.47q-10.15,4-9.8,5.46C742.46,322.11,744,322.38,747.05,322.31Z"/><path class="cls-11" d="M721.69,131.29s53.48-8,42.58-16.79c0,0-24.82-10.18-36.25-5.72,0,0,1.56-2.36-2.46-.71s.49,1.83.49,1.83S700.71,129.15,721.69,131.29Z"/><path class="cls-19" d="M749.25,125.59s19-5.2,23.15-4.57C772.4,121,769.15,110.34,749.25,125.59Z"/><circle class="cls-14" cx="742.38" cy="330.56" r="10.52"/><path class="cls-5" d="M701.9,221.29l-30.26,55.83,69.93,36.17s-3.51,25.74-10.45,25l-91.49-41.84s-17.74-13,.7-29.5L673,219.63S690.77,198.82,701.9,221.29Z"/><path class="cls-6" d="M700.49,222.07l-31.08,56.8,71.82,36.8s-3.6,26.17-10.74,25.41L637,296.61s-13-13.94.24-28.1l33.56-48.13S689.05,199.21,700.49,222.07Z"/><path class="cls-5" d="M784.3,227.73a116.24,116.24,0,0,0-26-22.18c-1-.59-1.84.92-.88,1.51A114.92,114.92,0,0,1,783.07,229c.74.85,2-.39,1.23-1.24Z"/><path class="cls-5" d="M787.18,262.28a126.4,126.4,0,0,0-45.48.42c-1.1.21-.64,1.89.46,1.68a124,124,0,0,1,44.55-.41c1.1.19,1.57-1.5.47-1.69Z"/><path class="cls-5" d="M666.37,278.13l-12-.17a.88.88,0,0,0,0,1.75l12,.17a.88.88,0,0,0,0-1.75Z"/><path class="cls-5" d="M664.94,281.1a38.48,38.48,0,0,0-10.4,1.42.88.88,0,0,0,.46,1.69,36.73,36.73,0,0,1,9.94-1.36.88.88,0,0,0,0-1.75Z"/><path class="cls-5" d="M648.94,252.8a121,121,0,0,1,27-34c.84-.74-.4-2-1.24-1.24a122.68,122.68,0,0,0-27.29,34.36c-.53,1,1,1.87,1.51.88Z"/><path class="cls-5" d="M671.85,217.93a25,25,0,0,1,15.3-8.33c1.11-.17.64-1.85-.46-1.69a26.44,26.44,0,0,0-16.07,8.78c-.74.85.49,2.09,1.23,1.24Z"/><path class="cls-5" d="M656.68,307.65c22.72,10.18,45.44,20.36,67.56,31.79,1.51.77,3,1.56,4.51,2.35a8.39,8.39,0,0,0,3.44,1.24,2.9,2.9,0,0,0,3.09-3.56.88.88,0,0,0-1.46-.39L732,340.64c-.86.73.38,2,1.24,1.24l1.85-1.56-1.46-.39c.6,2.08-2.45,1.1-3.15.77s-1.54-.81-2.32-1.21q-2.4-1.26-4.82-2.5-4.53-2.33-9.09-4.58-9.27-4.59-18.65-9c-12.6-5.91-25.3-11.6-38-17.29-1-.45-1.91,1.05-.89,1.51Z"/><path class="cls-20" d="M696.8,357.52a43.86,43.86,0,0,1-20.55,32.74.88.88,0,0,0,.89,1.51,45.72,45.72,0,0,0,21.41-34.25c.11-1.12-1.64-1.11-1.75,0Z"/><path class="cls-20" d="M678.34,567.32l11.43-.71c1.12-.07,1.13-1.82,0-1.75l-11.43.71c-1.12.07-1.13,1.82,0,1.75Z"/><path class="cls-20" d="M681.2,575.18l11.43-.71c1.12-.07,1.12-1.82,0-1.75l-11.43.71c-1.12.07-1.13,1.82,0,1.75Z"/><path class="cls-23" d="M767,165s-8.09,3-10-.8"/><path class="cls-10" d="M466.72,294.18c.74,0,2.3,9.89,2,20.13-.22,7.46-1.46,16.41-2.18,16.38-.16,0-.27-.44-.35-.84C465.65,300.94,466.12,294.22,466.72,294.18Z"/><path class="cls-14" d="M448.14,132.11c1.68-2.15,5,1.18,5.2,4.2.25,3.22.13,7.49-3.55,8.29-2.7.58-2.47-.4-2.48-2.39,0-2.69-.52-6.06.17-8.66A3.79,3.79,0,0,1,448.14,132.11Z"/><path class="cls-14" d="M404.86,130.77c-1.68-2.14-5,1.19-5.2,4.2-.25,3.22-.13,7.49,3.55,8.29,2.7.58,2.47-.4,2.48-2.39,0-2.68.52-6.06-.17-8.65A3.77,3.77,0,0,0,404.86,130.77Z"/><path class="cls-12" d="M488.48,590.82s-24.49-6.9-35.35,1.66L474.38,778s16.35,4.76,24.4-2Z"/><path class="cls-11" d="M423.69,320.12H480c7.37,0,9.25-.12,13.87,6.21A57.41,57.41,0,0,1,501,340.5c3.2,8.73,6.9,17.76,10,26.27,2.83,7.89,2.06,18.17,2.52,26.65q2.19,40.9,2.2,81.89c0,30.26.77,61.37-1.66,91.36L540.3,754l-112-1.61,3.22-187Z"/><circle class="cls-4" cx="384.98" cy="590.92" r="18.21"/><path class="cls-12" d="M367.78,590.74s24.49-6.9,35.35,1.67L381.88,777.92s-16.35,4.75-24.4-2Z"/><path class="cls-11" d="M432.57,320.05H376.28c-7.37,0-9.25-.13-13.86,6.2a57.33,57.33,0,0,0-7.18,14.18c-3.2,8.72-6.89,17.75-9.95,26.27-2.84,7.89-2.07,18.16-2.52,26.64q-2.2,40.91-2.21,81.9c0,30.26-.77,61.37,1.67,91.36L316,753.92l112-1.6-3.21-187Z"/><path class="cls-14" d="M425.83,177.41a18.18,18.18,0,0,0,5.77.81c5.63-.15,10.86-2.84,13.29-6.59,1.41-2.18,1.33-3.74,1.42-6.09s2.23-3.81,2.25-6.48c.05-4.41.1-8.83.11-13.24,0-6.22-.06-12.64-2.64-18.3-1.12-2.46-3.71-5.15-6.37-5.87a52.64,52.64,0,0,0-15.59-1.93,21.14,21.14,0,0,0-7.21,1.18c-1.9.78-3.43.56-5.44,1-2.61.53-4.44,2.93-5.45,5.4a17.86,17.86,0,0,0-1.33,6.85c0,2.15-.35,4.26-.32,6.44.05,4.9.94,9.74,1.22,14.63s-1.63,11.22,2.57,15.11a7.4,7.4,0,0,0,2.86,1.42,73,73,0,0,1,10.81,4A25.28,25.28,0,0,0,425.83,177.41Z"/><path class="cls-15" d="M403.71,136.79c1.46.92,1.59,2.94,1.83,4.64a27.93,27.93,0,0,0,1.57,5.08,14.2,14.2,0,0,1,.36,4.7,12.27,12.27,0,0,0,2.54,8.16,8.76,8.76,0,0,0,5.08,3.56c2,.46,3.67.11,6.49-.48,5.2-1.07,5.21-2.22,8-2.19,3,0,3.77,1.41,7.53,1.3a9.42,9.42,0,0,0,3.76-.68c2.52-1.18,2.84-4.11,4.75-5.89a4.3,4.3,0,0,0,1.13-1.28,3.28,3.28,0,0,0,.19-1.36l-.06-6.88a17.63,17.63,0,0,1,.24-3.78,4.73,4.73,0,0,0,.19-2.46,38.58,38.58,0,0,1,1.47,7.41c.05.82.05,1.64.16,2.45a18.37,18.37,0,0,0,1,3.78l3.06,8.88a13.57,13.57,0,0,1,.63,2.24,13.83,13.83,0,0,1,.12,2.23,17.31,17.31,0,0,0,0,3.6,23,23,0,0,1,.45,3c.51,6.82.77,10.23.42,10.93-3.45,6.87-33.25,13.65-45.59,6.69-7.09-4-12-12.86-11.55-18.21a23.92,23.92,0,0,1,1.44-5.43c.4-1.24,1.06-2.34,1.5-3.51.54-1.44.09-3.09.25-4.58a17.42,17.42,0,0,1,.83-3.25,51,51,0,0,0,1.57-8.87l.6-5.2A13.22,13.22,0,0,0,403.71,136.79Z"/><path class="cls-13" d="M423.15,132.83a1.61,1.61,0,0,1-.53,1.6,1.83,1.83,0,0,1-1.7.28s-7.51-1.65-11.24,2.89a1.2,1.2,0,0,1-.44.31L409,138c-.52.2-1.16,0-1.22-.47a1.15,1.15,0,0,1,.26-1.07S413.46,130.94,423.15,132.83Z"/><g class="cls-16"><ellipse class="cls-17" cx="417.7" cy="149.5" rx="3.67" ry="5.31" transform="translate(262.6 565.15) rotate(-89.23)"/></g><path class="cls-13" d="M421.56,141.47a.37.37,0,0,1-.2-.07,6,6,0,0,0-3.43-1.21,6.45,6.45,0,0,0-3.54.82.32.32,0,0,1-.33-.55,7.24,7.24,0,0,1,3.91-.91,6.58,6.58,0,0,1,3.79,1.35.32.32,0,0,1-.2.57Z"/><path class="cls-13" d="M432.3,131.49a1.61,1.61,0,0,0,.53,1.6,1.85,1.85,0,0,0,1.7.29s7.51-1.66,11.24,2.88a1,1,0,0,0,.44.31l.29.12c.52.2,1.16-.05,1.22-.47a1.15,1.15,0,0,0-.26-1.07S442,129.6,432.3,131.49Z"/><g class="cls-16"><ellipse class="cls-17" cx="437.75" cy="148.16" rx="5.31" ry="3.67" transform="translate(-1.95 5.89) rotate(-0.77)"/></g><path class="cls-13" d="M433.89,140.13a.31.31,0,0,0,.2-.07,6,6,0,0,1,3.42-1.2,6.39,6.39,0,0,1,3.55.81.31.31,0,0,0,.44-.11.32.32,0,0,0-.11-.44,7.26,7.26,0,0,0-3.91-.9,6.59,6.59,0,0,0-3.79,1.34.32.32,0,0,0,.2.57Z"/><path class="cls-18" d="M427.62,169.15c-2.56,0-5-1.24-7.39-3.71a.64.64,0,0,1,.92-.88c2.24,2.35,4.57,3.46,6.93,3.3,4-.28,6.85-4.15,6.88-4.19a.64.64,0,1,1,1,.75c-.13.18-3.21,4.4-7.82,4.71A5.06,5.06,0,0,1,427.62,169.15Z"/><path class="cls-18" d="M427.88,154.37a4.47,4.47,0,0,1-3.21-1.61.28.28,0,0,1,0-.39.26.26,0,0,1,.39,0,3.85,3.85,0,0,0,3,1.43,4.67,4.67,0,0,0,3-1.82.27.27,0,0,1,.38-.06.28.28,0,0,1,.07.39,5.18,5.18,0,0,1-3.4,2Z"/><circle class="cls-4" cx="347.72" cy="230.34" r="11.17"/><path class="cls-6" d="M505.48,339.86c-1.05-.57,0-3.79,0-3.79,23.32-17.43-3.27-70.87-3.27-70.87,4.21-5.6,7-12.34,6.37-19.45-.33-3.83-1.37-5.57.25-9.25,1.49-3.38,3.3-6.6,4.73-10,3.48-8.29,4-16.51-4.81-21.09-9.1-4.72-19.08-6.7-29.25-7.22-2.81-.16-29.18,1.37-29.44-2.15-.05-.72-1.81-7.26-2.07-7.18-2.41.65-5,.71-7.38,1.38-2.91.82-5.07,1.88-8.27,1.89l-6.62,0c-4.2,0-6.92-.86-10.67-2.28-.45-.17-7.75-1.53-7.74-1.57-.54,1.56-1.09,3.13-1.53,4.72-.12.43-.27,2.18-.6,2.45-1.3,1.07-7.53,0-9.2.06-4.51.07-9-.13-13.53-.2-8.66-.16-17.56,0-25.74,3.26a22.61,22.61,0,0,0-8.25,5.24,31.43,31.43,0,0,0-4.23,6.26c-3.89,6.86-4.17,13.42-1.45,20.85,1.23,3.34,4.76,6.83,4.63,10.38-.14,3.86-1.07,7.1-.22,11.05a31.8,31.8,0,0,0,5.91,12.29s-26.59,53.44-3.27,70.87c0,0,1.05,3.22,0,3.79s-3.94,3.08-1.66,4.17c13.1,6.25,27.88,9.87,42.06,12.46,9.87,1.8,24.31,5.42,35.2,4.81.13,0,.25.07.39.09,11.09,2.06,28.11-2.31,39.26-4.35,14.19-2.6,29-6.21,42.06-12.46C509.42,342.94,506.54,340.43,505.48,339.86Z"/><circle class="cls-4" cx="312.37" cy="280.8" r="11.17"/><path class="cls-4" d="M346.07,219.86s-12-1.79-43.27,54.76c0,0,8.54,10.36,18.84,12.14,0,0,41.54-52.84,41.62-66.7A48,48,0,0,0,346.07,219.86Z"/><path class="cls-11" d="M412.49,129c7.49-.3,15-1.43,22.51-1.29,3,0,6-.16,9-.19a32.41,32.41,0,0,0,4.38-.48c1.68-.25,2.52,0,2.85-1.6.5-2.49-1.24-5.65-3.27-7-.48-.31-1-.55-1.47-.87a66.86,66.86,0,0,0-8.7-5,46.1,46.1,0,0,0-5.39-2.25c-1-.32-4.31-1.63-5.23-1,0,0,2.38-1.54-2-1.63s-.28,1.87-.28,1.87c-1.13-.54-5.63,1.67-6.8,2.12a26.88,26.88,0,0,0-6.05,2.94,50.29,50.29,0,0,1-5.53,3.36c-1.53.8-3.66,1.39-4.72,2.82a10.86,10.86,0,0,0-2.13,6.8C399.83,130.28,410.7,129,412.49,129Z"/><path class="cls-19" d="M409.27,128.86s27.21-2.43,32.71-.72C442,128.14,439.75,113.73,409.27,128.86Z"/><path class="cls-14" d="M452.93,324.19a11.74,11.74,0,0,0-4.75.39,29.67,29.67,0,0,1-9.44.65l-.48,0c0-.1,0-.2,0-.28,4.91-.76,10.76-2.16,15.14-4.76,0,0,5.54-3-.5-2.83a12.1,12.1,0,0,0-3.93.82,31.73,31.73,0,0,1-8.66,1.67,53.45,53.45,0,0,0-6,.88,68.11,68.11,0,0,0-11.55-3,37.5,37.5,0,0,1,5.73-2.34,3.34,3.34,0,0,0,2.26-2,1.68,1.68,0,0,0-1.31-2.47c-3.23-.93-9.51,1.46-9.51,1.46a53.37,53.37,0,0,0-8.42,3.91,5.47,5.47,0,0,0-.58.15l-.42,0L322.16,271.3c-21-7.62-21,13.34-21,13.34,3.32,9.94,83.06,43,103.74,51.38a9.4,9.4,0,0,0,1,.51c0,.11,0,.18,0,.18s1.19.4,3.07,1l.78.31.09-.06c5.65,1.66,16,4.32,22,3.48,4.8.45,11.15.59,15.87-1,0,0,6.11-1.8-1.93-2.77a4.39,4.39,0,0,0-1.4.08,22.2,22.2,0,0,1-6.73.05.86.86,0,0,0,.07-.1c4.35-.14,9.07-.84,12.76-2.81,0,0,4.93-2.37.44-3.49a10.32,10.32,0,0,0-5.09.05,23.05,23.05,0,0,1-7.45.35l-.06-.5c4.85-.3,10.23-1.22,14.53-3.45C452.87,327.85,459,325,452.93,324.19Z"/><path class="cls-5" d="M369.72,217.64l-30.27,55.84,69.94,36.17s-3.51,25.73-10.46,25l-91.48-41.84s-17.74-13,.7-29.5L340.83,216S358.58,195.17,369.72,217.64Z"/><path class="cls-6" d="M368.3,218.42l-31.08,56.8L409.05,312s-3.61,26.18-10.74,25.41L304.83,293s-13-13.94.24-28.11l33.56-48.12S356.87,195.56,368.3,218.42Z"/><path class="cls-5" d="M503.16,244a116,116,0,0,0-26-22.18c-.95-.6-1.83.91-.88,1.51a114.44,114.44,0,0,1,25.66,21.9c.74.85,2-.39,1.24-1.23Z"/><path class="cls-5" d="M496.38,262.62a126.17,126.17,0,0,0-45.48.41c-1.1.21-.64,1.9.47,1.69a123.93,123.93,0,0,1,44.54-.42c1.1.19,1.57-1.49.47-1.68Z"/><path class="cls-5" d="M334.19,274.49l-12-.17a.88.88,0,0,0,0,1.75l12,.16a.87.87,0,0,0,0-1.74Z"/><path class="cls-5" d="M332.76,277.46a38.16,38.16,0,0,0-10.41,1.42.88.88,0,0,0,.47,1.69,35.91,35.91,0,0,1,9.94-1.36.88.88,0,0,0,0-1.75Z"/><path class="cls-5" d="M316.76,249.15a121.11,121.11,0,0,1,27-34c.85-.74-.39-2-1.23-1.23a122.13,122.13,0,0,0-27.29,34.35c-.54,1,1,1.88,1.51.88Z"/><path class="cls-5" d="M339.67,214.28A25,25,0,0,1,355,206c1.11-.16.64-1.85-.46-1.69a26.47,26.47,0,0,0-16.08,8.79c-.73.84.5,2.08,1.24,1.23Z"/><path class="cls-5" d="M324.5,304c22.71,10.17,45.44,20.35,67.56,31.78l4.51,2.35a8.26,8.26,0,0,0,3.43,1.24,2.9,2.9,0,0,0,3.1-3.56.89.89,0,0,0-1.46-.39L399.79,337c-.86.73.38,2,1.24,1.24l1.85-1.57-1.47-.39c.61,2.08-2.44,1.11-3.14.78s-1.55-.81-2.32-1.21c-1.6-.84-3.21-1.68-4.82-2.5Q386.6,331,382,328.77q-9.27-4.61-18.65-9c-12.6-5.91-25.3-11.6-38-17.29-1-.46-1.91,1.05-.88,1.51Z"/><path class="cls-14" d="M455.58,354.16a11.81,11.81,0,0,1,4.41-1.79,29.45,29.45,0,0,0,8.72-3.67l.42-.23a2,2,0,0,1-.13-.25c-4.73,1.54-10.58,2.91-15.66,2.57,0,0-6.31-.22-.83-2.75a11.88,11.88,0,0,1,3.88-1,31.86,31.86,0,0,0,8.48-2.41,53.48,53.48,0,0,1,5.77-1.92,67.41,67.41,0,0,1,9-7.86,36.73,36.73,0,0,0-6.17.48,3.36,3.36,0,0,1-2.92-.76,1.68,1.68,0,0,1,.06-2.8c2.46-2.28,9.15-3,9.15-3a53.28,53.28,0,0,1,9.28-.3c.19,0,.39-.1.58-.13s.24-.14.37-.2l58.59-80.06c15.28-16.24,24.72,2.48,24.72,2.48,1.51,10.38-54.84,75.75-69.51,92.57a10.16,10.16,0,0,1-.67.91l.06.17s-.88.89-2.3,2.25l-.56.62h-.1c-4.31,4-12.39,11.08-18.05,13-4.08,2.55-9.69,5.54-14.61,6.27,0,0-6.26,1.15.49-3.34a4.24,4.24,0,0,1,1.27-.56,22.48,22.48,0,0,0,6-3l-.11-.06c-4,1.83-8.48,3.33-12.66,3.23,0,0-5.47.11-2-2.91a10.3,10.3,0,0,1,4.57-2.26,23.17,23.17,0,0,0,6.81-3c-.06-.16-.12-.32-.17-.48-4.47,1.91-9.69,3.52-14.53,3.47C457.28,357.41,450.57,357.59,455.58,354.16Z"/><path class="cls-6" d="M481.93,221.56l52.16,36.24-46.18,63.78s14.72,21.4,20.58,17.6l62.87-78.53s10-19.59-13.9-26L507,207.08S481.76,196.48,481.93,221.56Z"/><path class="cls-5" d="M539.24,256.33l10.61-5.54a.88.88,0,0,1,.79,1.57L540,257.89a.87.87,0,0,1-.79-1.56Z"/><path class="cls-5" d="M541.85,258.34a38.34,38.34,0,0,1,9.94-3.41.87.87,0,0,1,.34,1.71,37,37,0,0,0-9.49,3.26.87.87,0,0,1-.79-1.56Z"/><path class="cls-5" d="M543.41,229A121,121,0,0,0,504,210.83c-1.09-.28-.54-1.94.55-1.66a122.4,122.4,0,0,1,39.83,18.39c.92.65,0,2.12-1,1.47Z"/><path class="cls-5" d="M507.25,205a25,25,0,0,0-17.41-.56c-1.07.36-1.41-1.36-.35-1.71a26.41,26.41,0,0,1,18.31.61c1,.42.49,2.08-.55,1.66Z"/><path class="cls-5" d="M559.27,276.13c-15.7,19.31-31.41,38.63-46,58.79-1,1.37-2,2.75-3,4.13a8.37,8.37,0,0,1-2.51,2.65,2.91,2.91,0,0,1-4.37-1.79.89.89,0,0,1,1.13-1l2.36.57c1.09.26.54,1.92-.55,1.66l-2.35-.57,1.13-1c.39,2.13,2.68-.12,3.15-.73s1-1.42,1.53-2.12q1.57-2.21,3.18-4.4,3-4.11,6-8.19,6.22-8.26,12.62-16.41c8.59-11,17.37-21.74,26.15-32.54.71-.87,2.18.08,1.47.95Z"/><path class="cls-20" d="M364.62,353.88a43.87,43.87,0,0,1-20.55,32.73c-1,.59-.08,2.1.88,1.51a45.72,45.72,0,0,0,21.42-34.24c.11-1.12-1.64-1.11-1.75,0Z"/><path class="cls-20" d="M346.16,563.68l11.43-.72c1.11-.07,1.12-1.82,0-1.75l-11.43.72c-1.12.07-1.13,1.82,0,1.75Z"/><path class="cls-20" d="M349,571.53l11.43-.71c1.12-.07,1.13-1.82,0-1.75l-11.43.72c-1.12.07-1.12,1.82,0,1.74Z"/><path class="cls-20" d="M425.82,444.91a192,192,0,0,1,6.8-54.32.88.88,0,0,0-1.69-.46,193.76,193.76,0,0,0-6.86,54.78.88.88,0,0,0,1.75,0Z"/><path class="cls-20" d="M491.64,354a43.91,43.91,0,0,0,20.55,32.74c1,.58.08,2.1-.88,1.51A45.69,45.69,0,0,1,489.9,354c-.11-1.11,1.63-1.11,1.74,0Z"/><path class="cls-20" d="M510.11,563.75,498.68,563c-1.12-.07-1.13-1.82,0-1.75l11.43.71c1.12.07,1.12,1.82,0,1.75Z"/><path class="cls-13" d="M474.49,773.37s-.94,11.49-2.75,12.49,4.68,6.17,8.11,6.45,25.09,10.14,28.24,13.87,29.08,3.53,29.27,1.23S496.73,777.29,499,773.58C499,773.58,483.54,768.33,474.49,773.37Z"/><path class="cls-13" d="M381.78,773.37s.93,11.49,2.74,12.49-4.68,6.17-8.11,6.45-25.08,10.14-28.23,13.87-29.09,3.53-29.27,1.23,40.63-30.12,38.38-33.83C357.29,773.58,372.72,768.33,381.78,773.37Z"/><path class="cls-10" d="M985.06,292.75c-.74,0-2.3,9.88-2,20.13.21,7.45,1.45,16.41,2.17,16.38.16,0,.27-.45.35-.85C986.13,299.5,985.66,292.78,985.06,292.75Z"/><path class="cls-4" d="M996.2,352.73a11.6,11.6,0,0,0-4.41-1.8,29.61,29.61,0,0,1-8.72-3.66l-.42-.24c.05-.09.1-.17.13-.24,4.73,1.53,10.58,2.91,15.67,2.56,0,0,6.3-.22.82-2.75a11.81,11.81,0,0,0-3.88-1,31.56,31.56,0,0,1-8.48-2.41,56.11,56.11,0,0,0-5.77-1.92,66.86,66.86,0,0,0-9-7.86,36.73,36.73,0,0,1,6.17.48,3.32,3.32,0,0,0,2.92-.76,1.68,1.68,0,0,0,0-2.79c-2.47-2.28-9.16-3-9.16-3a54.63,54.63,0,0,0-9.28-.31c-.19,0-.39-.09-.58-.12l-.36-.21-58.6-80.05c-15.28-16.24-24.71,2.47-24.71,2.47C877,259.49,933.35,324.87,948,341.69a11,11,0,0,0,.66.91c0,.1-.06.17-.06.17s.88.89,2.31,2.24l.55.63h.1c4.31,4,12.39,11.08,18,13,4.08,2.56,9.69,5.55,14.61,6.27,0,0,6.26,1.15-.48-3.34a4,4,0,0,0-1.28-.55,22.32,22.32,0,0,1-6-3,.39.39,0,0,0,.11-.06c4,1.84,8.48,3.33,12.66,3.23,0,0,5.47.11,2-2.91a10.27,10.27,0,0,0-4.58-2.25,23.16,23.16,0,0,1-6.8-3c.05-.16.11-.31.16-.47,4.47,1.9,9.69,3.51,14.53,3.46C994.5,356,1001.21,356.15,996.2,352.73Z"/><path class="cls-6" d="M969.85,220.13,917.7,256.37l46.17,63.77s-14.72,21.4-20.58,17.6l-62.86-78.53s-10-19.59,13.89-26l50.48-27.54S970,195.05,969.85,220.13Z"/><path class="cls-4" d="M998.86,322.76a11.68,11.68,0,0,1,4.74.38,29.36,29.36,0,0,0,9.44.65l.48,0c0-.1,0-.2,0-.28-4.91-.75-10.76-2.16-15.14-4.75,0,0-5.54-3,.5-2.83a12,12,0,0,1,3.93.81,31.92,31.92,0,0,0,8.66,1.67,53.45,53.45,0,0,1,6,.88,67.48,67.48,0,0,1,11.55-3,37,37,0,0,0-5.72-2.35,3.32,3.32,0,0,1-2.26-2,1.67,1.67,0,0,1,1.3-2.47c3.23-.93,9.52,1.47,9.52,1.47a53.8,53.8,0,0,1,8.41,3.9,5.47,5.47,0,0,1,.58.15l.42,0,88.35-45.12c21-7.62,21,13.34,21,13.34-3.32,9.95-83.06,43-103.74,51.38a10.47,10.47,0,0,1-1,.52l0,.18s-1.19.39-3.07,1l-.78.31-.09-.05c-5.65,1.65-16,4.32-22,3.47-4.79.45-11.15.6-15.87-1,0,0-6.11-1.79,1.94-2.76a4.08,4.08,0,0,1,1.39.08,22.58,22.58,0,0,0,6.73.05.86.86,0,0,0-.07-.1c-4.35-.14-9.07-.85-12.76-2.82,0,0-4.93-2.36-.44-3.48a10.36,10.36,0,0,1,5.1,0,23,23,0,0,0,7.44.35c0-.16,0-.33.07-.49-4.85-.31-10.24-1.23-14.54-3.45C998.91,326.42,992.84,323.56,998.86,322.76Z"/><path class="cls-6" d="M1083.48,217l31.08,56.8-71.82,36.79s3.6,26.18,10.73,25.42L1147,291.53s13-13.94-.24-28.1l-33.56-48.13S1094.91,194.12,1083.48,217Z"/><path class="cls-15" d="M1048.07,135.35c-1.46.93-1.59,2.94-1.83,4.64a27.69,27.69,0,0,1-1.57,5.08,14.22,14.22,0,0,0-.36,4.7,12.25,12.25,0,0,1-2.54,8.16,8.74,8.74,0,0,1-5.08,3.57c-2,.45-3.66.1-6.49-.48-5.2-1.08-5.21-2.23-8-2.2-3,0-3.76,1.41-7.52,1.31a9.29,9.29,0,0,1-3.77-.69c-2.52-1.17-2.83-4.1-4.75-5.89a4.4,4.4,0,0,1-1.13-1.27,3.33,3.33,0,0,1-.19-1.37l.06-6.88a17.67,17.67,0,0,0-.24-3.78,4.69,4.69,0,0,1-.19-2.45,38.28,38.28,0,0,0-1.47,7.41c0,.81,0,1.63-.16,2.44a18.63,18.63,0,0,1-1,3.79l-3.06,8.87a10.43,10.43,0,0,0-.75,4.47,17.31,17.31,0,0,1,0,3.6,23,23,0,0,0-.45,3c-.51,6.82-.77,10.23-.42,10.93,3.45,6.88,33.25,13.65,45.59,6.7,7.09-4,12-12.86,11.56-18.21a25.1,25.1,0,0,0-1.44-5.44c-.41-1.23-1.07-2.33-1.5-3.5-.54-1.44-.1-3.1-.25-4.59a17.85,17.85,0,0,0-.84-3.25,50.85,50.85,0,0,1-1.57-8.87l-.6-5.19A13.28,13.28,0,0,1,1048.07,135.35Z"/><path class="cls-14" d="M1003.65,130.67c-1.69-2.14-5,1.19-5.21,4.2-.25,3.23-.13,7.49,3.55,8.29,2.7.58,2.47-.4,2.48-2.39,0-2.68.52-6.06-.16-8.65A4.18,4.18,0,0,0,1003.65,130.67Z"/><path class="cls-14" d="M1046.92,129.34c1.68-2.15,5,1.18,5.21,4.19.24,3.23.12,7.5-3.56,8.29-2.7.59-2.47-.4-2.48-2.38,0-2.69-.52-6.06.17-8.66A3.87,3.87,0,0,1,1046.92,129.34Z"/><path class="cls-12" d="M963.3,589.38s24.49-6.89,35.35,1.67L977.4,776.56s-16.35,4.75-24.4-2Z"/><path class="cls-11" d="M1028.09,318.69H971.8c-7.37,0-9.25-.13-13.86,6.2a57.33,57.33,0,0,0-7.18,14.18c-3.2,8.72-6.89,17.75-10,26.27-2.83,7.89-2.06,18.16-2.52,26.64q-2.19,40.9-2.2,81.9c0,30.26-.77,61.37,1.66,91.36L911.49,752.56l112-1.6-3.21-187Z"/><circle class="cls-4" cx="1066.8" cy="589.49" r="18.21"/><path class="cls-12" d="M1084,589.3s-24.49-6.89-35.35,1.67l21.25,185.51s16.35,4.76,24.4-2Z"/><path class="cls-11" d="M1019.21,318.61h56.29c7.37,0,9.25-.12,13.86,6.2a57.33,57.33,0,0,1,7.18,14.18c3.2,8.73,6.89,17.76,10,26.27,2.83,7.89,2.06,18.17,2.52,26.65q2.19,40.9,2.2,81.89c0,30.26.77,61.37-1.66,91.36l26.25,187.33-112-1.61,3.21-187Z"/><path class="cls-14" d="M1034.46,176.5a5.32,5.32,0,0,0-.68,1.42c-.69,2.14.07,4.47,1.06,6.49,1.5,3.09,3.8,7,2.6,10.57a164.71,164.71,0,0,1-21.31-.17c-1.33-3.32-.94-7-.93-10.61,0-3.24-.12-7-2.82-9.22-1.14-.94-2.46-1.65-3.54-2.66-2.12-2-3.11-4.83-3.85-7.61a70.24,70.24,0,0,1-2-20.58c.24-6.14.14-12.31,2.75-18,1.12-2.46,3.72-5.16,6.38-5.88a52.2,52.2,0,0,1,15.58-1.92,20.9,20.9,0,0,1,7.21,1.18c1.9.77,3.44.56,5.44,1,2.61.52,4.44,2.93,5.45,5.39,1.79,4.36,1.74,9.59,1.37,14.22-.43,5.39-.24,10.61-.28,16s-1.17,11.13-5.15,14.7C1039.54,172.73,1036.12,174,1034.46,176.5Z"/><path class="cls-6" d="M946.3,338.42c1.05-.57,0-3.79,0-3.79-23.32-17.43,3.27-70.86,3.27-70.86-4.21-5.61-7-12.35-6.37-19.45.34-3.84,1.37-5.58-.25-9.26-1.49-3.38-3.3-6.6-4.73-10-3.48-8.3-4-16.51,4.81-21.09,9.1-4.72,19.08-6.7,29.25-7.23,2.81-.15,29.18,1.37,29.44-2.14,0-.72,1.81-7.26,2.07-7.19,2.41.65,5,.71,7.38,1.38,2.91.82,5.07,1.88,8.27,1.89l6.62,0c4.2,0,6.92-.87,10.68-2.29.44-.17,7.75-1.52,7.73-1.56.55,1.56,1.1,3.13,1.53,4.72.12.43.27,2.17.61,2.44,1.29,1.07,7.53,0,9.19.06,4.51.07,9-.12,13.53-.2,8.66-.15,17.56.05,25.74,3.27a22.35,22.35,0,0,1,8.25,5.24,32.14,32.14,0,0,1,4.24,6.25c3.88,6.86,4.17,13.43,1.44,20.85-1.22,3.34-4.76,6.84-4.63,10.38.14,3.86,1.07,7.1.22,11a31.91,31.91,0,0,1-5.91,12.3s26.59,53.43,3.27,70.86c0,0-1,3.23,0,3.79s3.94,3.09,1.66,4.17c-13.1,6.25-27.87,9.87-42.06,12.46-9.87,1.81-24.31,5.43-35.2,4.82l-.38.09c-11.1,2-28.12-2.32-39.27-4.36-14.18-2.59-29-6.21-42.06-12.46C942.36,341.51,945.25,339,946.3,338.42Z"/><path class="cls-11" d="M1039.29,127.51c-7.48-.3-15-1.42-22.5-1.29-3,0-6-.15-9-.19a30.55,30.55,0,0,1-4.38-.47c-1.69-.25-2.53,0-2.86-1.61-.5-2.48,1.24-5.64,3.27-7,.48-.3,1-.55,1.47-.86a65.79,65.79,0,0,1,8.7-5,49.82,49.82,0,0,1,5.39-2.25c1-.32,4.31-1.62,5.23-1,0,0-2.38-1.55,2-1.64s.28,1.88.28,1.88c1.12-.55,5.63,1.66,6.79,2.11a27.19,27.19,0,0,1,6.06,3,49.89,49.89,0,0,0,5.53,3.35c1.53.8,3.65,1.39,4.72,2.82a10.93,10.93,0,0,1,2.12,6.8C1052,128.85,1041.08,127.58,1039.29,127.51Z"/><path class="cls-5" d="M1117.59,273.05l12-.17a.88.88,0,0,1,0,1.75l-12,.17a.88.88,0,0,1,0-1.75Z"/><path class="cls-5" d="M1119,276a38.55,38.55,0,0,1,10.41,1.42.88.88,0,0,1-.47,1.69,36.67,36.67,0,0,0-9.94-1.36.88.88,0,0,1,0-1.75Z"/><path class="cls-5" d="M1135,247.72a121.18,121.18,0,0,0-27-34c-.85-.75.39-2,1.24-1.24a122.63,122.63,0,0,1,27.29,34.35c.53,1-1,1.88-1.51.89Z"/><path class="cls-5" d="M1112.11,212.85a24.92,24.92,0,0,0-15.3-8.34c-1.11-.16-.64-1.84.46-1.68a26.38,26.38,0,0,1,16.08,8.78c.73.84-.5,2.09-1.24,1.24Z"/><path class="cls-5" d="M912.54,254.9l-10.61-5.54a.87.87,0,0,0-.79,1.56l10.61,5.54a.87.87,0,0,0,.79-1.56Z"/><path class="cls-5" d="M909.93,256.91a38.05,38.05,0,0,0-9.93-3.42.88.88,0,0,0-.35,1.72,36.27,36.27,0,0,1,9.49,3.26.87.87,0,0,0,.79-1.56Z"/><path class="cls-5" d="M908.38,227.59a121.33,121.33,0,0,1,39.42-18.2c1.1-.28.54-1.94-.54-1.66a122.65,122.65,0,0,0-39.84,18.39c-.92.65,0,2.12,1,1.47Z"/><path class="cls-5" d="M944.53,203.6a24.94,24.94,0,0,1,17.42-.55c1.06.35,1.4-1.37.34-1.72a26.43,26.43,0,0,0-18.3.61c-1,.42-.5,2.09.54,1.66Z"/><path class="cls-20" d="M1105.63,562.24l-11.43-.72c-1.12-.06-1.13-1.81,0-1.74l11.43.71c1.11.07,1.12,1.82,0,1.75Z"/><path class="cls-20" d="M1102.77,570.1l-11.43-.72c-1.12-.07-1.13-1.82,0-1.74l11.43.71c1.12.07,1.12,1.82,0,1.75Z"/><path class="cls-20" d="M941.67,562.32l11.43-.72c1.12-.07,1.13-1.82,0-1.75l-11.43.72c-1.12.07-1.12,1.82,0,1.75Z"/><path class="cls-24" d="M964,372.74s25.1,8.28,37.54,2.65"/><path class="cls-24" d="M1040,372.74s25.1,8.28,37.54,2.65"/><path class="cls-13" d="M979.32,774.18a9,9,0,0,1-.29,2.4,34,34,0,0,0-1,7.89c-.14,4.14-3.09,4.77-6.77,5-3.41.2-6.8-.59-10.2-.7-3.59-.12-7.19.54-10.76.11a18.07,18.07,0,0,1-8.57-3.39,8.76,8.76,0,0,1-2.2-2.22c-1.11-1.75-1.18-3.93-1.22-6a11.17,11.17,0,0,1,.41-4c1.17-3.2,6.15-3.86,9-4.48a27.14,27.14,0,0,0,5.32-1.27c1.84-.86,2.41-3.1,4.47-3.84a8.38,8.38,0,0,1,2.87-.34l10.53,0c2.16,0,4.62.12,6,1.78a7.27,7.27,0,0,1,1.21,2.89A25.89,25.89,0,0,1,979.32,774.18Z"/><path class="cls-13" d="M1065.7,776.62A8.92,8.92,0,0,0,1066,779a34.08,34.08,0,0,1,.93,7.9c.12,4.15,3.07,4.79,6.75,5,3.41.22,6.8-.55,10.19-.65,3.59-.1,7.2.57,10.77.16a18,18,0,0,0,8.58-3.36,8.64,8.64,0,0,0,2.22-2.21c1.11-1.74,1.19-3.92,1.24-6a10.94,10.94,0,0,0-.4-4c-1.15-3.21-6.12-3.89-9-4.52a25.69,25.69,0,0,1-5.32-1.3c-1.83-.87-2.39-3.1-4.45-3.85a8.39,8.39,0,0,0-2.87-.36l-10.53-.09c-2.16,0-4.61.1-6,1.76a7.39,7.39,0,0,0-1.23,2.89A25.77,25.77,0,0,0,1065.7,776.62Z"/><path class="cls-14" d="M1390.91,482.65c3.2-4.08,9.45,2.24,9.89,8,.47,6.12.24,14.22-6.75,15.73-5.13,1.11-4.69-.75-4.71-4.53,0-5.1-1-11.5.32-16.43A7.45,7.45,0,0,1,1390.91,482.65Z"/><path class="cls-14" d="M1308.76,480.11c-3.2-4.08-9.45,2.24-9.89,8-.47,6.12-.24,14.22,6.74,15.73,5.13,1.11,4.69-.75,4.71-4.53,0-5.09,1-11.5-.31-16.43A7.62,7.62,0,0,0,1308.76,480.11Z"/><path class="cls-14" d="M1348.57,568.64a34,34,0,0,0,10.94,1.54c10.7-.27,20.63-5.37,25.24-12.5,2.67-4.13,2.51-7.1,2.68-11.57s4.24-7.23,4.29-12.29c.09-8.39.18-16.77.21-25.15,0-11.79-.12-24-5-34.73-2.13-4.67-7.06-9.79-12.11-11.16a99.9,99.9,0,0,0-29.58-3.65c-4.65.18-9.39.48-13.7,2.24-3.6,1.48-6.52,1.07-10.33,1.83-5,1-8.43,5.56-10.35,10.24a33.69,33.69,0,0,0-2.51,13c0,4.1-.67,8.08-.62,12.23.11,9.31,1.79,18.5,2.32,27.78.54,9.54-3.09,21.29,4.87,28.68a14.37,14.37,0,0,0,5.43,2.7c7,2.3,14,4.26,20.53,7.63A45.64,45.64,0,0,0,1348.57,568.64Z"/><path class="cls-15" d="M1306.57,491.53c2.76,1.76,3,5.58,3.48,8.81.49,3.48,1.87,6.38,3,9.65.93,2.76.75,6,.69,8.92a23.24,23.24,0,0,0,4.82,15.49c1.64,2.11,4.41,5.56,9.64,6.77,3.72.86,7,.19,12.32-.91,9.88-2,9.9-4.23,15.17-4.17,5.75.07,7.15,2.68,14.29,2.48a17.72,17.72,0,0,0,7.14-1.31c4.79-2.22,5.39-7.79,9-11.18a8.3,8.3,0,0,0,2.16-2.42,6.23,6.23,0,0,0,.34-2.58l-.1-13.07a33.1,33.1,0,0,1,.46-7.18c.32-1.55.86-3.16.36-4.66a73.79,73.79,0,0,1,2.79,14.07c.1,1.55.1,3.1.29,4.64a36.09,36.09,0,0,0,1.95,7.19l5.8,16.85a25.5,25.5,0,0,1,1.21,4.26,25.84,25.84,0,0,1,.21,4.22c0,2.18-.37,4.71.08,6.84a43.19,43.19,0,0,1,.86,5.71c1,12.95,1.46,19.43.8,20.75-6.56,13-63.12,25.92-86.55,12.72-13.47-7.59-22.82-24.42-21.94-34.58.29-3.48,1.64-7,2.73-10.32.77-2.34,2-4.43,2.85-6.65,1-2.73.19-5.88.47-8.71a32.43,32.43,0,0,1,1.59-6.16,95.76,95.76,0,0,0,3-16.85l1.14-9.86C1306.92,497.38,1307.26,494.39,1306.57,491.53Z"/><path class="cls-13" d="M1348.63,490.94a3.07,3.07,0,0,1-2.25,2.28,3.51,3.51,0,0,1-3.13-.94s-11.39-9.13-21.56-4.53a2.07,2.07,0,0,1-1,.16l-.6-.05c-1.06-.1-1.93-1.05-1.68-1.83a2.2,2.2,0,0,1,1.35-1.6S1333.72,479.59,1348.63,490.94Z"/><g class="cls-16"><ellipse class="cls-17" cx="1333.13" cy="523.44" rx="6.97" ry="10.08" transform="translate(791.83 1849.42) rotate(-89.23)"/></g><path class="cls-13" d="M1353.84,491.49a3.07,3.07,0,0,0,2.7,1.72,3.53,3.53,0,0,0,2.85-1.63s9-11.45,20-9.25a2.07,2.07,0,0,0,1-.06l.58-.19c1-.33,1.64-1.45,1.23-2.16a2.2,2.2,0,0,0-1.67-1.26S1365.82,477.08,1353.84,491.49Z"/><g class="cls-16"><ellipse class="cls-17" cx="1371.19" cy="520.9" rx="10.08" ry="6.97" transform="translate(-6.87 18.46) rotate(-0.77)"/></g><path class="cls-18" d="M1352.46,534c-2.11,0-4.16-1-6.1-3.06a.53.53,0,0,1,.77-.73c1.84,1.94,3.76,2.85,5.71,2.72,3.31-.23,5.64-3.42,5.66-3.45a.54.54,0,0,1,.74-.12.53.53,0,0,1,.12.74c-.11.15-2.65,3.62-6.45,3.88Z"/><path class="cls-11" d="M1323.24,476.64c14.21-.56,28.44-2.7,42.72-2.45,5.72.11,11.43-.29,17.15-.35a61,61,0,0,0,8.31-.9c3.2-.48,4.79.06,5.42-3.05,1-4.72-2.34-10.72-6.2-13.19-.91-.59-1.9-1.05-2.8-1.65a125.58,125.58,0,0,0-16.51-9.54,93.25,93.25,0,0,0-10.23-4.28c-1.82-.59-8.18-3.08-9.93-1.94,0,0,4.51-2.94-3.74-3.1s-.53,3.56-.53,3.56c-2.13-1-10.69,3.16-12.9,4a52,52,0,0,0-11.49,5.59,94.37,94.37,0,0,1-10.5,6.37c-2.91,1.52-7,2.64-9,5.36a20.65,20.65,0,0,0-4,12.91C1299.19,479.18,1319.85,476.78,1323.24,476.64Z"/><path class="cls-19" d="M1317.13,476.47s51.65-4.61,62.1-1.35C1379.23,475.12,1375,447.75,1317.13,476.47Z"/><path class="cls-25" d="M1338.59,550.68c.77,0,7.09-1.42,10.7,0s7.35,3.22,10,2.19a7.9,7.9,0,0,1,5.55.31"/><path class="cls-26" d="M1333.84,511.48a24.36,24.36,0,0,1-7.23,2.78,4.87,4.87,0,0,1-2.51.07,1.87,1.87,0,0,1-1.39-1.87"/><path class="cls-26" d="M1326.32,516.16a4.59,4.59,0,0,1-2.08.8,2.08,2.08,0,0,1-1.88-1.46"/><path class="cls-26" d="M1369.64,509.25a24.25,24.25,0,0,0,7.23,2.78,4.83,4.83,0,0,0,2.5.08,1.87,1.87,0,0,0,1.39-1.87"/><path class="cls-26" d="M1377.15,513.94a4.46,4.46,0,0,0,2.09.79,2.06,2.06,0,0,0,1.87-1.46"/><path class="cls-27" d="M1358.53,503.37c1.51,4.1,5.6,6.37,9.14,5.07a6.76,6.76,0,0,0,4.15-5.48c.46-3.16-.51-4.67-3.53-5.76-2.63-.95-7.86-1.38-10,1C1357.36,499.27,1358.09,502.19,1358.53,503.37Z"/><path class="cls-28" d="M1360.66,502.58a3.18,3.18,0,1,0,1.69-4.51A3.42,3.42,0,0,0,1360.66,502.58Z"/><path class="cls-27" d="M1344.83,503.81c-1.52,4.11-5.61,6.38-9.15,5.07a6.74,6.74,0,0,1-4.14-5.48c-.46-3.15.51-4.67,3.52-5.76,2.63-.95,7.86-1.38,10,1C1346,499.72,1345.26,502.63,1344.83,503.81Z"/><path class="cls-28" d="M1342.69,503a3.18,3.18,0,1,1-1.69-4.51A3.42,3.42,0,0,1,1342.69,503Z"/><path class="cls-14" d="M1391.93,731.6c3.2-4.08,9.44,2.24,9.89,8,.47,6.12.24,14.22-6.75,15.73-5.13,1.11-4.69-.75-4.71-4.53,0-5.09-1-11.5.32-16.43A7.29,7.29,0,0,1,1391.93,731.6Z"/><path class="cls-14" d="M1309.78,729.06c-3.21-4.07-9.45,2.25-9.89,8-.47,6.12-.24,14.23,6.74,15.74,5.13,1.11,4.69-.76,4.71-4.53,0-5.1,1-11.51-.31-16.44A7.62,7.62,0,0,0,1309.78,729.06Z"/><path class="cls-14" d="M1349.58,817.59a34.14,34.14,0,0,0,11,1.54c10.7-.27,20.63-5.37,25.24-12.5,2.67-4.13,2.51-7.09,2.68-11.57s4.24-7.23,4.29-12.29c.09-8.38.18-16.77.21-25.15,0-11.79-.12-24-5-34.73-2.13-4.67-7-9.79-12.1-11.15a99.25,99.25,0,0,0-29.58-3.65c-4.66.17-9.39.47-13.7,2.23-3.6,1.48-6.52,1.07-10.33,1.83-5,1-8.43,5.56-10.35,10.24a33.69,33.69,0,0,0-2.51,13c0,4.1-.67,8.09-.62,12.23.11,9.31,1.79,18.5,2.32,27.78.54,9.54-3.09,21.29,4.87,28.68a14.15,14.15,0,0,0,5.43,2.7c7,2.3,14,4.27,20.53,7.63A45.88,45.88,0,0,0,1349.58,817.59Z"/><path class="cls-15" d="M1307.59,740.48c2.76,1.76,3,5.58,3.47,8.82.5,3.47,1.88,6.37,3,9.64.93,2.76.75,6,.69,8.92a23.24,23.24,0,0,0,4.82,15.49c1.64,2.11,4.41,5.56,9.64,6.77,3.72.86,7,.2,12.32-.91,9.88-2,9.89-4.23,15.17-4.17,5.75.07,7.15,2.68,14.29,2.48a17.9,17.9,0,0,0,7.14-1.3c4.79-2.23,5.39-7.8,9-11.19a8.12,8.12,0,0,0,2.15-2.42,6.08,6.08,0,0,0,.35-2.58l-.1-13.07a33.1,33.1,0,0,1,.46-7.18c.32-1.54.86-3.16.35-4.66a73,73,0,0,1,2.8,14.07c.09,1.55.09,3.1.29,4.64a36.75,36.75,0,0,0,1.94,7.19l5.81,16.85a25.46,25.46,0,0,1,1.2,4.26,24.83,24.83,0,0,1,.22,4.22c0,2.18-.37,4.71.08,6.84a43.19,43.19,0,0,1,.86,5.71c1,13,1.46,19.43.8,20.75-6.56,13.05-63.13,25.92-86.55,12.72-13.47-7.59-22.82-24.42-21.94-34.58.29-3.47,1.64-7,2.73-10.32.77-2.34,2-4.43,2.85-6.65,1-2.73.18-5.88.47-8.71a32.43,32.43,0,0,1,1.59-6.16,95.63,95.63,0,0,0,3-16.84l1.15-9.87C1307.94,746.33,1308.28,743.34,1307.59,740.48Z"/><path class="cls-13" d="M1345.17,739a3.05,3.05,0,0,1-1.67,2.73,3.51,3.51,0,0,1-3.27-.2s-13.18-6.27-22,.53a1.9,1.9,0,0,1-.94.39l-.6.09c-1.05.15-2.12-.58-2.06-1.39a2.22,2.22,0,0,1,1-1.87S1328.05,731.32,1345.17,739Z"/><g class="cls-16"><ellipse class="cls-17" cx="1334.15" cy="772.39" rx="6.97" ry="10.08" transform="translate(543.9 2096.04) rotate(-89.23)"/></g><path class="cls-13" d="M1356.9,739.22a3,3,0,0,0,1.84,2.61,3.53,3.53,0,0,0,3.25-.41s12.74-7.12,22-.91a2,2,0,0,0,1,.33l.61,0c1,.08,2.07-.72,2-1.53a2.23,2.23,0,0,0-1.07-1.8S1373.47,730.48,1356.9,739.22Z"/><g class="cls-16"><ellipse class="cls-17" cx="1372.21" cy="769.85" rx="10.08" ry="6.97" transform="translate(-10.22 18.5) rotate(-0.77)"/></g><path class="cls-18" d="M1354.68,794.2c4.86-.05,9.6,2.27,14.1,6.91a1.22,1.22,0,0,1-1.74,1.7c-4.29-4.43-8.74-6.49-13.21-6.15-7.62.6-12.92,8-13,8.07a1.22,1.22,0,0,1-2-1.4c.25-.34,6-8.4,14.77-9.09C1354,794.22,1354.33,794.2,1354.68,794.2Z"/><path class="cls-18" d="M1353.48,781.64c-2.11,0-4.16-1-6.1-3.06a.53.53,0,0,1,.76-.73c1.85,1.94,3.77,2.86,5.71,2.73,3.32-.23,5.65-3.42,5.67-3.45a.53.53,0,0,1,.86.61c-.11.15-2.65,3.63-6.45,3.89Z"/><path class="cls-11" d="M1324.26,725.6c14.2-.57,28.44-2.71,42.72-2.45,5.72.1,11.43-.3,17.15-.36a61,61,0,0,0,8.31-.9c3.2-.48,4.79.06,5.42-3,1-4.72-2.35-10.72-6.2-13.19-.91-.59-1.9-1-2.8-1.65a125.58,125.58,0,0,0-16.51-9.54,92.59,92.59,0,0,0-10.24-4.28c-1.82-.59-8.17-3.08-9.92-1.94,0,0,4.51-2.93-3.74-3.1s-.53,3.56-.53,3.56c-2.14-1-10.69,3.16-12.91,4a52.21,52.21,0,0,0-11.49,5.59,93.41,93.41,0,0,1-10.49,6.38c-2.91,1.51-7,2.63-9,5.35a20.7,20.7,0,0,0-4,12.91C1300.21,728.13,1320.86,725.73,1324.26,725.6Z"/><path class="cls-19" d="M1318.15,725.42s51.65-4.61,62.1-1.35C1380.25,724.07,1376,696.7,1318.15,725.42Z"/><path class="cls-26" d="M1336.43,759.14a24.38,24.38,0,0,1-7.23,2.79,4.83,4.83,0,0,1-2.5.07,1.85,1.85,0,0,1-1.39-1.87"/><path class="cls-26" d="M1328.91,763.83a4.42,4.42,0,0,1-2.08.79,2.06,2.06,0,0,1-1.88-1.46"/><path class="cls-26" d="M1372.23,756.92a24.36,24.36,0,0,0,7.23,2.78,4.83,4.83,0,0,0,2.5.07,1.85,1.85,0,0,0,1.39-1.87"/><path class="cls-26" d="M1379.75,761.6a4.55,4.55,0,0,0,2.08.8,2.09,2.09,0,0,0,1.88-1.46"/><path class="cls-27" d="M1360.79,750.92a9.68,9.68,0,0,0,3.27,4.11,6.62,6.62,0,0,0,6.21,1.07,5.52,5.52,0,0,0,3.12-2.69,2.38,2.38,0,0,0,.17-2,2.56,2.56,0,0,0-1.7-1.15,14.7,14.7,0,0,0-4.14-.3l-6.71.13c-.15,0-.33,0-.39.16a.39.39,0,0,0,0,.28A3.25,3.25,0,0,0,1360.79,750.92Z"/><path class="cls-28" d="M1363.53,752.08a3.43,3.43,0,0,0,4.21,2.34c1.59-.58,2.07-2.31,1.9-3.84a.76.76,0,0,0-.28-.55,2,2,0,0,0-1.06-.09l-1.27,0c-.83,0-1.65,0-2.48,0a3.58,3.58,0,0,0-1,.09c-.28.08-.36.31-.37.6A4,4,0,0,0,1363.53,752.08Z"/><path class="cls-27" d="M1345,750.93a9.68,9.68,0,0,1-3.27,4.11,6.61,6.61,0,0,1-6.2,1.07,5.51,5.51,0,0,1-3.13-2.69,2.38,2.38,0,0,1-.17-2,2.56,2.56,0,0,1,1.7-1.15,15.08,15.08,0,0,1,4.14-.31l6.71.14c.15,0,.33,0,.39.16a.39.39,0,0,1,0,.28A3.25,3.25,0,0,1,1345,750.93Z"/><path class="cls-28" d="M1342.28,752.09a3.43,3.43,0,0,1-4.21,2.34c-1.59-.58-2.07-2.31-1.9-3.84a.75.75,0,0,1,.29-.55,2,2,0,0,1,1-.09l1.27,0c.83,0,1.66,0,2.48,0a4,4,0,0,1,1,.08.56.56,0,0,1,.37.6A4,4,0,0,1,1342.28,752.09Z"/><path class="cls-14" d="M1391.93,268.39c3.2-4.07,9.44,2.25,9.89,8,.47,6.12.24,14.23-6.75,15.74-5.13,1.1-4.69-.76-4.71-4.54,0-5.09-1-11.5.32-16.43A7.29,7.29,0,0,1,1391.93,268.39Z"/><path class="cls-14" d="M1309.78,265.85c-3.21-4.07-9.45,2.25-9.89,8-.47,6.12-.24,14.23,6.74,15.74,5.13,1.11,4.69-.76,4.71-4.53,0-5.1,1-11.51-.31-16.44A7.7,7.7,0,0,0,1309.78,265.85Z"/><path class="cls-14" d="M1349.58,354.39a34.7,34.7,0,0,0,11,1.54c10.7-.28,20.63-5.38,25.24-12.51,2.67-4.13,2.51-7.09,2.68-11.57s4.24-7.23,4.29-12.29c.09-8.38.18-16.76.21-25.15,0-11.79-.12-24-5-34.72-2.13-4.68-7-9.8-12.1-11.16a99.57,99.57,0,0,0-29.58-3.65c-4.66.17-9.39.47-13.7,2.23-3.6,1.48-6.52,1.07-10.33,1.83-5,1-8.43,5.56-10.35,10.24a33.71,33.71,0,0,0-2.51,13c0,4.09-.67,8.08-.62,12.22.11,9.31,1.79,18.5,2.32,27.79.54,9.54-3.09,21.28,4.87,28.68a14.27,14.27,0,0,0,5.43,2.69c7,2.31,14,4.27,20.53,7.64A47.62,47.62,0,0,0,1349.58,354.39Z"/><path class="cls-15" d="M1307.59,277.28c2.76,1.75,3,5.57,3.47,8.81.5,3.47,1.88,6.37,3,9.64.93,2.76.75,6,.69,8.92a23.23,23.23,0,0,0,4.82,15.49,16.63,16.63,0,0,0,9.64,6.77c3.72.87,7,.2,12.32-.91,9.88-2,9.89-4.23,15.17-4.16,5.75.06,7.15,2.67,14.29,2.47a17.73,17.73,0,0,0,7.14-1.3c4.79-2.23,5.39-7.8,9-11.19a8.21,8.21,0,0,0,2.15-2.41,6.13,6.13,0,0,0,.35-2.59l-.1-13.07a33.14,33.14,0,0,1,.46-7.18c.32-1.54.86-3.16.35-4.65a73,73,0,0,1,2.8,14.06c.09,1.55.09,3.11.29,4.64a36.75,36.75,0,0,0,1.94,7.19l5.81,16.85a25.57,25.57,0,0,1,1.2,4.27,24.66,24.66,0,0,1,.22,4.21c0,2.18-.37,4.71.08,6.84a43.19,43.19,0,0,1,.86,5.71c1,12.95,1.46,19.43.8,20.75-6.56,13.06-63.13,25.92-86.55,12.72-13.47-7.59-22.82-24.42-21.94-34.57.29-3.48,1.64-7,2.73-10.32.77-2.35,2-4.44,2.85-6.66,1-2.73.18-5.87.47-8.71a32.63,32.63,0,0,1,1.59-6.16,95.63,95.63,0,0,0,3-16.84l1.15-9.86C1307.94,283.12,1308.28,280.13,1307.59,277.28Z"/><path class="cls-13" d="M1344.77,268.25a3,3,0,0,1-.31,3.18,3.52,3.52,0,0,1-3,1.24s-14.59.09-19.6,10.07a2.17,2.17,0,0,1-.67.76l-.5.34c-.89.58-2.16.4-2.46-.36a2.2,2.2,0,0,1,0-2.1S1326,268.82,1344.77,268.25Z"/><g class="cls-16"><ellipse class="cls-17" cx="1334.15" cy="306.59" rx="6.97" ry="10.08" transform="translate(1009.66 1636.5) rotate(-89.23)"/></g><path class="cls-13" d="M1359.73,267.09a3.09,3.09,0,0,0,.4,3.18,3.54,3.54,0,0,0,3.07,1.15s14.59-.35,19.89,9.48a2.13,2.13,0,0,0,.7.74l.51.32c.9.56,2.17.34,2.44-.43a2.18,2.18,0,0,0-.1-2.09S1378.47,267.11,1359.73,267.09Z"/><g class="cls-16"><ellipse class="cls-17" cx="1372.21" cy="304.05" rx="10.08" ry="6.97" transform="translate(-3.96 18.46) rotate(-0.77)"/></g><ellipse class="cls-18" cx="1353.83" cy="338.66" rx="10.08" ry="6.97" transform="translate(-4.43 18.21) rotate(-0.77)"/><path class="cls-18" d="M1353.48,319.73c-2.11,0-4.16-1-6.1-3.06a.53.53,0,0,1,0-.75.52.52,0,0,1,.74,0c1.85,1.94,3.77,2.86,5.71,2.72,3.32-.22,5.65-3.41,5.67-3.44a.53.53,0,0,1,.86.61c-.11.15-2.65,3.63-6.45,3.89Z"/><path class="cls-11" d="M1324.26,262.39c14.2-.57,28.44-2.7,42.72-2.45,5.72.1,11.43-.3,17.15-.36a61,61,0,0,0,8.31-.9c3.2-.48,4.79.06,5.42-3.05,1-4.72-2.35-10.72-6.2-13.19-.91-.59-1.9-1.05-2.8-1.65a126.71,126.71,0,0,0-16.51-9.54,90.64,90.64,0,0,0-10.24-4.27c-1.82-.6-8.17-3.08-9.92-1.94,0,0,4.51-2.94-3.74-3.11s-.53,3.56-.53,3.56c-2.14-1-10.69,3.17-12.91,4a51.81,51.81,0,0,0-11.49,5.6,94.83,94.83,0,0,1-10.49,6.37c-2.91,1.51-7,2.63-9,5.35a20.7,20.7,0,0,0-4,12.91C1300.21,264.93,1320.86,262.52,1324.26,262.39Z"/><path class="cls-19" d="M1318.15,262.21s51.65-4.61,62.1-1.35C1380.25,260.86,1376,233.49,1318.15,262.21Z"/><path class="cls-26" d="M1336,293.4a24.36,24.36,0,0,1-7.23,2.78,5,5,0,0,1-2.51.08,1.89,1.89,0,0,1-1.39-1.87"/><path class="cls-26" d="M1328.44,298.08a4.48,4.48,0,0,1-2.08.8,2.08,2.08,0,0,1-1.88-1.46"/><path class="cls-26" d="M1371.76,291.17A24.55,24.55,0,0,0,1379,294a4.94,4.94,0,0,0,2.5.07,1.86,1.86,0,0,0,1.39-1.87"/><path class="cls-26" d="M1379.27,295.86a4.46,4.46,0,0,0,2.09.79,2,2,0,0,0,1.87-1.46"/><ellipse class="cls-27" cx="1337.39" cy="284.62" rx="7.92" ry="6.83" transform="translate(608.12 1441.24) rotate(-69.78)"/><path class="cls-28" d="M1341.66,286.19a3.18,3.18,0,1,1-1.69-4.51A3.42,3.42,0,0,1,1341.66,286.19Z"/><ellipse class="cls-27" cx="1366.58" cy="283.3" rx="6.83" ry="7.92" transform="matrix(0.94, -0.35, 0.35, 0.94, -13.7, 489.73)"/><path class="cls-28" d="M1362.31,284.87a3.17,3.17,0,1,0,1.68-4.51A3.41,3.41,0,0,0,1362.31,284.87Z"/><path class="cls-14" d="M1391.93,46.46c3.2-4.07,9.44,2.25,9.89,8,.47,6.12.24,14.23-6.75,15.74-5.13,1.11-4.69-.76-4.71-4.53,0-5.1-1-11.51.32-16.44A7.29,7.29,0,0,1,1391.93,46.46Z"/><path class="cls-14" d="M1309.78,43.92c-3.21-4.07-9.45,2.25-9.89,8-.47,6.12-.24,14.23,6.74,15.74,5.13,1.11,4.69-.76,4.71-4.53,0-5.1,1-11.51-.31-16.43A7.76,7.76,0,0,0,1309.78,43.92Z"/><path class="cls-14" d="M1349.58,132.46a34.7,34.7,0,0,0,11,1.54c10.7-.28,20.63-5.38,25.24-12.51,2.67-4.13,2.51-7.09,2.68-11.57s4.24-7.23,4.29-12.29c.09-8.38.18-16.76.21-25.15,0-11.79-.12-24-5-34.72-2.13-4.67-7-9.8-12.1-11.16A99.57,99.57,0,0,0,1346.25,23c-4.66.17-9.39.47-13.7,2.24-3.6,1.47-6.52,1.06-10.33,1.82-5,1-8.43,5.56-10.35,10.24a33.71,33.71,0,0,0-2.51,13c0,4.09-.67,8.08-.62,12.22.11,9.31,1.79,18.5,2.32,27.79.54,9.54-3.09,21.28,4.87,28.68a14.27,14.27,0,0,0,5.43,2.69c7,2.31,14,4.27,20.53,7.64A47.62,47.62,0,0,0,1349.58,132.46Z"/><path class="cls-15" d="M1307.59,55.35c2.76,1.75,3,5.57,3.47,8.81.5,3.48,1.88,6.37,3,9.64.93,2.76.75,6,.69,8.92a23.23,23.23,0,0,0,4.82,15.49,16.63,16.63,0,0,0,9.64,6.77c3.72.87,7,.2,12.32-.91,9.88-2,9.89-4.23,15.17-4.16,5.75.06,7.15,2.67,14.29,2.47a17.73,17.73,0,0,0,7.14-1.3c4.79-2.23,5.39-7.79,9-11.19a8.21,8.21,0,0,0,2.15-2.41,6.13,6.13,0,0,0,.35-2.59l-.1-13.07a33.14,33.14,0,0,1,.46-7.18c.32-1.54.86-3.16.35-4.65a72.9,72.9,0,0,1,2.8,14.07c.09,1.54.09,3.1.29,4.63a36.75,36.75,0,0,0,1.94,7.19l5.81,16.85a25.57,25.57,0,0,1,1.2,4.27,24.71,24.71,0,0,1,.22,4.21c0,2.18-.37,4.71.08,6.84a43.19,43.19,0,0,1,.86,5.71c1,13,1.46,19.43.8,20.75-6.56,13.06-63.13,25.92-86.55,12.72-13.47-7.59-22.82-24.42-21.94-34.57.29-3.48,1.64-7,2.73-10.32.77-2.35,2-4.44,2.85-6.66,1-2.73.18-5.87.47-8.71a32.63,32.63,0,0,1,1.59-6.16,95.63,95.63,0,0,0,3-16.84l1.15-9.86C1307.94,61.19,1308.28,58.2,1307.59,55.35Z"/><path class="cls-13" d="M1344.5,47.83a3.07,3.07,0,0,1-1,3,3.52,3.52,0,0,1-3.23.54s-14.25-3.14-21.34,5.48a2.08,2.08,0,0,1-.83.59l-.56.22c-1,.38-2.19-.09-2.32-.9a2.2,2.2,0,0,1,.5-2S1326.1,44.24,1344.5,47.83Z"/><g class="cls-16"><ellipse class="cls-17" cx="1334.15" cy="82.07" rx="6.97" ry="10.08" transform="translate(1234.16 1414.99) rotate(-89.23)"/></g><path class="cls-13" d="M1341.47,64.23a.64.64,0,0,1-.38-.14,11.39,11.39,0,0,0-6.5-2.28,12.16,12.16,0,0,0-6.73,1.55.61.61,0,0,1-.84-.21.61.61,0,0,1,.22-.83,13.6,13.6,0,0,1,7.41-1.73,12.46,12.46,0,0,1,7.2,2.56.61.61,0,0,1,.1.85A.62.62,0,0,1,1341.47,64.23Z"/><path class="cls-13" d="M1361.86,45.29a3.06,3.06,0,0,0,1,3,3.52,3.52,0,0,0,3.23.54s14.25-3.15,21.34,5.47a2,2,0,0,0,.82.59c.17.07.36.15.57.22,1,.38,2.19-.09,2.32-.89a2.19,2.19,0,0,0-.51-2S1380.25,41.7,1361.86,45.29Z"/><g class="cls-16"><ellipse class="cls-17" cx="1372.21" cy="79.53" rx="10.08" ry="6.97" transform="translate(-0.94 18.44) rotate(-0.77)"/></g><path class="cls-13" d="M1364.88,61.69a.58.58,0,0,0,.38-.13,11.33,11.33,0,0,1,6.5-2.29,12.29,12.29,0,0,1,6.74,1.55.59.59,0,0,0,.83-.21.6.6,0,0,0-.21-.83,13.57,13.57,0,0,0-7.42-1.72,12.58,12.58,0,0,0-7.2,2.55.6.6,0,0,0-.09.85A.6.6,0,0,0,1364.88,61.69Z"/><path class="cls-18" d="M1353,116.79c-4.87,0-9.58-2.37-14-7.05a1.21,1.21,0,1,1,1.75-1.68c4.26,4.47,8.68,6.57,13.15,6.27,7.63-.52,13-7.87,13.05-7.94a1.23,1.23,0,0,1,1.7-.28,1.21,1.21,0,0,1,.27,1.7c-.24.34-6.1,8.34-14.85,8.94C1353.67,116.78,1353.33,116.79,1353,116.79Z"/><path class="cls-18" d="M1353.48,98.33c-2.11,0-4.16-1-6.1-3.06a.53.53,0,0,1,0-.75.52.52,0,0,1,.74,0c1.85,1.94,3.77,2.85,5.71,2.72,3.32-.23,5.65-3.42,5.67-3.45a.53.53,0,1,1,.86.62c-.11.15-2.65,3.62-6.45,3.88Z"/><path class="cls-11" d="M1324.26,40.46c14.2-.57,28.44-2.7,42.72-2.45,5.72.1,11.43-.3,17.15-.36a61,61,0,0,0,8.31-.9c3.2-.48,4.79.06,5.42-3,1-4.72-2.35-10.72-6.2-13.19-.91-.59-1.9-1.05-2.8-1.65a125.52,125.52,0,0,0-16.51-9.53,88.9,88.9,0,0,0-10.24-4.28c-1.82-.6-8.17-3.08-9.92-1.94,0,0,4.51-2.94-3.74-3.1s-.53,3.55-.53,3.55c-2.14-1-10.69,3.17-12.91,4a51.81,51.81,0,0,0-11.49,5.6A94.83,94.83,0,0,1,1313,19.54c-2.91,1.51-7,2.63-9,5.35a20.7,20.7,0,0,0-4,12.91C1300.21,43,1320.86,40.59,1324.26,40.46Z"/><path class="cls-19" d="M1318.15,40.28s51.65-4.61,62.1-1.35C1380.25,38.93,1376,11.56,1318.15,40.28Z"/><path class="cls-26" d="M1379.79,59.45c.75,0,1.29-1,2-.87a3.5,3.5,0,0,1,.55.17,2.63,2.63,0,0,0,1.45-.24,9.5,9.5,0,0,1,3.35-.51"/><path class="cls-26" d="M1380.54,60.46a49.87,49.87,0,0,0,6.54-.88"/><path class="cls-26" d="M1380.92,61.47a9.87,9.87,0,0,0,6.28.36"/><path class="cls-26" d="M1325,61.44c-.78-.54-1.84.16-2.77,0-.48-.07-.91-.38-1.4-.44a5.35,5.35,0,0,1-.7-.07.54.54,0,0,1-.43-.5H1319"/><path class="cls-26" d="M1325.15,62.81l-3-.23-.71,0a23.3,23.3,0,0,0-3.34-.1"/><path class="cls-26" d="M1325.64,64.23c-1.3.15-2.48,1-3.78.93-.78-.06-1.49-.47-2.26-.52a5,5,0,0,0-2,.4"/><path class="cls-26" d="M1336.05,70a24.31,24.31,0,0,1-7.24,2.78,4.83,4.83,0,0,1-2.5.08,1.88,1.88,0,0,1-1.39-1.87"/><path class="cls-26" d="M1328.53,74.65a4.37,4.37,0,0,1-2.09.8,2.06,2.06,0,0,1-1.87-1.46"/><path class="cls-26" d="M1371.84,67.74a24.33,24.33,0,0,0,7.24,2.79,4.83,4.83,0,0,0,2.5.07,1.86,1.86,0,0,0,1.39-1.87"/><path class="cls-26" d="M1379.36,72.43a4.46,4.46,0,0,0,2.09.79,2,2,0,0,0,1.87-1.46"/></g></g></svg>