<svg xmlns="http://www.w3.org/2000/svg" xmlns:xlink="http://www.w3.org/1999/xlink" viewBox="0 0 1279.98 863.92"><defs><style>.cls-1,.cls-28,.cls-30,.cls-34,.cls-40,.cls-41,.cls-55,.cls-56,.cls-59,.cls-60,.cls-62,.cls-63,.cls-64,.cls-65,.cls-66,.cls-67,.cls-68,.cls-69,.cls-70,.cls-71{fill:none;}.cls-2{fill:#80858f;}.cls-3{fill:#7e828a;}.cls-4,.cls-44{fill:#0080ff;}.cls-5{fill:#81a2ad;}.cls-6{fill:#cadae4;}.cls-7{fill:#d23030;}.cls-58,.cls-8{fill:#131529;}.cls-8{opacity:0.65;}.cls-9{fill:#c7c8c7;}.cls-10{fill:#ededec;}.cls-11{clip-path:url(#clip-path);}.cls-12{clip-path:url(#clip-path-2);}.cls-13{fill:#747d83;}.cls-14{fill:#798088;}.cls-15{clip-path:url(#clip-path-3);}.cls-16{fill:#e18125;}.cls-17,.cls-45,.cls-57{fill:#004d80;}.cls-18{fill:#435866;}.cls-19{fill:#101e2d;}.cls-20{fill:#b2c2ce;}.cls-21{fill:#4e6675;}.cls-22{fill:#72909b;}.cls-23{fill:#7b98a0;}.cls-24{fill:#f4f5f5;}.cls-25{fill:#688188;}.cls-26{fill:#628086;}.cls-27{fill:#809ea9;}.cls-28{stroke:#c7c8c7;stroke-width:3.92px;}.cls-28,.cls-30,.cls-40,.cls-41,.cls-55,.cls-56,.cls-59,.cls-60{stroke-linecap:round;}.cls-28,.cls-34,.cls-40,.cls-41,.cls-55,.cls-56,.cls-59,.cls-60,.cls-62,.cls-63,.cls-64,.cls-65,.cls-66,.cls-67,.cls-68,.cls-69,.cls-70,.cls-71{stroke-miterlimit:10;}.cls-29{fill:#f1bdb4;}.cls-30{stroke:#72909b;stroke-linejoin:round;stroke-width:4.98px;}.cls-31{clip-path:url(#clip-path-4);}.cls-32{clip-path:url(#clip-path-5);}.cls-33{fill:#ff9931;}.cls-34{stroke:#e4801f;}.cls-34,.cls-56{stroke-width:0.88px;}.cls-34,.cls-57{opacity:0.25;}.cls-35{clip-path:url(#clip-path-6);}.cls-36{fill:#868e95;}.cls-37{clip-path:url(#clip-path-7);}.cls-38{clip-path:url(#clip-path-8);}.cls-39{clip-path:url(#clip-path-9);}.cls-40,.cls-41,.cls-59,.cls-60,.cls-63,.cls-64,.cls-65,.cls-66,.cls-67,.cls-68,.cls-69,.cls-70,.cls-71{stroke:#fff;}.cls-40{stroke-width:0.78px;}.cls-41{stroke-width:0.73px;}.cls-41,.cls-59,.cls-60{opacity:0.56;}.cls-42{fill:#708085;}.cls-43{clip-path:url(#clip-path-10);}.cls-44,.cls-45{opacity:0.4;}.cls-46{fill:#fff;}.cls-47{fill:#777778;}.cls-48{fill:#bbbaba;}.cls-49{fill:#809faa;}.cls-50{fill:#cbdbe5;}.cls-51{fill:#73929d;}.cls-52{fill:#231f20;}.cls-53{fill:#e13c45;opacity:0.33;}.cls-54{fill:#f06e00;}.cls-55{stroke:#231f20;stroke-width:0.44px;}.cls-56{stroke:#f06e00;}.cls-58{opacity:0.2;}.cls-59{stroke-width:0.98px;}.cls-60{stroke-width:0.91px;}.cls-61{fill:#f34141;}.cls-62{stroke:#435866;stroke-width:1.97px;}.cls-63{stroke-width:1.69px;stroke-dasharray:20.33;}.cls-64{stroke-width:1.92px;stroke-dasharray:23.05;}.cls-65{stroke-width:1.08px;stroke-dasharray:12.9;}.cls-66{stroke-width:1.52px;stroke-dasharray:18.25;}.cls-67{stroke-width:1.77px;stroke-dasharray:21.2;}.cls-68{stroke-width:1.68px;stroke-dasharray:20.21;}.cls-69{stroke-width:1.46px;stroke-dasharray:17.57;}.cls-70{stroke-width:1.44px;stroke-dasharray:17.29;}.cls-71{stroke-width:1.52px;stroke-dasharray:18.23;}</style><clipPath id="clip-path"><path class="cls-1" d="M913.21,417.18s-.53-4.17-.53-4.17c-.09-.48-.19-1-.28-1.46a526.49,526.49,0,0,0-28.91-99.77,530.78,530.78,0,0,0-40.89-81.17,505.94,505.94,0,0,1-73.12,49.84,510.68,510.68,0,0,1-99.94,42.7,195.74,195.74,0,0,1,11.39,26.54c17.75,51.68,12.42,107,26.62,134.29a134.62,134.62,0,0,0,9,14.48c4.69,6.45,10.16,14.93,17.61,18.73,11.58,5.91,24.46,4.2,33.91,1.84,28.37-7.09,56.72-20.48,93.31-45.15C861.41,473.88,915.74,437.25,913.21,417.18Z"/></clipPath><clipPath id="clip-path-2"><path class="cls-2" d="M693.78,363.52a12.34,12.34,0,0,0-5.8,4.92,11.64,11.64,0,0,0-1.2,7.33l14.28,137.4,85.59-47.89c-3.52-23.87-6.6-43.47-9.31-59.49-1.85-10.93-3-22.43-7-37.91a269.09,269.09,0,0,0-8.58-27.22,9.73,9.73,0,0,0-3.82-3.21c-4.23-1.91-8.95.06-11,.92C728.77,345.85,711.51,355.2,693.78,363.52Z"/></clipPath><clipPath id="clip-path-3"><path class="cls-2" d="M685.43,321.09a8,8,0,0,1,3.7-2.06l29.25-13.29a5.26,5.26,0,0,1,1.2-.47,6.13,6.13,0,0,1,1-.15l13.9-.82c.31.53.77,1.08,1.2,1.71a17.57,17.57,0,0,1,1.06,2.19c.6,1.56,3.08,10.55,6.21,22.93a3.66,3.66,0,0,1,0,2.33,3.75,3.75,0,0,1-.61,1.11L702.7,354.83a4.56,4.56,0,0,1-1.21.73,4.51,4.51,0,0,1-1.59.36l-12.56,2a2.86,2.86,0,0,1-.57-.71,3,3,0,0,1-.34-1c-.1-.79-1.44-13.3-3.25-30.44A7.75,7.75,0,0,1,685.43,321.09Z"/></clipPath><clipPath id="clip-path-4"><path class="cls-1" d="M501,266.68c-6.9-3.66-35.25-17.69-63.19-5.31-22.82,10.11-32.79,32.28-42.57,54a178.87,178.87,0,0,0-15.11,60.85l113,66.73c0-28.91.68-59,2.11-90.34Q497.3,307.95,501,266.68Z"/></clipPath><clipPath id="clip-path-5"><path class="cls-2" d="M401.6,315.72a29.38,29.38,0,0,1,14.07-8.6l160.05-76.49a9.83,9.83,0,0,1,1.2-.27,10.45,10.45,0,0,1,1.38-.12l13.15,2.36a5.3,5.3,0,0,1,1.64.78,6.26,6.26,0,0,1,2.27,3.13c17,60.13,28.13,104.41,29.43,113.31.4,2.68,1.41,9.49-1.7,16.08a21.76,21.76,0,0,1-2.38,3.9C570,399.56,486.35,435,435.59,464.73A17.52,17.52,0,0,1,431,467.8a16.49,16.49,0,0,1-6.09,1.48c-16,2.71.93-.24-15,2.47a12.3,12.3,0,0,1-2.2-3,13.5,13.5,0,0,1-1.31-4.42c-.41-3.31-5.87-56.34-13.23-129A34.47,34.47,0,0,1,401.6,315.72Z"/></clipPath><clipPath id="clip-path-6"><path class="cls-1" d="M533.79,451.54c-.58-27.22,0-57.2,2.55-89.48,2-25.23,4.9-48.83,8.35-70.6,65.3,26.74,86,66.86,92.69,82.84,6.61,15.81,9.35,31.62,14.31,60.19A711.33,711.33,0,0,1,661.55,526Z"/></clipPath><clipPath id="clip-path-7"><path class="cls-3" d="M425.38,331.22A28.76,28.76,0,0,1,439,323l154.29-73.8a9.42,9.42,0,0,1,1.15-.26,8.41,8.41,0,0,1,1.34-.12l12.61,2.13a5.41,5.41,0,0,1,1.57.72,6,6,0,0,1,2.16,3c15.9,56.95,26.29,98.88,27.48,107.32.36,2.55,1.29,9-1.75,15.28a21.44,21.44,0,0,1-2.31,3.72C586.53,409.52,506,443.77,457,472.39a17.14,17.14,0,0,1-4.44,2.95,16,16,0,0,1-5.85,1.45c-15.35,2.69.89-.23-14.46,2.46a11.42,11.42,0,0,1-2.09-2.87,12.23,12.23,0,0,1-1.23-4.18c-.37-3.15-5.24-53.44-11.81-122.32A33,33,0,0,1,425.38,331.22Z"/></clipPath><clipPath id="clip-path-8"><path class="cls-2" d="M575.69,412.27a12.84,12.84,0,0,0-5.9,5.48,14.12,14.12,0,0,0-1.22,8.18l14.34,153L670,525.52c-3.55-26.59-6.67-48.42-9.39-66.25-1.87-12.18-3.06-25-7.1-42.23-3-12.84-6.27-23.23-8.69-30.31a10.15,10.15,0,0,0-3.88-3.56c-4.3-2.12-9.09.07-11.2,1C611.27,392.55,593.73,403,575.69,412.27Z"/></clipPath><clipPath id="clip-path-9"><path class="cls-2" d="M572.89,377.87a8.08,8.08,0,0,1,3.69-2.1l29.24-13.54a4.53,4.53,0,0,1,1.21-.48,4,4,0,0,1,1-.15l12.38-.73a2.23,2.23,0,0,1,1.45.18,1.76,1.76,0,0,1,.39.26c.41.7,1.12,1.92,1.94,3.45a99,99,0,0,1,7.15,21.05,6,6,0,0,1-.47,3.89,5.3,5.3,0,0,1-.63.94l-40,21.75a4.82,4.82,0,0,1-1.21.74,4.52,4.52,0,0,1-1.59.37l-12.56,2a2.88,2.88,0,0,1-.57-.73,3,3,0,0,1-.34-1.06c-.1-.8-1.46-13.6-3.3-31.12A8.05,8.05,0,0,1,572.89,377.87Z"/></clipPath><clipPath id="clip-path-10"><path class="cls-4" d="M807.51,373.37a125.8,125.8,0,0,1-11.81-12.53l-.17-.21c-1.31-1.59-8.07-9.7-12.12-11.06a53.35,53.35,0,0,0-5.25-1.41c-.55-.11-1-.21-1.5-.28L764,348.5a7.81,7.81,0,0,1-2.45,4.06,8.06,8.06,0,0,1-4.32,1.9c-4.8.65-8.44-3.37-8.81-3.79-2.89.53-7.11,1.41-12.14,2.84-5.22,1.48-7.83,2.22-9,3.23-6.38,5.53-4.66,21,2.69,30.61a28.18,28.18,0,0,0,5.58,5.49c-5.3-12.66-6.86-15.13-7.28-15-.82.29,2.14,10.44,3.88,19.2,2.47,12.4,2.77,14.59,3,16.84a79.37,79.37,0,0,1-.48,18.26c-6.47,8.64-7,11.26-6.27,12,1.45,1.48,7.6-4.18,19.05-6.47,5.51-1.11,7.68-.51,13.45-.85A77.21,77.21,0,0,0,787,430.47a82.71,82.71,0,0,1-4.22-20.56c1-6.24,1.74-12.9,2.31-19.94.36-4.5.57-8.94.57-8.94,0-.25,0-.45,0-.57l4,3.49a10.9,10.9,0,0,1,17.83-10.58Z"/></clipPath></defs><g id="Capa_2" data-name="Capa 2"><g id="Capa_1-2" data-name="Capa 1"><path class="cls-5" d="M842.5,759l15-3c0-2.76.07-5.51.11-8.26l-12.73.87Q843.68,753.81,842.5,759Z"/><path class="cls-6" d="M820.84,746.52l15.09,2.84c.33-1.46.65-2.92,1-4.37-2.52.38-5.18.72-8,1S823.41,746.42,820.84,746.52Z"/><path class="cls-7" d="M274.83,379.48l10.35,4.2a25.71,25.71,0,0,1-11.1,22.61q0-5.91.1-12.13Q274.38,386.59,274.83,379.48Z"/><path class="cls-8" d="M755.33,358.81a851.56,851.56,0,0,1,2.25-88c1.92-24.83,4.82-48,8.27-69.45,67.09,26.6,88.5,66.17,95.42,81.93,6.84,15.58,9.72,31.16,14.93,59.3a674.28,674.28,0,0,1,10.48,90.14Z"/><path class="cls-9" d="M888.83,338.58a8.06,8.06,0,0,1,.62-4.28,8.85,8.85,0,0,1,3.64-3.9c5.61-3.49,12-3.58,18.12-6.77,7.27-3.81,14.95-12.48,15.59-13.21a11,11,0,0,1,6.19-3.84,6.73,6.73,0,0,1,1.15-.12c-.94-1.59-2.86-4.24-5.89-4.81a6.6,6.6,0,0,0-3.69.33c-2.16.91-18.3,11.22-40,25.63a8.32,8.32,0,0,0-3.64,3.9,8.18,8.18,0,0,0-.62,4.29c0,2.89.1,34.17,10.88,36.84a6.72,6.72,0,0,0,2.74.08,9.68,9.68,0,0,0,1.58-.36Q892.14,355.47,888.83,338.58Z"/><path class="cls-9" d="M930.18,346.89c1.31-1.19,2.35-2.18,3-2.77.64-2.67,1.19-5.51,1.62-8.53a95.43,95.43,0,0,0-.17-27.6,3.32,3.32,0,0,0-.22-.94,2.51,2.51,0,0,0-.73-1.14,2.69,2.69,0,0,0-2.29-.07,5.28,5.28,0,0,0-2,1c-19,12.3-32.74,21.34-36.27,23.56a8.93,8.93,0,0,0-3.64,3.9,8.06,8.06,0,0,0-.62,4.28c0,2.45.06,25.2,6.62,33.78a10.46,10.46,0,0,0,2.41-1.17,96.7,96.7,0,0,0,9.87-7C916.6,357,920.48,355.69,930.18,346.89Z"/><path class="cls-8" d="M750.93,188c-6.33-3.17-32.33-15.3-58-4.43-21,8.87-30.22,28.21-39.27,47.17a149.72,149.72,0,0,0-14.07,53l103.6,57.78c.11-25.18.8-51.44,2.21-78.69C746.71,236.91,748.61,211.93,750.93,188Z"/><path class="cls-8" d="M763.86,357.82c-3.89-24.95-7-52.31-8.61-81.8-1.23-22.26-1.48-43.34-1.06-63.1,37.22,9.56,90.9,30.53,111.52,75.65,6.32,13.85,9.47,29.67,14.14,54.06a584.42,584.42,0,0,1,9.8,82.2Z"/><path class="cls-10" d="M1016.54,484.18c-62.32-46.92-69.64-46.78-83.85-58.34a38.42,38.42,0,0,1-9.46-11,38,38,0,0,1-4.37-12.53c-4.91-23.41-12.12-37.37-21.6-64.79a630.84,630.84,0,0,0-50.55-110.32c-1-1.08-1.89-2.16-2.84-3.23L841,220.68c-75.92-86.27-186.88-95.89-186.88-95.89-17.94-1.55-50.72-4.07-89.31,8.5-19,6.18-31.72,13.62-54.4,26.77-37.74,21.88-63.7,43.44-81.36,58.22a710.82,710.82,0,0,0-52.45,48.58c-50.46,20.53-82.57,44.3-86.55,50.84A100.4,100.4,0,0,0,283,332.1c-.62,1.62-1.12,3.07-1.51,4.3a118.63,118.63,0,0,0-4.58,20.37c-.09.59-1,6.68-1.41,13.19-.71,11.64.06,23.81,2.3,42.14,4.12,33.66,6.18,50.48,9.46,57.57a112.65,112.65,0,0,0,38,44.52c4.2,2.81,11.27,7,18.38,10.76,10.65,5.59,19.24,9.2,22.67,10.61,38.83,16,70.06,18.52,71,29.76a7.06,7.06,0,0,1-1.07,4.21,1.91,1.91,0,0,0-.11,1.05,2.07,2.07,0,0,0,1.12,1.37c109,61.07,183.58,103.34,189.27,107.79.52.4,3.28,2.69,5.39,1.83,2.7-1.1,1.72-6.24,3.36-8.15,2.92-3.39,16,1.2,46.55,20.2L737,702.84a47.61,47.61,0,0,1,4.6,27.38c36.84,14.81,59.75,24.71,72.91,31.3,6,3,12.07,5,24.15,8.93,0,0,10.18,3.33,19.73,2.65a32.08,32.08,0,0,0,4.18-.58c3.34-.81,5.42-2.3,12.89-4.23,11.72-3,28-4.95,28.23-7.85.19-2.44.2-3.15.2-3.15a2.74,2.74,0,0,1,.19-1.7,3.17,3.17,0,0,1,2.48-1.6A265.28,265.28,0,0,0,1004,698.93a262.4,262.4,0,0,0,46.21-54.36,7.11,7.11,0,0,0,1.47-.94,9,9,0,0,0,2.82-5.77,12.6,12.6,0,0,0-.73-6.66C1056.93,550.9,1037.06,499.63,1016.54,484.18ZM740.41,298.77q-.13,4.1-.24,8.19-.54,19.5-.62,38.57l-46.31-26.39q11.88-4.51,24.52-10Q729.61,304,740.41,298.77ZM766,356.92l-4.31-69c10-5.47,20.54-11.66,31.41-18.67,11.17-7.2,21.42-14.43,30.74-21.48C842.55,264,852.48,280,858,291.19c6.14,12.45,7.93,21.25,16.58,55.09,5.55,21.67,10.18,39,13,49.69Z"/><g class="cls-11"><path class="cls-2" d="M693.78,363.52a12.34,12.34,0,0,0-5.8,4.92,11.64,11.64,0,0,0-1.2,7.33l14.28,137.4,85.59-47.89c-3.52-23.87-6.6-43.47-9.31-59.49-1.85-10.93-3-22.43-7-37.91a269.09,269.09,0,0,0-8.58-27.22,9.73,9.73,0,0,0-3.82-3.21c-4.23-1.91-8.95.06-11,.92C728.77,345.85,711.51,355.2,693.78,363.52Z"/><g class="cls-12"><path class="cls-13" d="M762.9,343.85a4.14,4.14,0,0,0-2.77-3.22,3.81,3.81,0,0,0-2.17,0l-52.81,25.09a13.63,13.63,0,0,0-4.5,5.93,13.39,13.39,0,0,0-.29,8.57q2.92,16.55,5.59,33.53,7.47,47.7,12,92.78l-27.92,15.22L676.22,375.36q64.86-59.06,81.2-48.23Q763.27,331,762.9,343.85Z"/></g><path class="cls-14" d="M710.18,344.76q.78,6.58,1.55,13.17a3.31,3.31,0,0,1-2.15,1.95,3.24,3.24,0,0,1-2.29-.26q-1.15-6.75-2.3-13.52Z"/><path class="cls-14" d="M731.07,334.27q.76,6.57,1.54,13.16a3.16,3.16,0,0,1-4.44,1.7q-1.15-6.76-2.3-13.53Z"/><path class="cls-2" d="M685.43,321.09a8,8,0,0,1,3.7-2.06l29.25-13.29a5.26,5.26,0,0,1,1.2-.47,6.13,6.13,0,0,1,1-.15l13.9-.82c.31.53.77,1.08,1.2,1.71a17.57,17.57,0,0,1,1.06,2.19c.6,1.56,3.08,10.55,6.21,22.93a3.66,3.66,0,0,1,0,2.33,3.75,3.75,0,0,1-.61,1.11L702.7,354.83a4.56,4.56,0,0,1-1.21.73,4.51,4.51,0,0,1-1.59.36l-12.56,2a2.86,2.86,0,0,1-.57-.71,3,3,0,0,1-.34-1c-.1-.79-1.44-13.3-3.25-30.44A7.75,7.75,0,0,1,685.43,321.09Z"/><g class="cls-15"><path class="cls-13" d="M694,313.1c4.13-3.57,20.47-16.91,38.42-12.92a31.1,31.1,0,0,1,6.21,2.09L699.7,319.38a7.15,7.15,0,0,0-3.51,3,7,7,0,0,0-.5,5.7l5.43,27.69-16.9,9.36-8.85-43.79Z"/></g></g><path class="cls-16" d="M737.79,439.06c9.45-9.84,23.93-10.19,30.27-10.34a63,63,0,0,1,17.61,2.1l.57,2c-12,4.93-19,5.87-23.24,5.72a73.38,73.38,0,0,0-13.12.79c-1.23.18-2.45.44-4,.81a39.74,39.74,0,0,0-11.35,4.78l.24-2.13A27.19,27.19,0,0,1,737.79,439.06Z"/><path class="cls-17" d="M789.68,383.72c.7.61,4,3.36,8.07,2.64,4.86-.86,9-6.33,8.94-13.22-5.19-4.9-12.51-4.33-15.84-.3C788.58,375.59,788.22,379.86,789.68,383.72Z"/><path class="cls-9" d="M860.19,703.32c-12.91.65-25,1.06-39.59-4.13a79.18,79.18,0,0,1-28.4-17.82c44.33,7.86,78.31,1.63,84.8-15,1.26-3.22,1.88-7.85-.21-14.46a98,98,0,0,1-45.38,2.68,96.64,96.64,0,0,1-25.6-8.5,142.28,142.28,0,0,0,40.64,1.07c15-1.78,27-5.7,51.91-16.69,54.83-24.19,86.84-44.89,108.24-66.4a62.44,62.44,0,0,0,12-15.83c10-19.39,6.74-40,3.84-51.37q-1.14-4.59-.5-4.86t2.58,2.95l-1.09-1.35c2.74,3.87,8.49,12.81,8.83,22a65,65,0,0,1-.49,10.22c-.07,1-.2,2.37-.46,4.09-.34,2.17-.7,3.5-.89,4.37a18.2,18.2,0,0,0,.24,8.6c1.59,4.88,6.17,9.84,9.46,9s4.61-7.43,4.4-11.51a52.37,52.37,0,0,0-1.23-7.45h0s-4.08-8.81-12.09-26.48a170.66,170.66,0,0,1,13.06,24.8c1.94,4.55,3.1,7.65,3.72,9.51a88.41,88.41,0,0,1,2.61,9.76c2.12,10.77,0,23.63,0,23.63a72.85,72.85,0,0,1-4.12,14.72,44.77,44.77,0,0,0-8.6-26.16,297.34,297.34,0,0,1-134.49,96.71q1.65,17.13,3.29,34.26A157.38,157.38,0,0,1,860.19,703.32ZM930,666.42a302.16,302.16,0,0,0,29.33-16.87A238.25,238.25,0,0,1,930,666.42"/><path class="cls-18" d="M913.12,697.32A172.64,172.64,0,0,1,910,665.18a343.73,343.73,0,0,0,128.54-91.11,107.1,107.1,0,0,1,3.58,12,94.47,94.47,0,0,1,2.23,13.15,91.32,91.32,0,0,1,.05,16.6,265.33,265.33,0,0,1-127.24,98.07C915.66,708.84,914.27,703.3,913.12,697.32Z"/><path class="cls-19" d="M433.88,548a145.19,145.19,0,0,0-28.36-54.63C383,463.48,359.39,455.63,343.4,465.7s-7.5,37.16-7.5,37.16l2.28,6.72c.42,1.3,1.12,3.42,2,6,0,0,1.11,3.11,2.12,5.72,3.73,9.6,38.76,14,38.76,14,13.91,2.12,33.52,8.59,56.25,28.73q-1.74-8.13-3.49-16.26"/><path class="cls-18" d="M375.27,476.85c-13.11,7.1-19.66,10.66-22.91,13.48-13.61,11.81-7.76,42.54-2.37,56.41a91.56,91.56,0,0,0,37.78,45c5,3.05,17.43,7.12,32.22,3.34a48.51,48.51,0,0,0,26.43-18c-4.31-2.39-7.57-4.24-9.18-5.15a2.06,2.06,0,0,1-1-1.07c-.21-.64.15-1.16.57-2.48.21-.63.34-1.3.51-1.95.77-2.88-.84-7.4-.84-7.4-2-5.6-.58-5.62-4.41-17.21h0a138.59,138.59,0,0,0-7.17-18.11,167.73,167.73,0,0,0-24.95-37.85,132.62,132.62,0,0,0-15.26-14C382.44,473,379.18,474.73,375.27,476.85Z"/><path class="cls-20" d="M386.2,507.57c13.59,9.59,26,36.37,28.32,49.54s-1.15,22.35-9.93,26.81-27.67-3.08-39.82-20.52a82.72,82.72,0,0,1-13.71-44.49c-.2-9.81,8.63-30.14,35.14-11.34"/><path class="cls-21" d="M382.05,541c1.3,3.14.74,6.34-1.21,6.94s-4.68-1-6-4.08-.74-6.28,1.28-7,4.6,1,6,4.09"/><path class="cls-19" d="M736,694.86c-1.92-5.34-11.89-31.67-39.44-52.38-16.72-12.58-58.07-37.08-72-21.31-12.68,14.38-1.23,44.37-1.23,44.37l2.27,5c.75,1.87,2,4.14,4.16,4.68,2.29.59,4.51-1.09,5-1.4,10.44-7.11,41.62,17.36,41.62,17.36A125.62,125.62,0,0,0,740.92,714,107.69,107.69,0,0,0,736,694.86Z"/><path class="cls-18" d="M665.5,623.82c-2.3,1.11-5.57,2.74-9.38,4.91a135.75,135.75,0,0,0-16.84,11.11c-11.7,10-8.63,41.88,2.87,64.85,3.32,6.63,18.88,29.71,46.62,41.43,15,6.33,30-.14,34.42-1.4a74.39,74.39,0,0,0,24.32-12.12l-5.91-2.38a65.52,65.52,0,0,0,.09-9.29s-.25-3.41-.77-6.93c-5.62-37.62-38.46-66.75-38.46-66.75A130.84,130.84,0,0,0,665.5,623.82Z"/><path class="cls-20" d="M674.14,658.05c15.72,8,32.92,34.14,37.36,47.59s4.77,25.25-3.68,31.28S675.46,736.5,660.3,720A88.91,88.91,0,0,1,637,673.89c-.59-9.34,6.09-31.63,36.84-15.89Z"/><path class="cls-21" d="M677.68,694.13c1.81,3,1.78,6.69-.2,7.69s-5.05-.35-7-3.36-1.84-6.68.14-7.69,5,.3,7,3.36Z"/><path class="cls-9" d="M1009,520.22c-3.64-14.44-9.53-24-14.23-30C983.57,475.8,972,472,948.24,449.65c-4.41-4.16-7.91-7.7-10.14-10,24.14,18.33,42.68,32.66,54.56,41.19,3.51,2.52,10.81,7.66,14.67,17.1a34.9,34.9,0,0,1,2.53,13.3C1009.56,514.23,1009.27,517.22,1009,520.22Z"/><path class="cls-22" d="M879.83,645.47c.18,3.59.92,26.88-16.24,41.66a42.34,42.34,0,0,1-6.85,4.8l-8.16-4.47c8.1-2.94,14.38-7.64,16.5-12.88,1.18-2.94,2.07-8.58,2.76-12.92.74-4.64.63-5.74-.07-6.33-2-1.68-6.5,2.68-14.18,4.63a24.23,24.23,0,0,1-5.4.75h0c-1.23,0-2.48,0-3.77,0h-.29c-1.14,0-2.4-.11-3.8-.2-8.25-.46-18.7-2-38-5.79-3.68-.73-7.48-2-8.9-.21-.5.63-.54,1.43-.2,2.68q-7.7-4.21-15.4-8.42-.94-2.25-2.06-4.53c-8.08-16.61-19.89-28.82-31.51-37.69a5.64,5.64,0,0,1,2.26-1.88c4.24-1.83,10,2.88,16.79,8.49,10,8.27,15,12.41,16,13.52,11.87,12.17,33.4,23.89,54.24,26.63C841.44,654.3,858.53,655.24,879.83,645.47Z"/><path class="cls-23" d="M857,692c-19.73,11.1-46,5.16-59.93-6.79-8.85-7.59-9.3-14.63-19-36.43l15.39,8.42c.49,1.8,1.76,4.55,3.55,9.15,3.95,10.18,3.42,11.34,5.77,14.27a16,16,0,0,0,1.15,1.29h0c3.44,3.52,7.66,4.88,10.56,6,11.2,4.25,24.22,3.32,34.38-.38Z"/><path class="cls-5" d="M848.81,687.59c-10.15,3.7-23.17,4.63-34.37.38-2.91-1.11-7.13-2.46-10.57-6,3.58,2.38,13.71,8.42,26.2,6.42,3.09-.49,7.86-1.25,12-4.5Z"/><path class="cls-24" d="M839.27,682.23a27.39,27.39,0,0,1-6.22,2.76c-5.08,1.54-9.25,1.19-14.16.72a61.28,61.28,0,0,1-14-3h0q-.6-.62-1.17-1.32c-2.39-3-1.84-4.15-5.86-14.5-1.82-4.67-3.11-7.48-3.61-9.3Z"/><path class="cls-6" d="M845.14,682a18,18,0,0,1-2.23,2.09l-4.35-2.38-44.33-24.26c-.34-1.25-.3-2,.21-2.67,1.41-1.75,5.21-.53,8.89.2,19.34,3.81,29.78,5.33,38,5.8,1.4.08,2.65.15,3.79.2h.3c1.39,0,2.61.08,3.76,0h0C849.61,662.32,852.41,673.92,845.14,682Z"/><path class="cls-25" d="M842.22,684.08a23,23,0,0,1-6.58,3.43,24.12,24.12,0,0,1-5.41,1.07c-3.26.32-10.5,1-18.18-1.41a18.23,18.23,0,0,1-7.87-4.47c-.23-.23-.4-.42-.52-.55a66.22,66.22,0,0,0,14.16,3c4.78.46,8.9.81,13.94-.71a26.47,26.47,0,0,0,6.12-2.72Z"/><path class="cls-26" d="M844.43,682a18.83,18.83,0,0,1-2.23,2.09l-4.35-2.39a22.13,22.13,0,0,0,2.08-1.37,14.86,14.86,0,0,0-.5-19.63c1.6.13,3.27.23,5,.27h.3c1.29,0,2.54,0,3.76,0h0C848.9,662.37,851.7,674,844.43,682Z"/><path class="cls-27" d="M868,661.82c-.69,4.33-1.59,10-2.77,12.91-2.12,5.24-8.4,9.94-16.5,12.89-2.25-1.23-4.49-2.47-6.74-3.69a18,18,0,0,0,2.23-2.09c7.27-8.06,4.47-19.66,4.12-21a24.4,24.4,0,0,0,5.41-.75c7.67-2,12.18-6.31,14.17-4.62C868.66,656.08,868.77,657.18,868,661.82Z"/><path class="cls-28" d="M516.62,293.18q-3.23,21.93-5.47,45.59a862.74,862.74,0,0,0-3,113.45"/><path class="cls-28" d="M508.1,451.89a348,348,0,0,0-3.22,146.82"/><path class="cls-22" d="M822.24,739l24.31,3a15.33,15.33,0,0,0-.69,12.49c2.57,6.48,8.73,8.86,9.72,9.23a45.51,45.51,0,0,1-22.38-10A40,40,0,0,1,822.24,739Z"/><path class="cls-27" d="M880,749.28c1.1.16,2.22.32,3.35.5,4.72.77,9.19,1.7,13.39,2.76l.33-16.69-16.4,4C880.4,743,880.18,746.13,880,749.28Z"/><path class="cls-25" d="M883.67,737.64a16.43,16.43,0,0,1,1.8,12.68l-7.73-1.45a20.07,20.07,0,0,0,.67-7c-1.48.34-3.12.67-4.89,1,.29-1.27.56-2.55.83-3.82Z"/><path class="cls-25" d="M877.74,748.87l7.73,1.45a15.58,15.58,0,0,1-2.84,5.57c-4.72,5.94-12.21,6.57-13.36,6.65.22-1,.44-2,.65-3a18.94,18.94,0,0,0,2.82-2.23A18.32,18.32,0,0,0,877.74,748.87Z"/><path class="cls-25" d="M878.41,741.89a20.07,20.07,0,0,1-.67,7l-5.29-1c.35-1.66.72-3.33,1.07-5C875.29,742.56,876.93,742.23,878.41,741.89Z"/><path class="cls-25" d="M872.45,747.86l5.29,1a18.32,18.32,0,0,1-5,8.44,18.94,18.94,0,0,1-2.82,2.23C870.77,755.65,871.6,751.76,872.45,747.86Z"/><path class="cls-29" d="M873.52,742.86c-.35,1.67-.72,3.34-1.07,5l-26-4.9a81.53,81.53,0,0,0,11.36,1A83.76,83.76,0,0,0,873.52,742.86Z"/><path class="cls-24" d="M872.45,747.86c-.85,3.9-1.68,7.79-2.53,11.68-5.68,3.74-13.09,4.67-18,2.62a14.66,14.66,0,0,1-5.08-3.59,13,13,0,0,1-2.54-5.12,86,86,0,0,1-2.62-11.38c1.46.32,3,.63,4.72.89Z"/><path class="cls-30" d="M827.4,746.87A48,48,0,0,0,836,756.3c4.18,3.49,9.08,7.59,15.62,8.85,8.85,1.69,12.93-3.31,31.37-7.49,5.27-1.19,9.7-1.86,12.69-2.24q.12-10.23.26-20.45a132.92,132.92,0,0,1-42.67,7.42,131.4,131.4,0,0,1-33.62-4.07Z"/><path class="cls-28" d="M1042.1,643.23a279.39,279.39,0,0,1-124.57,93.19"/><path class="cls-9" d="M368,399.64l29.7,14.59a25.17,25.17,0,0,1-.54,4,25.86,25.86,0,0,1-1.57,4.83l-29-13.06a18.64,18.64,0,0,1,.08-6A18,18,0,0,1,368,399.64Z"/><path class="cls-9" d="M520.65,471.13,552.39,487a23.79,23.79,0,0,1-1.12,5.12,24.55,24.55,0,0,1-2.53,5.25l-29.8-14.55a29.76,29.76,0,0,1,1.71-11.71Z"/><path class="cls-28" d="M684.56,560.87Q685.25,574,686,587"/><path class="cls-28" d="M449.87,563.79,484.53,582"/><path class="cls-28" d="M535.87,606.45l67,39.11"/><path class="cls-28" d="M879.05,725.75a79.35,79.35,0,0,1-37.76,2"/><path class="cls-28" d="M683.29,605.12a133.13,133.13,0,0,1,77.28,113.35"/><path class="cls-9" d="M916.09,422.75A227.53,227.53,0,0,1,884,459.54a256.33,256.33,0,0,1-82.73,51.8,225.6,225.6,0,0,1-47.12,12.73c15.37-5.29,30.4-11.09,45-17.8a386.31,386.31,0,0,0,42.26-22.83,384.51,384.51,0,0,0,39-28C892.82,445.24,904.6,434.25,916.09,422.75Z"/><path class="cls-9" d="M600.89,126.38a254.14,254.14,0,0,1,60.78,4.88,277.18,277.18,0,0,1,58.39,18.52,299.13,299.13,0,0,1,27.33,14A280,280,0,0,1,773,180.71a253.56,253.56,0,0,1,44.38,41.81,410.92,410.92,0,0,0-47.55-37.32c-8.38-5.52-16.93-10.76-25.69-15.61L737.47,166c-2.2-1.2-4.47-2.25-6.7-3.39L727.42,161l-3.4-1.59c-2.27-1-4.53-2.13-6.82-3.14a358.62,358.62,0,0,0-56.74-19.62A409.17,409.17,0,0,0,600.89,126.38Z"/><path class="cls-9" d="M469.76,200.3a254.61,254.61,0,0,1,60.78,4.88,277.87,277.87,0,0,1,58.4,18.53,300.26,300.26,0,0,1,27.32,14,277.88,277.88,0,0,1,25.56,16.94,253.22,253.22,0,0,1,44.39,41.81,410.79,410.79,0,0,0-47.56-37.32c-8.38-5.52-16.93-10.76-25.69-15.62L606.34,240c-2.19-1.2-4.46-2.26-6.69-3.39l-3.36-1.69-3.4-1.59c-2.27-1-4.52-2.13-6.82-3.14a358.85,358.85,0,0,0-56.73-19.62A410.68,410.68,0,0,0,469.76,200.3Z"/><g class="cls-31"><path class="cls-2" d="M401.6,315.72a29.38,29.38,0,0,1,14.07-8.6l160.05-76.49a9.83,9.83,0,0,1,1.2-.27,10.45,10.45,0,0,1,1.38-.12l13.15,2.36a5.3,5.3,0,0,1,1.64.78,6.26,6.26,0,0,1,2.27,3.13c17,60.13,28.13,104.41,29.43,113.31.4,2.68,1.41,9.49-1.7,16.08a21.76,21.76,0,0,1-2.38,3.9C570,399.56,486.35,435,435.59,464.73A17.52,17.52,0,0,1,431,467.8a16.49,16.49,0,0,1-6.09,1.48c-16,2.71.93-.24-15,2.47a12.3,12.3,0,0,1-2.2-3,13.5,13.5,0,0,1-1.31-4.42c-.41-3.31-5.87-56.34-13.23-129A34.47,34.47,0,0,1,401.6,315.72Z"/><g class="cls-32"><path class="cls-13" d="M411,286.05c10.11-8.15,131.48-104.36,177.34-64.68a40.59,40.59,0,0,1,9.19,11.71c-86.74,41.54-149.81,72.42-164.39,79.72-2.91,1.46-9.42,4.91-13.34,12.41-5.8,11.11-4,22.3-3.46,24.05,7.15,39.13,10.71,93.81,17.85,133-21.42,13.06-37.55,10.66-59,23.73q-17.48-92.83-34.93-185.65Z"/></g></g><ellipse class="cls-33" cx="795.64" cy="378.15" rx="7.43" ry="7.27" transform="translate(-22.08 50.48) rotate(-3.58)"/><path class="cls-34" d="M838.15,446.1a18.12,18.12,0,0,0,13.32,14.34"/><path class="cls-34" d="M792.93,469.82a18.15,18.15,0,0,0,7.49-18.08"/><path class="cls-34" d="M818.21,458.74l1.29,20.49,5.57-.84"/><g class="cls-35"><path class="cls-36" d="M448.6,476l133-67.95q7.15,24.42,14.3,48.84l-94.76,82.71Z"/><path class="cls-3" d="M425.38,331.22A28.76,28.76,0,0,1,439,323l154.29-73.8a9.42,9.42,0,0,1,1.15-.26,8.41,8.41,0,0,1,1.34-.12l12.61,2.13a5.41,5.41,0,0,1,1.57.72,6,6,0,0,1,2.16,3c15.9,56.95,26.29,98.88,27.48,107.32.36,2.55,1.29,9-1.75,15.28a21.44,21.44,0,0,1-2.31,3.72C586.53,409.52,506,443.77,457,472.39a17.14,17.14,0,0,1-4.44,2.95,16,16,0,0,1-5.85,1.45c-15.35,2.69.89-.23-14.46,2.46a11.42,11.42,0,0,1-2.09-2.87,12.23,12.23,0,0,1-1.23-4.18c-.37-3.15-5.24-53.44-11.81-122.32A33,33,0,0,1,425.38,331.22Z"/><g class="cls-37"><path class="cls-13" d="M435.31,302.3c9.77-7.81,127-100,170.83-62.72a37.88,37.88,0,0,1,8.74,11c-83.62,40.07-144.43,69.86-158.49,76.9-2.8,1.4-9.08,4.73-12.9,11.88-5.65,10.58-4,21.19-3.49,22.85,6.59,37.09,9.63,89,16.22,126.05-20.68,12.56-36.15,10.4-56.83,23q-16.12-88-32.26-175.94Z"/></g><path class="cls-2" d="M575.69,412.27a12.84,12.84,0,0,0-5.9,5.48,14.12,14.12,0,0,0-1.22,8.18l14.34,153L670,525.52c-3.55-26.59-6.67-48.42-9.39-66.25-1.87-12.18-3.06-25-7.1-42.23-3-12.84-6.27-23.23-8.69-30.31a10.15,10.15,0,0,0-3.88-3.56c-4.3-2.12-9.09.07-11.2,1C611.27,392.55,593.73,403,575.69,412.27Z"/><g class="cls-38"><path class="cls-13" d="M646,390.28a4.49,4.49,0,0,0-2.81-3.57,3.54,3.54,0,0,0-2.21,0l-53.71,28a15.15,15.15,0,0,0-4.57,6.61,16.24,16.24,0,0,0-.31,9.55q3,18.42,5.63,37.34,7.54,53.13,12.11,103.33l-28.4,17Q564.77,507,557.83,425.48q66-65.85,82.59-53.8Q646.36,376,646,390.28Z"/></g></g><path class="cls-2" d="M572.89,377.87a8.08,8.08,0,0,1,3.69-2.1l29.24-13.54a4.53,4.53,0,0,1,1.21-.48,4,4,0,0,1,1-.15l12.38-.73a2.23,2.23,0,0,1,1.45.18,1.76,1.76,0,0,1,.39.26c.41.7,1.12,1.92,1.94,3.45a99,99,0,0,1,7.15,21.05,6,6,0,0,1-.47,3.89,5.3,5.3,0,0,1-.63.94l-40,21.75a4.82,4.82,0,0,1-1.21.74,4.52,4.52,0,0,1-1.59.37l-12.56,2a2.88,2.88,0,0,1-.57-.73,3,3,0,0,1-.34-1.06c-.1-.8-1.46-13.6-3.3-31.12A8.05,8.05,0,0,1,572.89,377.87Z"/><g class="cls-39"><path class="cls-13" d="M581.2,372c4.13-3.65,20.45-17.26,38.41-13.16a30.2,30.2,0,0,1,6.21,2.14L587,378.4a7.05,7.05,0,0,0-3.51,3,7.28,7.28,0,0,0-.48,5.83l5.46,28.31-16.89,9.54-8.91-44.77Z"/></g><line class="cls-40" x1="755.68" y1="329.23" x2="728.34" y2="384.66"/><path class="cls-8" d="M532.29,453.81a851.62,851.62,0,0,1,2.25-88c1.92-24.83,4.82-48,8.27-69.44,67.09,26.59,88.5,66.16,95.42,81.92,6.84,15.59,9.72,31.16,14.92,59.3a673.11,673.11,0,0,1,10.49,90.14Z"/><path class="cls-8" d="M501.86,267.14c-7.4-3.41-37.83-16.49-68-4.52-24.68,9.78-35.6,30.88-46.32,51.57A155.08,155.08,0,0,0,370.73,372l121.21,62.37c.27-27.41,1.22-56,3-85.7C496.66,320.44,499,293.23,501.86,267.14Z"/><path class="cls-41" d="M455.81,285.62l-41.33,29.95"/><path class="cls-41" d="M437.17,286.42,420,298"/><path class="cls-41" d="M591.08,343.42l-41.33,29.95"/><path class="cls-41" d="M572.72,342.48l-17.2,11.63"/><path class="cls-9" d="M496.17,441.7c-5.09,5.68-33.72-13.92-75.16-37.31-23.82-13.44-43.8-23.57-57.15-30.12a255.21,255.21,0,0,1,16.81-56.21c10.71-24.85,20-45.6,41.73-56.52a71.28,71.28,0,0,1,19.08-6.14c27.07-5.53,49.77,1.26,62,6.09l4.26,5.06a699.78,699.78,0,0,0-10.65,76.3,691.94,691.94,0,0,0-1.61,90.91C497.53,438.66,497.05,440.73,496.17,441.7ZM431,269.33c-15.37,6.61-22.9,18.86-31.77,33.75a180.88,180.88,0,0,0-23.53,68.16q25.18,14.13,51.34,28.24,29.52,15.9,58.42,30.78a546.77,546.77,0,0,1,10.56-153.55,75.75,75.75,0,0,0-25.48-10.11C465,265.49,447.85,262.09,431,269.33Z"/><path class="cls-9" d="M668.42,545.22c-6,1.12-12-7.15-13.36-8.82-8.68-10.69-41.22-33-133.55-81.08A689.43,689.43,0,0,1,536.29,276.6a176.22,176.22,0,0,1,69.4,43.17c4,4.09,21.74,22.4,36.28,52.7,7.6,15.81,12.1,30.48,24.44,97.88,4.76,26,8.48,47.78,11.09,63.53C675.79,538.63,672.94,544.38,668.42,545.22ZM537,369.24c-2.63,28.86-3.57,55.75-3.46,80.26l129.13,77.27c-3.14-20.79-6.08-38.26-8.4-51.47-3.7-21.1-3.31-16.74-5.63-30.55-3.51-21-4.51-31.31-9.23-47.15-2-6.77-4-12.17-5.33-15.58A182.34,182.34,0,0,0,625,366a179.35,179.35,0,0,0-34.36-39.66A170.51,170.51,0,0,0,546.45,299C542.63,320.54,539.34,344,537,369.24Z"/><path class="cls-42" d="M649.49,450.11a95.78,95.78,0,0,0-15.6,32.06,97.65,97.65,0,0,0-3.26,31.22l26.12,18.17q5.73,2.36,8.81.33Q677.49,524,649.49,450.11Z"/><path class="cls-42" d="M631.87,498.71c9.22,6.79,9.6,10.86,15.92,12.44,2.2.54,4,1,5.61,0,4.5-2.88,4.19-15.71-2.06-23.1a18.81,18.81,0,0,0-9-5.75l-17.19,3a13.56,13.56,0,0,0,1.71,8.75C628.19,496.21,629.62,497.06,631.87,498.71Z"/><path class="cls-9" d="M588.49,507.45a9,9,0,0,1,.72-4.74,9.39,9.39,0,0,1,4.09-4.35c24.43-16.07,42.56-27.58,45-28.6a5.79,5.79,0,0,1,1-.3h0a11.56,11.56,0,0,0-6.43-3.12,8.6,8.6,0,0,0-4.14.38c-2.42,1-20.54,12.53-45,28.61a9.4,9.4,0,0,0-4.09,4.34,9,9,0,0,0-.72,4.75c0,3.19-.07,37.83,12,40.73a7.4,7.4,0,0,0,3.06.07,8.85,8.85,0,0,0,1.77-.41C588.43,535.36,588.46,510.16,588.49,507.45Z"/><path class="cls-9" d="M629.29,522.28a16.75,16.75,0,0,0,5.46-5.86,15.52,15.52,0,0,0,1.29-3.13q1.62-21.91,3.22-43.83a5.79,5.79,0,0,0-1,.3c-2.42,1-20.55,12.53-45,28.6a9.39,9.39,0,0,0-4.09,4.35,9,9,0,0,0-.72,4.74c0,2.71-.06,27.91,7.23,37.36a12,12,0,0,0,2.71-1.3C604.44,539.67,606.94,537,629.29,522.28Z"/><path d="M742.19,267.16l37.65,81.43-7.9,1.13q-18.21-39.21-36.41-78.43Z"/><path class="cls-33" d="M754.06,365.85c-.39.33-2.5,2.1-3.85,1.28s-1.94-4.73-.15-9.26q.38-8.85.74-17.69a9.85,9.85,0,0,1-6.86,3.45,9.66,9.66,0,0,1-8.5-5,17,17,0,0,1-1.73-6.89c0-.26,0-.53,0-.79-.49-8.74.48-8.82.58-14.18a138.38,138.38,0,0,0-1.17-18.9c10.4-5.67,18.29-4.79,28,2.45-1.19,6-3.85,21.56-1.76,36.33a85.22,85.22,0,0,0,2.31,10.92A69.57,69.57,0,0,0,768.35,363Z"/><path class="cls-4" d="M807.51,373.37a125.8,125.8,0,0,1-11.81-12.53l-.17-.21c-1.31-1.59-8.07-9.7-12.12-11.06a53.35,53.35,0,0,0-5.25-1.41c-.55-.11-1-.21-1.5-.28L764,348.5a7.81,7.81,0,0,1-2.45,4.06,8.06,8.06,0,0,1-4.32,1.9c-4.8.65-8.44-3.37-8.81-3.79-2.89.53-7.11,1.41-12.14,2.84-5.22,1.48-7.83,2.22-9,3.23-6.38,5.53-4.66,21,2.69,30.61a28.18,28.18,0,0,0,5.58,5.49c-5.3-12.66-6.86-15.13-7.28-15-.82.29,2.14,10.44,3.88,19.2,2.47,12.4,2.77,14.59,3,16.84a79.37,79.37,0,0,1-.48,18.26c-6.47,8.64-7,11.26-6.27,12,1.45,1.48,7.6-4.18,19.05-6.47,5.51-1.11,7.68-.51,13.45-.85A77.21,77.21,0,0,0,787,430.47a82.71,82.71,0,0,1-4.22-20.56c1-6.24,1.74-12.9,2.31-19.94.36-4.5.57-8.94.57-8.94,0-.25,0-.45,0-.57l4,3.49a10.9,10.9,0,0,1,17.83-10.58Z"/><g class="cls-43"><path class="cls-44" d="M785.88,374.25c-.77-.85-1.53-1.7-2.3-2.54-1,4.44-2.38,10.87-3.64,18.7-1.55,9.64-2.31,14.57-2,19.88a53,53,0,0,0,6.69,22.53l15-.18Z"/><path class="cls-45" d="M785.66,380.46l-1.69-.75a60.45,60.45,0,0,0-3.73,10.07,61.27,61.27,0,0,0-2,19.88,53,53,0,0,0,6.68,22.53l15-.18Z"/><path class="cls-45" d="M728.29,383.7l2.52-2.77c1.39,4.3,3.29,10.53,5.26,18.17,2.49,9.7,3.79,14.64,4,19.53a49.05,49.05,0,0,1-5.23,23.1,6.81,6.81,0,0,1-3.82,3.58,7.08,7.08,0,0,1-7.42-2.06c4.84-9.87,11.81-28.22,7.59-49.42A67.93,67.93,0,0,0,728.29,383.7Z"/></g><path class="cls-46" d="M770.07,391.28a1.54,1.54,0,0,1-1.59-1.38l-1.07-17a1.43,1.43,0,0,1,2.86-.18l1.07,17A1.43,1.43,0,0,1,770.07,391.28Z"/><path class="cls-46" d="M757.5,385.88a1.4,1.4,0,1,1-.19-2.8l5.09-.35h0a1.4,1.4,0,1,1,.19,2.79l-5.09.36Z"/><path class="cls-46" d="M775.09,373.8l-13.06.82a1.4,1.4,0,1,1-.17-2.8l13-.82a1.4,1.4,0,1,1,.18,2.8Z"/><path class="cls-46" d="M748.67,373.59l2.71,4.93a1.39,1.39,0,0,1-.44,1.6,1.47,1.47,0,0,1-2.1-.32l-3-5.4s.33-1.34,1.27-1.5A1.44,1.44,0,0,1,748.67,373.59Z"/><path class="cls-46" d="M758,372.93l9.16,16.65a1.44,1.44,0,0,1-2.56,1.3l-9.46-17.14s.33-1.34,1.27-1.5A1.44,1.44,0,0,1,758,372.93Z"/><path class="cls-46" d="M749,374.13c-.47-1.19-1.26-1.24-1.26-1.24a1.46,1.46,0,0,0-1.65.88l-7.14,17.58a1.25,1.25,0,0,0,.75,1.64,1.53,1.53,0,0,0,2-.81Z"/><path class="cls-46" d="M758.26,373.47c-.46-1.19-1.26-1.24-1.26-1.24a1.45,1.45,0,0,0-1.64.89l-4.51,11.16a1.43,1.43,0,0,0,.65,1.79,1.49,1.49,0,0,0,2-.66Z"/><path class="cls-33" d="M818.78,387.15c-11.62,2.89-40.38,6.49-52,9.38a6,6,0,0,0-2.38,8.14c1.92,3.65,6.57,5,7,5.1,12.2-4.88,41.56-10.46,53.76-15.33"/><path class="cls-47" d="M830.48,420.08l-19.54-5.3c.09-2.63.18-5.27.28-7.9l25.11,7.94Z"/><path class="cls-47" d="M845.29,409.42l5.47-19.13,8.08.25-8.19,24.6Z"/><path class="cls-47" d="M821,421.42a29.44,29.44,0,0,1,14.82-18,30.52,30.52,0,0,1,23.8-1.26Z"/><path class="cls-33" d="M843.05,379.65a93.66,93.66,0,0,1-21.87-2.17c-2.86-.64-5.46-1.39-12.19-3q-6.42-1.48-12.62-2.78a5.68,5.68,0,0,0-5.15,6.29c.32,4,3.95,6.91,4.27,7.17L840,386.32"/><path class="cls-26" d="M872.44,747.87l13.09,2.35a15.92,15.92,0,0,0,.31-6.81,14.82,14.82,0,0,0-.73-2.63l-11.63,2.43C873.13,744.77,872.78,746.32,872.44,747.87Z"/><path class="cls-48" d="M1029.08,538.47c3.78,10.48,9.26,17,12.2,16.25s4.58-9,2.92-19.89c-4.78-10.68-8.17-18.56-10.49-24.05-2.2-5.2-4-10.41-8.74-15.9a42.1,42.1,0,0,0-7.92-7.06,41,41,0,0,1,15,30.09l-.71,10.86A62.92,62.92,0,0,1,1029.08,538.47Z"/><path class="cls-49" d="M1031.69,503.46c2.19,3.87,4,7.25,5.28,9.9,1.49,3,2.66,5.56,5,10.7,2.52,5.52,3.77,8.31,4.25,9.89a33.42,33.42,0,0,1,1.37,12.35c-.27,3.5-.73,9.22-3.56,10-2.28.65-5-2.24-5.79-3.19a55.08,55.08,0,0,0,1.32-12,56.48,56.48,0,0,0-5.19-23.48Z"/><path class="cls-50" d="M1036.11,549.23c.91-1.56,6-10.57,2.33-19.83a19.49,19.49,0,0,0-3.73-5.94,61.11,61.11,0,0,1-.55,6.49,60.24,60.24,0,0,1-2.32,10.11Q1034,544.65,1036.11,549.23Z"/><path class="cls-51" d="M1029.47,540.15a47.44,47.44,0,0,0-12.4-52.22,34,34,0,0,1,11.8,9.41,33.53,33.53,0,0,1,4.43,7.32c-.14,1.33-.28,2.66-.41,4a54.88,54.88,0,0,1,1.53,19.64,53.7,53.7,0,0,1-2.58,11.76,49.3,49.3,0,0,0,5.72,11.27c1.67,2.41,3.31,4.25,5.63,4.53a5.43,5.43,0,0,0,1.79-.09,2.61,2.61,0,0,1-1.47,1.32C1039.56,558.26,1032.69,546.21,1029.47,540.15Z"/><path class="cls-9" d="M408.53,236.37c-6.91,6.54-13.8,13-20.47,19.71-3.32,3.37-6.66,6.7-9.88,10.15s-6.47,6.86-9.6,10.4-6.25,7.06-9.32,10.64-6.06,7.24-9.05,10.9c-5.93,7.35-11.67,14.87-17.42,22.44A214.1,214.1,0,0,1,348,296.44c2.74-3.9,5.69-7.63,8.64-11.38s6.09-7.33,9.28-10.88A261.9,261.9,0,0,1,386.11,254,216.34,216.34,0,0,1,408.53,236.37Z"/><path class="cls-52" d="M754.16,298.9c-4.59,2.13-7.83,2.11-10,1.67-2.89-.6-6-.6-8.71-1.65a2,2,0,0,0-1.47-.12c-.56.24-.82.9-1.36,1.18-.86.45-1.89-.3-2.41-1.13a7.36,7.36,0,0,1-.84-5.49,11.44,11.44,0,0,1,2.66-5,15.62,15.62,0,0,1,20.33-2.75c1.43.94,2.7,2.12,4.11,3.1a9,9,0,0,0,4.73,1.83c1.08,0-1.35,0-.28.07,2.87.19,5.11,2.84,5.71,5.66s-.09,5.74-.95,8.49c-.69,2.21-1.27,3.41-2.52,4.4-3.53,2.78-6.75.83-7.78-2-.49-1.33.53-2.26.12-4.79A9.14,9.14,0,0,0,754.16,298.9Z"/><path class="cls-52" d="M744.92,306.32a1.76,1.76,0,0,0,.41,1.33.9.9,0,0,0,1.06.17s4.51-1.68,7,2a.75.75,0,0,0,.28.25l.19.09a.52.52,0,0,0,.72-.45,1.28,1.28,0,0,0-.21-.89A8.87,8.87,0,0,0,744.92,306.32Z"/><path class="cls-52" d="M737.82,306.9a1.59,1.59,0,0,1,0,1.21.64.64,0,0,1-.84.15s-4.11-1.57-5.36,1.76a.49.49,0,0,1-.18.22l-.14.08c-.24.13-.6-.08-.69-.41a1.14,1.14,0,0,1,0-.81S732.55,305.07,737.82,306.9Z"/><ellipse class="cls-53" cx="749.14" cy="320.13" rx="3.26" ry="3.09" transform="translate(-41.19 122.45) rotate(-9.1)"/><ellipse class="cls-53" cx="737.22" cy="319.44" rx="2.79" ry="2.65" transform="translate(-41.23 120.56) rotate(-9.1)"/><path class="cls-33" d="M741.58,311.42a15.91,15.91,0,0,1-2.52,6.59c-1.94,2.84-4.33,4.21-3.89,5.23.18.43.64.29,3.9.92,2.23.43,3,.69,3.84.2.06,0,1.16-.71,1.09-1.71a2.18,2.18,0,0,0-2-1.71"/><path class="cls-54" d="M741.42,311.38a15.76,15.76,0,0,1-3.29,7.59c-.72.9-1.56,1.69-2.33,2.54-.36.4-.88.93-.85,1.52a.69.69,0,0,0,.47.63,9.8,9.8,0,0,0,1.93.36c1.27.21,2.51.51,3.78.7a2.71,2.71,0,0,0,1.86-.22,2.15,2.15,0,0,0,1.17-1.85c-.07-1.08-1.17-1.7-2.12-1.86-.21,0-.3.28-.09.31,1.08.19,2.4,1.12,1.67,2.35a2.17,2.17,0,0,1-1.4,1,7.43,7.43,0,0,1-2.52-.32q-1.5-.3-3-.54a3.49,3.49,0,0,1-1.25-.26c-.34-.25-.09-.7.1-1a15.42,15.42,0,0,1,1.68-1.85,19.8,19.8,0,0,0,2-2.4,16.14,16.14,0,0,0,2.54-6.62c0-.21-.28-.3-.32-.09Z"/><path class="cls-33" d="M756.91,304.86c.16-.09,6.23-2.53,6.48,4.66s-6.17,5.87-6.19,5.66S756.91,304.86,756.91,304.86Z"/><path class="cls-55" d="M759.07,311.94a4.55,4.55,0,0,1,.74-3.52,4.2,4.2,0,0,1,1.42-1.17"/><path class="cls-55" d="M761,310.16a3.42,3.42,0,0,0-.73.17,3.19,3.19,0,0,0-1.24.8"/><path class="cls-55" d="M750.81,312.63a3.27,3.27,0,0,0-4.48.63"/><path class="cls-55" d="M738.76,313.51a2.51,2.51,0,0,0-2.94-.88"/><path class="cls-52" d="M755.82,302.85a62.55,62.55,0,0,0-.82,14.63,13.2,13.2,0,0,1-1.12,7,5.88,5.88,0,0,1-2.93,3.19c-1.18.46-2.24.23-4-.15-3.25-.71-3.31-1.68-5-1.54s-2.23,1.33-4.54,1.38a4.28,4.28,0,0,1-2.34-.43c-1.93-1.07-2.08-3.74-2.1-4.09a16.32,16.32,0,0,1-1.46,6.47,13.52,13.52,0,0,0-1.43,3.92,19.15,19.15,0,0,0-.48,5.09c0,5.76.07,8.63.32,9.21,2.47,5.64,17.08,8.3,24.27,2,4.14-3.63,6.59-10.29,6-14.77a22.39,22.39,0,0,1-.77-6.67c.11-1.93-1-3.7-.6-4.94a13.32,13.32,0,0,0,.17-5C759.26,315.63,758.85,311.26,755.82,302.85Z"/><path class="cls-56" d="M738,331.59s4.64,7.63,9.11.23"/><path class="cls-47" d="M809.36,429.9c-1.24-19.73,14.11-36.75,34.28-38A36.64,36.64,0,0,1,878,410.31l7.95-5.17a46.18,46.18,0,0,0-42.85-22.53c-25.41,1.59-44.75,23-43.19,47.88A44.21,44.21,0,0,0,809.2,455l8-5.17A35.06,35.06,0,0,1,809.36,429.9Z"/><path class="cls-33" d="M829.5,384.37l.77.27a12.13,12.13,0,0,1,2.43,1.1,6.05,6.05,0,0,1,1.18,1,11.63,11.63,0,0,1,.8,1.05l.61.87c.28.4.58,1.48-.23,1.56a1.16,1.16,0,0,1-.57-.13,1.42,1.42,0,0,1-.51-.32,2.73,2.73,0,0,1-.37-.52,5.66,5.66,0,0,0-2.46-1.92,11.2,11.2,0,0,0-1.13-.47,4.07,4.07,0,0,0-1.25-.37,5,5,0,0,0,.62.59q.61.58,1.17,1.2a14.94,14.94,0,0,1,2.48,3.64,7.46,7.46,0,0,0,.55.9,2.18,2.18,0,0,1,.57,1,.51.51,0,0,1-.12.49,1.28,1.28,0,0,1-1.15-.17c-1.79-1.77-3.54-3.59-5.28-5.41-.13-.14-.24-.32-.36-.48a3.91,3.91,0,0,0,.48,1c.23.27.51.49.75.75,1.07,1.14,1.31,2.83,2.28,4.06a3,3,0,0,1,.9,1.66.58.58,0,0,1-.24.54.6.6,0,0,1-.52-.05,4.31,4.31,0,0,1-1.52-1.39c-.48-.68-.84-1.42-1.37-2.06a16.42,16.42,0,0,0-1.77-1.67c-.24-.2-.49-.42-.71-.64s-.61-.51-.55-.76c0,0,0,.08,0,.12s-.23.2-.23.34a.34.34,0,0,0,.07.19c.31.53.63,1.05.9,1.6s.46,1.12.7,1.68a5.1,5.1,0,0,0,.82,1.41c.31.37.89.52,1,1a1.45,1.45,0,0,1-.07.62.75.75,0,0,1-.26.39.74.74,0,0,1-.51.05c-.93-.2-1.3-1-1.74-1.72s-.86-1.48-1.28-2.23a10,10,0,0,0-1.79-2.78,1,1,0,0,0-.61-.29,9.27,9.27,0,0,0-2.57.32c-1.48,0-1.91-.36-2.06-.66-.73-1.42,3.12-5.41,6.78-6.07a9.31,9.31,0,0,1,3-.05A9.2,9.2,0,0,1,829.5,384.37Z"/><path class="cls-33" d="M840.39,384.61l-.2.79a11.89,11.89,0,0,0-.46,2.63,5.69,5.69,0,0,0,.18,1.54c.11.43.27.85.42,1.26l.38,1c.17.46.9,1.31,1.42.69a1.16,1.16,0,0,0,.21-.54,1.79,1.79,0,0,0,0-.61,3,3,0,0,0-.23-.59,5.59,5.59,0,0,1-.21-3.12c.06-.4.15-.8.25-1.2a4,4,0,0,1,.39-1.24,3.87,3.87,0,0,1,.14.85c.09.55.21,1.09.34,1.63a14.87,14.87,0,0,0,1.62,4.1,9.18,9.18,0,0,1,.44,1,2,2,0,0,0,.48,1,.49.49,0,0,0,.47.18,1.26,1.26,0,0,0,.51-1q-.71-3.72-1.52-7.41c0-.19-.13-.38-.19-.57.2.36.48.56.59,1s.12.7.2,1c.35,1.53,1.61,2.68,2.08,4.17a3,3,0,0,0,.87,1.67.53.53,0,0,0,.57.11.6.6,0,0,0,.26-.45,4.44,4.44,0,0,0-.3-2c-.29-.78-.7-1.5-.93-2.29a14.93,14.93,0,0,1-.38-2.41c0-.31-.08-.63-.14-.95s-.08-.78-.32-.87c0,0,.06.05.11,0s.3-.08.41,0a.41.41,0,0,1,.12.17c.26.55.51,1.11.81,1.64s.67,1,1,1.53a5.24,5.24,0,0,1,.7,1.47c.13.46-.07,1,.32,1.39a1.37,1.37,0,0,0,.55.28.69.69,0,0,0,.47,0,.74.74,0,0,0,.32-.39,2.87,2.87,0,0,0-.44-2.4c-.36-.78-.74-1.54-1.13-2.31-.92-1.82-.86-2.32-1.29-3.05-1.6-2.72-7.23-3.36-8.33-1.75C840.5,381.22,841,382.26,840.39,384.61Z"/><path class="cls-18" d="M721.49,504c8.2,6.63,20.76,6,36.91,2,37.77-9.5,75.24-33,93.32-45.14,0,0,54.33-36.63,51.79-56.71L903,400c-.09-.48-.18-1-.27-1.47q-1.17-5.88-2.33-11.77a41.53,41.53,0,0,0-5.1-2.7s-1.45-.65-3.61-1.37a31.38,31.38,0,0,0-7.88-1.86c-4.25-.29-7.6,1.07-10.41,2.22-3.33,1.36-3.27,1.71-7.66,3.82a21.24,21.24,0,0,1-6.94,2.06,20.82,20.82,0,0,1-5.69-.14c-3.45-.48-4.77-1.54-10.21-1C830.77,389,818,396,811.19,407.36a37.09,37.09,0,0,0-3.8,8.74c-15.3,7.29-31.25,15.46-47.68,24.61-20.32,11.31-39,22.81-56.08,34.13a75.74,75.74,0,0,0,4.2,10.18C708.16,485.68,714.64,498.45,721.49,504Z"/><path class="cls-57" d="M733.44,389.52q5.68,6.68,11.36,13.34l5-3.6a5.94,5.94,0,0,1-4.19,5.76,5.45,5.45,0,0,1-4-.79l-6.82-9.93Z"/><path d="M777.62,345.4a9.51,9.51,0,0,1,1.61,4.07c.53,3.84-1.66,7-2.11,7.73-3,4.69-16.76,37.45-35.91,84.26L735,444.53Q751.5,400.42,768,356.29c.62-1.49,1.26-3.1,2-5a5.39,5.39,0,0,0,.48-2.83,4.85,4.85,0,0,0-.65-1.82Z"/><ellipse class="cls-33" cx="770.04" cy="402.91" rx="7.83" ry="6.85" transform="translate(-56.84 670.44) rotate(-45.55)"/><path class="cls-57" d="M748.77,369.67,760,379.21l-1.87,3.93Z"/><path class="cls-17" d="M744.83,403.09a30.54,30.54,0,0,0,11.83-14.87,27.45,27.45,0,0,0,1.44-6.47,19.87,19.87,0,0,0-11.36,9.44A19.41,19.41,0,0,0,744.83,403.09Z"/><path class="cls-4" d="M736.29,353.51c-1.31.14-9.12,1.14-13.06,7.39-4.46,7.07-2.29,18.22,6.49,25.31l14.74,13.12a24.15,24.15,0,0,1,7-13.26,23.12,23.12,0,0,1,6.6-4.32Z"/><path class="cls-33" d="M771.46,396.39l-17-12.7a23,23,0,0,0-8.81,11.14,47.78,47.78,0,0,0,22.12,15.32"/><path class="cls-58" d="M899.06,416.84a23.12,23.12,0,0,0,3.2-6.75,22.61,22.61,0,0,0,.8-4.84c-.08-.84-.22-2.22-.44-3.92a125.72,125.72,0,0,0-2.77-14.76c-2.87-11.63-4-20.22-7.13-32.61-4.34-17-9.6-29.65-14.84-42.15A543.94,543.94,0,0,0,838,235.44,417.4,417.4,0,0,1,766.77,285a417.82,417.82,0,0,1-99.62,39.2c4,11,6.66,20.05,8.18,25.54,12.46,45.08,23.61,121.91,32.31,136.71a99.93,99.93,0,0,0,8.41,11.88,44.16,44.16,0,0,0,5.88,6.27c3.18,2.54,9.09,5.45,24.82,3.54a110.71,110.71,0,0,0,27.24-7c13.3-5.14,28.57-11.13,49.53-23.21a364.22,364.22,0,0,0,31.73-20.56c6.19-4.49,17.86-13.19,29.67-23.71A97,97,0,0,0,899.06,416.84Z"/><path class="cls-10" d="M709.64,273.23a75.87,75.87,0,0,1,30.26-10.75l20.24,12.18,73.47-34.76C801,266,773.43,282.17,755.55,291.52A342.84,342.84,0,0,1,715,309.72a314.84,314.84,0,0,1-39.59,11.6C677.18,314.35,684.71,288.8,709.64,273.23Z"/><path class="cls-59" d="M742,344.1l-19.53,43"/><path class="cls-60" d="M728.58,349.42q-5.76,12.87-11.51,25.75"/><path class="cls-61" d="M275.3,383.25a29.75,29.75,0,0,0,10.08-12.76c2.53-6.45,1.15-10.69,2.13-16.07,1-5.73,4.88-13.57,18-21.78l-20.37-5.5a19.53,19.53,0,0,0-5.83,4.75c-7.51,9.16-3.42,22.17-2.92,23.7-.5,5.41-.86,11.14-1,17.15C275.25,376.35,275.24,379.86,275.3,383.25Z"/><path class="cls-9" d="M339.45,305.82a30.55,30.55,0,0,1-6.15-.36,52.7,52.7,0,0,1-5.89-1.27,48.75,48.75,0,0,1-5.71-2,29,29,0,0,1-5.44-2.88,29.76,29.76,0,0,1,6.15.35,51.2,51.2,0,0,1,5.9,1.28,49.24,49.24,0,0,1,5.7,2A29.63,29.63,0,0,1,339.45,305.82Z"/><path class="cls-28" d="M352,389q-1.74,27.3-3.49,54.59a95,95,0,0,1,28.89,8.31c21.84,10.29,33.67,26.28,41.59,37.24a147.47,147.47,0,0,1,25.59,62.39"/><path class="cls-28" d="M297.68,465.78a87.35,87.35,0,0,0,24.82,29.44"/><path class="cls-9" d="M802.37,612.62h0c-33-22-65.6-49.68-71.38-54.6-1.92,1.25,1.45,10.1,24.5,32.79A339.77,339.77,0,0,0,784,615.63l-3.08-1.4c-13.42-7.17-54.71-38.79-83.54-64.65l.49-.42a21.63,21.63,0,0,0,7.34-10.28c2.56-8.34-12.39-15.47-15.83-23.57-2-4.81-4.2-15.77-8.53-37.7-3-15.41-2.32-17.47-5.49-40.14-3.51-25.17-5.6-40.12-10.52-57.19-.58-2-7.29-24.86-18.87-45.74C606.5,263.29,522.28,242,517.17,240.81c-22.14-5.27-48.24-11.11-77.69.33-22.39,8.69-36.78,23.5-44.36,32.75a6.9,6.9,0,0,0-2.58-2.24,7.64,7.64,0,0,0-6.34.07,129.52,129.52,0,0,1,45.53-32.59c46.81-19.62,91.54-3.87,116.56,4.94,59.17,20.84,94.29,62,109.7,83L656.23,339a221,221,0,0,1,16.41,38.66c1.53,4.86,5,16.48,11,59.14,3.46,24.78,5.83,46.22,13,69.59,1.92,6.29,5.33,12.22,10.11,18.71a80.7,80.7,0,0,0,28.9,24,533.62,533.62,0,0,0,115,77.74,111.7,111.7,0,0,1-22.28-4.19S822.9,621.08,802.37,612.62Z"/><path class="cls-62" d="M759.93,255,694.77,99.31"/><path class="cls-18" d="M697.14,109.68l3.2-2.16-5.16-10.61-3.57,1.38Q694.39,104,697.14,109.68Z"/><path class="cls-9" d="M768.56,268.7a9.44,9.44,0,0,0,2.2-4.1,9.67,9.67,0,0,0-.67-6.32,60,60,0,0,0-5.63-5.93,59.17,59.17,0,0,0-6.19-4.95.56.56,0,0,0-.3.2.52.52,0,0,0-.05.46,2.9,2.9,0,0,1,.39.86c.07.25.38,1.35-.17,1.91a1.94,1.94,0,0,1-2.4-.12.36.36,0,0,0-.41-.33.32.32,0,0,0-.21.32l5.52,16a8.48,8.48,0,0,0,7.92,2Z"/><path class="cls-63" d="M873,845,.91,382"/><path class="cls-64" d="M1182.36,668.44l-989-525.12"/><path class="cls-65" d="M1264.05,562.59,714.31,863.45"/><path class="cls-66" d="M1198.86,269.65,421.16,695.27"/><path class="cls-67" d="M1119.71,95,216.57,589.29"/><path class="cls-68" d="M861.42.74.4,472"/><path class="cls-69" d="M1218.69,401.15,465,.92"/><path class="cls-63" d="M1279.58,624.06,407.5,161"/><path class="cls-70" d="M280.32,599V71.63"/><path class="cls-71" d="M520.93,696.23V109.93"/><path class="cls-71" d="M814.08,813.1V226.8"/><path class="cls-71" d="M1061.56,684.45V98.15"/></g></g></svg>