<svg xmlns="http://www.w3.org/2000/svg" xmlns:xlink="http://www.w3.org/1999/xlink" viewBox="0 0 2627.14 1404.66"><defs><style>.cls-1{fill:none;}.cls-2{clip-path:url(#clip-path);}.cls-3{fill:#d2acbd;}.cls-4{fill:#fff;}.cls-5{fill:#f6edef;}.cls-6{fill:#f1d8de;}.cls-7{fill:#f1c3cf;}.cls-8{fill:#e1b9c6;}.cls-9{fill:#c28da7;}</style><clipPath id="clip-path" transform="translate(492.16 0)"><rect class="cls-1" width="2076.36" height="1404.66"/></clipPath></defs><g id="Capa_2" data-name="Capa 2"><g id="Capa_1-2" data-name="Capa 1"><g class="cls-2"><rect class="cls-3" x="452.16" width="2141.27" height="1139.05"/><path class="cls-4" d="M979.59,424.61c.25.44,20.79-2.73,22.64-2.82a150.79,150.79,0,0,1,29.87,1.56,35.91,35.91,0,0,0,7.23.67,31.55,31.55,0,0,0,6.37-1.21l10-2.62a15,15,0,0,0,5.29-2.13c1.75-1.31,2.83-3.3,4.19-5,7.13-9,21.34-7.79,31.59-7.79a428,428,0,0,1,43.4,2.17,136.08,136.08,0,0,0,14.4,1c12.38-.09,25.15-4.55,33.18-14,3.81-4.48,6.32-7.33,11.83-9.49,1.69-.66,3.35-1.46,5-2.21,3.21-1.47,6.39-3,9.59-4.49a103.22,103.22,0,0,1,19.6-7.25c28.43-6.68,57.63,6.06,83,17.58A565.28,565.28,0,0,1,1393,430.48c3.41,2.23,7,4.21,10.44,6.36,159.08,99-322.61,171.32-322.61,171.32Z" transform="translate(492.16 0)"/><path class="cls-5" d="M2079.06,318.19l-80.21,31.28c-6.73,2.62-13.58,5.27-20.78,5.9-9.55.83-19.07-2-27.92-5.66-26.89-11.21-52.46-31.3-81.43-28.27-24.43,2.57-44.43,21.3-68.51,26.1-19.17,3.81-39.08-1.55-58.5.63-13.75,1.55-26.91,6.85-40.69,8.07-6.29.55-80.66-12.2-80.66-13.95V328.94h-7.79V343.4l-10,2.22c-31.74,7.05-62.9,17.13-89.56,36-13.6,9.62-129.36,93.17-139.61,68.58-12.05-28.92-106.66,44.55-117.89,53.29-23.58,18.38-42.08,43.69-70.61,54.09-31,11.28-67.17,9-95.61-8.05-11.59-6.95-21.8-16-31.42-25.47-33.39-33-49.42-77.44-81.73-110.67-12.59-12.94-27.85-23.05-40.3-36.12-7.52-7.89-14.26-17.05-24.05-21.85-13.07-6.41-28.49-3.68-43-3.53-29.26.29-53-13.51-79.4-23.51-17.82-6.75-35.57-13.71-53.36-20.57V293.34l-31.15-15.58V251.07l-4.45-11.13-4.45,11.13V272.2h-20v8.89c0,.1-20,0-22-.1-6.68,14.28-38.15-10-44.79-17.89-3.59,1.88-.63,9.07-4.36,10.66-4,1.71-5.38-5.76-9.21-7.77-3.44-1.8-7.77,3.33-5.42,6.42-4.81.87-8.45-4-11.08-8.13s-7.18-8.58-11.64-6.6v10.16c-17.43,1.75-61.06,10-57.43-20.62.48-4,1.91-8.61-.62-11.77-2.83-3.55-8.36-2.56-12.72-3.82-8-2.33-11.06-11.79-15.38-19s-15.71-12.48-20.2-5.41c-2.9,4.56-.85,12.12-5.61,14.69-7.62,4.1-10.43-11.51-18.17-15.37-3.63-1.82-8-.64-11.76.84a81.63,81.63,0,0,0-41.62,37c-13.41-.84-16.29-25.62-29.65-24.26-5.18.52-8.84,5.13-11.95,9.29a412,412,0,0,1-55,60.19c-6,5.41-13.13,11-21.21,10.38-5.77-.42-10.78-3.92-16-6.36a46.1,46.1,0,0,0-39.57.7c-10.92,5.53-22,15.81-33.5,11.58-4.77-1.75-8.48-5.86-13.41-7.14-16.65-4.3-26.84,24.93-43.88,22.52-3.32-.46-6.34-2.17-9.55-3.16-5.62-1.72-11.64-1.19-17.5-.65C52.48,317.54,11.09,325-29,327.63c-.09,0-.19.12-.28.32l-.1,755.22H2106.49V318.91C2106.48,309.93,2082,317.05,2079.06,318.19Z" transform="translate(492.16 0)"/><path class="cls-6" d="M1929.61,894.05V757.22h-1.35c-2.46,5.57-23.12,18.92-23.12,18.92v26.69c0,17.14-42.87-.69-62.59-9.79h0l-11.94-5.78v3.34c3.35,81.85,2.14,111.66-1.12,114.58H1701.56V828.42h-57.84V805.06h-30v32.26h-45.61V697.15h-52.28V582.57h-11.13V571.45h-51.17v12.23h-12.24V871.8h-86.77V817.3h-99V791.71H1172v-69H1078.6V579.23h-2.93l-40.46,22.25-20.46-22.25H959.57V735H924V670.45l-45.61-66.74V516.94l-20-1.11V479.12L764.89,589.25V829.53H717.06v-89H677v21.13H621.39v50.62H584.12l-28.37,28.37H542.41v-80.1H530.17V711.61H459V849.56H415.59v-26.7H363.3v17.8l-24.47-15.58H178.64V757.22H106.33L55.16,829.53l4.45,33.38-8.9,3.33L38.47,829.53l-67.86-13.35h-84.54V711.61H-238.52V641.53h-53.4l-85.66,61.18v74.54l-114.58,4.45v291.46H2107.6V894.05Z" transform="translate(492.16 0)"/><polygon class="cls-4" points="1299.33 589.25 1301.55 891.83 1313.79 891.83 1313.79 589.25 1299.33 589.25"/><polygon class="cls-4" points="1343.82 607.04 1346.73 909.63 1362.73 909.63 1362.73 607.04 1343.82 607.04"/><polygon class="cls-4" points="1376.08 934.1 1413.91 866.24 1415.02 861.79 1376.08 928.54 1376.08 934.1"/><polygon class="cls-4" points="1410.57 744.99 1410.57 869.42 1415.02 861.79 1415.02 744.99 1410.57 744.99"/><polygon class="cls-4" points="1247.04 829.53 1247.04 864.02 1290.42 907.4 1290.42 902.95 1251.49 862.9 1247.04 829.53"/><polygon class="cls-4" points="1326.02 519.16 1326.02 587.02 1321.57 587.02 1326.02 519.16"/><path class="cls-4" d="M1018.53,602.6V973h11.12s-2.22-370.44,0-370.44Z" transform="translate(492.16 0)"/><rect class="cls-4" x="1942.15" y="585.91" width="3.34" height="374.89"/><rect class="cls-4" x="1949.94" y="585.91" width="3.34" height="374.89"/><rect class="cls-4" x="1957.73" y="585.91" width="3.34" height="374.89"/><rect class="cls-4" x="1966.63" y="585.91" width="3.34" height="374.89"/><rect class="cls-4" x="1975.53" y="585.91" width="3.34" height="374.89"/><rect class="cls-4" x="1984.43" y="585.91" width="3.34" height="374.89"/><rect class="cls-4" x="1994.44" y="585.91" width="3.34" height="374.89"/><rect class="cls-4" x="2002.22" y="585.91" width="3.34" height="374.89"/><rect class="cls-4" x="2300.68" y="939.66" width="84.55" height="4.45"/><rect class="cls-4" x="2306.24" y="928.54" width="78.98" height="4.45"/><rect class="cls-4" x="2311.8" y="916.3" width="73.42" height="4.45"/><rect class="cls-4" x="2317.37" y="902.95" width="68.97" height="4.45"/><rect class="cls-4" x="2324.04" y="892.94" width="62.3" height="4.45"/><rect class="cls-4" x="2324.04" y="880.7" width="62.3" height="4.45"/><rect class="cls-4" x="2326.26" y="868.47" width="58.96" height="4.45"/><rect class="cls-4" x="2326.26" y="856.23" width="58.96" height="4.45"/><rect class="cls-4" x="2325.15" y="843.99" width="61.18" height="4.45"/><rect class="cls-4" x="2325.15" y="833.98" width="58.96" height="4.45"/><rect class="cls-4" x="2324.04" y="819.52" width="61.18" height="4.45"/><polygon class="cls-7" points="2464.05 1024.21 2464.05 960.8 2329.44 960.8 2329.44 1025.32 2224.87 1025.32 2162.57 963.02 2023.52 963.02 2023.52 939.66 1994.6 939.66 1994.6 960.8 1944.54 960.8 1806.6 960.8 1806.6 916.3 1773.22 916.3 1773.22 966.36 1740.96 966.36 1740.96 1040.89 1589.67 1040.89 1589.67 997.51 1558.52 997.51 1558.52 1013.08 1495.11 1013.08 1495.11 998.62 1469.53 998.62 1463.96 993.06 1442.83 993.06 1442.83 1019.76 1401.67 1019.76 1379.42 997.51 1316.01 997.51 1316.01 906.29 1273.74 906.29 1273.74 926.31 1228.13 926.31 1228.13 974.15 1071.28 974.15 1071.28 897.39 1029 897.39 1029 912.97 998.97 912.97 998.97 930.76 947.79 930.76 947.79 971.37 846.01 971.37 830.43 955.79 779.82 905.18 642.99 905.18 642.99 835.1 607.95 800.05 578.47 829.53 578.47 965.25 510.61 965.25 510.61 908.51 462.77 908.51 462.77 1083.17 462.77 1404.66 2598.65 1404.66 2598.65 1083.17 2598.65 1024.21 2464.05 1024.21"/><rect class="cls-8" x="1075.94" y="992.88" width="14.3" height="51.71"/><rect class="cls-8" x="1011.03" y="927.97" width="48.41" height="25.3"/><rect class="cls-8" x="1011.03" y="963.18" width="48.41" height="25.3"/><rect class="cls-8" x="991.23" y="1002.78" width="67.11" height="25.3"/><rect class="cls-8" x="991.23" y="1041.29" width="67.11" height="25.3"/><rect class="cls-8" x="991.23" y="1079.79" width="67.11" height="25.3"/><rect class="cls-8" x="991.23" y="1118.3" width="67.11" height="25.3"/><rect class="cls-8" x="1099.04" y="992.88" width="14.3" height="51.71"/><rect class="cls-8" x="1122.15" y="992.88" width="14.3" height="51.71"/><rect class="cls-8" x="1145.25" y="992.88" width="14.3" height="51.71"/><rect class="cls-8" x="1168.35" y="992.88" width="14.3" height="51.71"/><rect class="cls-8" x="1750.33" y="976.38" width="25.3" height="25.3"/><rect class="cls-8" x="1750.33" y="1026.99" width="25.3" height="25.3"/><rect class="cls-8" x="1750.33" y="1073.19" width="25.3" height="25.3"/><rect class="cls-8" x="1750.33" y="1119.4" width="25.3" height="25.3"/><rect class="cls-8" x="1792.13" y="976.38" width="25.3" height="25.3"/><rect class="cls-8" x="1792.13" y="1026.99" width="25.3" height="25.3"/><rect class="cls-8" x="1792.13" y="1073.19" width="25.3" height="25.3"/><rect class="cls-8" x="1792.13" y="1119.4" width="25.3" height="25.3"/><rect class="cls-8" x="1835.04" y="976.38" width="25.3" height="25.3"/><rect class="cls-8" x="1835.04" y="1026.99" width="25.3" height="25.3"/><rect class="cls-8" x="1835.04" y="1073.19" width="25.3" height="25.3"/><rect class="cls-8" x="1835.04" y="1119.4" width="25.3" height="25.3"/><rect class="cls-8" x="1881.25" y="976.38" width="25.3" height="25.3"/><rect class="cls-8" x="1881.25" y="1026.99" width="25.3" height="25.3"/><rect class="cls-8" x="1881.25" y="1073.19" width="25.3" height="25.3"/><rect class="cls-8" x="1881.25" y="1119.4" width="25.3" height="25.3"/><rect class="cls-8" x="1926.35" y="976.38" width="25.3" height="25.3"/><rect class="cls-8" x="1926.35" y="1026.99" width="25.3" height="25.3"/><rect class="cls-8" x="1926.35" y="1073.19" width="25.3" height="25.3"/><rect class="cls-8" x="1926.35" y="1119.4" width="25.3" height="25.3"/><rect class="cls-8" x="1971.46" y="976.38" width="25.3" height="25.3"/><rect class="cls-8" x="1971.46" y="1026.99" width="25.3" height="25.3"/><rect class="cls-8" x="1971.46" y="1073.19" width="25.3" height="25.3"/><rect class="cls-8" x="1971.46" y="1119.4" width="25.3" height="25.3"/><rect class="cls-8" x="2011.06" y="976.38" width="25.3" height="25.3"/><rect class="cls-8" x="2011.06" y="1026.99" width="25.3" height="25.3"/><rect class="cls-8" x="2011.06" y="1073.19" width="25.3" height="25.3"/><rect class="cls-8" x="2011.06" y="1119.4" width="25.3" height="25.3"/><rect class="cls-8" x="2052.87" y="976.38" width="25.3" height="25.3"/><rect class="cls-8" x="2052.87" y="1026.99" width="25.3" height="25.3"/><rect class="cls-8" x="2052.87" y="1073.19" width="25.3" height="25.3"/><rect class="cls-8" x="2052.87" y="1119.4" width="25.3" height="25.3"/><rect class="cls-8" x="1191.46" y="992.88" width="14.3" height="51.71"/><rect class="cls-8" x="1214.56" y="992.88" width="14.3" height="51.71"/><rect class="cls-8" x="1317.97" y="1021.49" width="60.51" height="51.71"/><rect class="cls-8" x="1452.19" y="1093" width="60.51" height="51.71"/><rect class="cls-8" x="1317.97" y="1080.89" width="128.72" height="51.71"/><rect class="cls-8" x="1452.19" y="1031.39" width="128.72" height="51.71"/><rect class="cls-8" x="1233.26" y="934.57" width="3.3" height="231.03"/><rect class="cls-8" x="1238.76" y="934.57" width="3.3" height="231.03"/><rect class="cls-8" x="1245.36" y="934.57" width="3.3" height="231.03"/><rect class="cls-8" x="1251.96" y="934.57" width="3.3" height="231.03"/><rect class="cls-8" x="1259.67" y="934.57" width="3.3" height="231.03"/><rect class="cls-8" x="1268.47" y="934.57" width="3.3" height="231.03"/><rect class="cls-8" x="1276.17" y="934.57" width="3.3" height="231.03"/><rect class="cls-8" x="1286.07" y="934.57" width="3.3" height="231.03"/><rect class="cls-8" x="1292.67" y="934.57" width="3.3" height="231.03"/><rect class="cls-8" x="1298.17" y="934.57" width="3.3" height="231.03"/><rect class="cls-8" x="1304.77" y="934.57" width="3.3" height="231.03"/><rect class="cls-8" x="1075.94" y="1053.39" width="14.3" height="51.71"/><rect class="cls-8" x="1099.04" y="1053.39" width="14.3" height="51.71"/><rect class="cls-8" x="1122.15" y="1053.39" width="14.3" height="51.71"/><rect class="cls-8" x="1145.25" y="1053.39" width="14.3" height="51.71"/><rect class="cls-8" x="1168.35" y="1053.39" width="14.3" height="51.71"/><rect class="cls-8" x="1191.46" y="1053.39" width="14.3" height="51.71"/><rect class="cls-8" x="1590.81" y="1046.79" width="31.9" height="124.32"/><rect class="cls-8" x="1630.41" y="1046.79" width="31.9" height="124.32"/><rect class="cls-8" x="1667.82" y="1046.79" width="31.9" height="124.32"/><rect class="cls-8" x="1704.12" y="1046.79" width="31.9" height="124.32"/><rect class="cls-8" x="1214.56" y="1053.39" width="14.3" height="51.71"/><rect class="cls-8" x="1075.94" y="1113.9" width="152.92" height="51.71"/><polygon class="cls-8" points="471.96 171.07 732.7 429.61 732.7 520.92 938.42 699.14 912.02 699.14 913.12 778.35 921.92 778.35 921.92 843.26 913.12 843.26 913.12 1143.6 471.96 1143.6 471.96 171.07"/><polygon class="cls-8" points="913.12 856.18 1011.03 926.87 1011.03 965.38 991.23 965.38 991.23 1143.6 913.12 1143.6 913.12 856.18"/><polygon class="cls-3" points="471.96 197.48 531.37 256.89 531.37 449.41 471.96 410.91 471.96 197.48"/><path class="cls-3" d="M53.51,269V458l18.7,12.35V287.09Z" transform="translate(492.16 0)"/><polygon class="cls-3" points="471.96 446.11 531.37 485.72 531.37 602.33 471.96 568.23 471.96 446.11"/><path class="cls-3" d="M53.51,494.52V610l18.7,12.1V506.62Z" transform="translate(492.16 0)"/><polygon class="cls-9" points="471.96 678.24 763.5 833.36 733.8 833.36 471.96 699.14 471.96 678.24"/><polygon class="cls-7" points="471.96 725.55 720.6 849.86 720.6 934.58 471.96 815.76 471.96 728.85 471.96 725.55"/><polygon class="cls-3" points="471.96 837.76 591.88 893.87 591.88 1144.7 471.96 1144.7 471.96 837.76"/><polygon class="cls-3" points="618.28 907.07 613.88 1144.7 707.39 1144.7 707.39 946.68 618.28 907.07"/><polygon class="cls-3" points="471.96 568.23 763.5 739.85 763.5 833.36 471.96 678.24 471.96 568.23"/><polygon class="cls-3" points="752.5 1144.7 752.5 877.37 853.71 926.87 853.71 1144.7 752.5 1144.7"/><polygon class="cls-3" points="795.4 706.85 795.4 800.36 838.31 827.86 838.31 738.75 795.4 706.85"/><polygon class="cls-6" points="2166.18 837.76 2166.18 1115 2228.89 1115 2228.89 819.06 2166.18 837.76"/><polygon class="cls-5" points="2335.05 617.18 2341.66 619.38 2509.98 551.14 2509.98 545.67 2335.05 617.18"/><path class="cls-6" d="M2135,1327.33H-24.6q2.21-91.32,4.4-182.63L2135,1142.5Z" transform="translate(492.16 0)"/><polygon class="cls-7" points="1983.56 1143.6 2627.14 1311.92 2627.14 1284.42 2063.87 1143.6 1983.56 1143.6"/><polygon class="cls-7" points="1095.74 1143.6 452.16 1311.92 452.16 1284.42 1015.43 1143.6 1095.74 1143.6"/><rect class="cls-7" x="480.76" y="1259.12" width="2141.98" height="4.4"/><rect class="cls-7" x="471.96" y="1219.51" width="2141.98" height="4.4"/><rect class="cls-7" x="471.96" y="1178.81" width="2141.98" height="4.4"/><rect class="cls-7" x="471.96" y="1152.4" width="2141.98" height="4.4"/><polygon class="cls-7" points="918.61 1311.92 916.91 1308.3 1017.27 1260.15 1018.97 1263.77 918.61 1311.92"/><rect class="cls-7" x="347.2" y="1239.86" width="92.52" height="3.3" transform="translate(32.14 257.78) rotate(-23.36)"/><path class="cls-7" d="M646.93,1262.79l-1.87-2.72,57.79-39.71,5.08.51Z" transform="translate(492.16 0)"/><rect class="cls-7" x="892.15" y="1239.82" width="44.57" height="3.3" transform="translate(27.78 1931.63) rotate(-80.22)"/><rect class="cls-7" x="912.08" y="1167.25" width="28.79" height="3.3" transform="matrix(0.11, -0.99, 0.99, 0.11, 151.28, 1955.35)"/><rect class="cls-7" x="732.79" y="1166.15" width="48.52" height="3.3" transform="translate(-21.4 599.97) rotate(-32.97)"/><rect class="cls-7" x="557.62" y="1166.15" width="60.03" height="3.3" transform="translate(91.37 312.17) rotate(-22.41)"/><rect class="cls-7" x="583.73" y="1199.16" width="92.52" height="3.3" transform="translate(38.74 385.3) rotate(-25.35)"/><path class="cls-7" d="M726.56,1155.92l-4.87-.6,24.44-11.41h5.67Z" transform="translate(492.16 0)"/><rect class="cls-7" x="43.37" y="1199.71" width="172.1" height="3.3" transform="translate(211.47 64.78) rotate(-13.69)"/><path class="cls-7" d="M259.63,1156.21l-.78-3.21,41.49-8.72h8.78Z" transform="translate(492.16 0)"/><path class="cls-7" d="M58.19,1156.27l-2.87-2.17,41.24-9.66,7.77.12Z" transform="translate(492.16 0)"/><path class="cls-7" d="M77,1180.4l-5.48-1.08,87.14-24.11,4.73,1.1Z" transform="translate(492.16 0)"/><polygon class="cls-7" points="790.39 1182.6 789.47 1179.27 886.41 1153.55 887.33 1156.88 790.39 1182.6"/><rect class="cls-7" x="-10.69" y="1239.67" width="140.23" height="3.3" transform="translate(159.75 61.97) rotate(-15.64)"/><path class="cls-7" d="M783.63,1305.71l-1.45-3,.73,1.48-1.4-.87c.69-1.19,12.82-26.22,20.81-42.75l3,1.43C784.36,1305.35,784.35,1305.36,783.63,1305.71Z" transform="translate(492.16 0)"/><path class="cls-7" d="M821,1223.91l-1.45-3,.72,1.48-1.39-.88c.68-1.18,12.82-26.21,20.81-42.74l3,1.43C821.77,1223.56,821.75,1223.56,821,1223.91Z" transform="translate(492.16 0)"/><path class="cls-7" d="M854.08,1157.17l-1.53-2.93.77,1.46-1.46-.78c.26-.49,3.4-7.44,5.45-12l3,1.36C854.64,1156.87,854.64,1156.87,854.08,1157.17Z" transform="translate(492.16 0)"/><path class="cls-7" d="M1645.81,1305.71l-90.43-42.79,8.24.21,92.36,43.5Z" transform="translate(492.16 0)"/><rect class="cls-7" x="1686.68" y="1195.26" width="3.3" height="92.52" transform="translate(371.42 2299.39) rotate(-66.65)"/><path class="cls-7" d="M1434.86,1262.79l-61-41.92,5.05-.53,57.83,39.73Z" transform="translate(492.16 0)"/><rect class="cls-7" x="1165.7" y="1219.19" width="3.3" height="44.57" transform="translate(297.96 216.71) rotate(-9.8)"/><rect class="cls-7" x="1153.66" y="1154.51" width="3.3" height="28.79" transform="translate(365.79 140.13) rotate(-6.58)"/><rect class="cls-7" x="1323.08" y="1143.55" width="3.3" height="48.52" transform="translate(116.24 1643.69) rotate(-57.03)"/><path class="cls-7" d="M1521.27,1180.77l-59.39-24.5,5.15-1.43,59.08,24.55Z" transform="translate(492.16 0)"/><rect class="cls-7" x="1450.14" y="1154.55" width="3.3" height="92.52" transform="translate(237.24 1998.8) rotate(-64.65)"/><path class="cls-7" d="M1352.2,1154.81l-24.86-11.56,6.27-.19,26.49,12.26Z" transform="translate(492.16 0)"/><rect class="cls-7" x="1950.71" y="1115.31" width="3.3" height="172.1" transform="translate(815.48 2814.19) rotate(-76.32)"/><path class="cls-7" d="M1822.15,1156.21l-50.45-13.71h7.49l43.74,10.5Z" transform="translate(492.16 0)"/><polygon class="cls-7" points="2275.74 1182.6 2181.66 1155.87 2182.55 1152.4 2276.63 1179.14 2275.74 1182.6"/><path class="cls-7" d="M1298.15,1305.71c-.72-.35-.73-.36-21.66-43.68l3-1.43c8,16.53,20.12,41.56,20.81,42.74l-1.35.78Z" transform="translate(492.16 0)"/><path class="cls-7" d="M1261.85,1223.91c-.72-.35-.73-.35-21.67-43.67l3-1.43c8,16.53,20.13,41.56,20.81,42.74l-1.34.78Z" transform="translate(492.16 0)"/><path class="cls-7" d="M1227.69,1156.32c-.55-.29-.55-.29-6.23-12.88l3.39-.11q1.51,3.06,3,6.27c.7,1.51,1.39,3,2.05,4.48l-1.42.72Z" transform="translate(492.16 0)"/><rect class="cls-7" x="1536.35" y="1261.32" width="3.3" height="42.91"/><rect class="cls-7" x="1536.35" y="1178.81" width="3.3" height="42.91"/><rect class="cls-7" x="1536.34" y="1142.5" width="3.3" height="13.2"/><path class="cls-8" d="M1665.65,1182l9.27-179.48h29.74l3,179.48S1703.5,1197.67,1665.65,1182Z" transform="translate(492.16 0)"/><rect class="cls-9" x="2168.44" y="998.39" width="26.71" height="4.11"/><path class="cls-8" d="M1674.74,998.39l.67-11.07a22.91,22.91,0,0,1,28.13.5l.83,10.65Z" transform="translate(492.16 0)"/><path class="cls-8" d="M203.44,1243.79,193,1041.86H159.56l-3.42,201.93S160.86,1261.44,203.44,1243.79Z" transform="translate(492.16 0)"/><rect class="cls-9" x="653.59" y="1037.24" width="30.05" height="4.62"/><path class="cls-8" d="M193.22,1037.24l-.75-12.45a26.42,26.42,0,0,0-17.47-5.08,26.08,26.08,0,0,0-14.18,5.64q-.47,6-.94,12Z" transform="translate(492.16 0)"/><path class="cls-8" d="M437.21,1184.2,428,1004.72H398.2l-3,179.48S399.36,1199.89,437.21,1184.2Z" transform="translate(492.16 0)"/><rect class="cls-9" x="892.03" y="1000.61" width="26.71" height="4.11"/><path class="cls-8" d="M428.12,1000.61l-.66-11.07A23.57,23.57,0,0,0,411.93,985a23.15,23.15,0,0,0-12.6,5l-.84,10.65Z" transform="translate(492.16 0)"/></g></g></g></svg>